<?xml version="1.0" encoding="UTF-8"?>
<!DOCTYPE svg PUBLIC "-//W3C//DTD SVG 1.1//EN" "http://www.w3.org/Graphics/SVG/1.1/DTD/svg11.dtd">
<!-- Creator: CorelDRAW X7 -->
<svg xmlns="http://www.w3.org/2000/svg" xml:space="preserve" width="1200px" height="717px" version="1.1" style="shape-rendering:geometricPrecision; text-rendering:geometricPrecision; image-rendering:optimizeQuality; fill-rule:evenodd; clip-rule:evenodd"
viewBox="0 0 3080 1841"
 xmlns:xlink="http://www.w3.org/1999/xlink">
 <defs>
  <style type="text/css">
   <![CDATA[
    .str0 {stroke:#B3B3B3;stroke-width:7.80859;stroke-linecap:round;stroke-linejoin:round;stroke-dasharray:15.617181 39.042952}
    .fil2 {fill:none}
    .fil7 {fill:#0072C6}
    .fil4 {fill:#32145A}
    .fil3 {fill:#5C2D91}
    .fil5 {fill:#B4A0FF}
    .fil0 {fill:white}
    .fil6 {fill:#0072C6;fill-rule:nonzero}
    .fil1 {fill:#4F4F4F;fill-rule:nonzero}
   ]]>
  </style>
 </defs>
 <g id="Camada_x0020_1">
  <metadata id="CorelCorpID_0Corel-Layer"/>
  <rect class="fil0" width="3080" height="1841"/>
  <path class="fil1" d="M1982 571c-2,2 -4,4 -6,5 -3,1 -6,1 -9,1 -4,0 -7,-1 -10,-2 -2,-2 -4,-4 -6,-7 -1,-3 -2,-7 -2,-11l0 -3c0,-7 1,-12 4,-15 3,-4 8,-6 13,-6 5,0 8,1 11,4 3,2 4,5 5,9l-6 0c-1,-5 -4,-8 -10,-8 -4,0 -6,1 -8,4 -2,3 -3,6 -3,11l0 4c0,5 1,9 3,11 2,3 5,5 9,5 2,0 4,-1 5,-1 2,-1 3,-1 4,-2l0 -10 -10 0 0 -5 16 0 0 16z"/>
  <polygon id="1" class="fil1" points="2017,557 1998,557 1998,572 2020,572 2020,577 1993,577 1993,534 2020,534 2020,539 1998,539 1998,552 2017,552 "/>
  <path id="2" class="fil1" d="M2044 559l-10 0 0 18 -5 0 0 -43 14 0c5,0 8,1 11,3 2,2 4,6 4,10 0,2 -1,5 -2,7 -2,2 -4,3 -6,4l10 18 0 1 -6 0 -10 -18zm-10 -4l9 0c3,0 5,-1 7,-2 1,-2 2,-4 2,-6 0,-3 -1,-5 -2,-6 -2,-2 -4,-2 -7,-2l-9 0 0 16z"/>
  <path id="3" class="fil1" d="M2091 565l-18 0 -4 12 -6 0 16 -43 5 0 17 43 -6 0 -4 -12zm-16 -4l14 0 -7 -20 -7 20z"/>
  <path id="4" class="fil1" d="M2124 559l-10 0 0 18 -6 0 0 -43 14 0c5,0 9,1 11,3 3,2 4,6 4,10 0,2 -1,5 -2,7 -1,2 -3,3 -6,4l10 18 0 1 -6 0 -9 -18zm-10 -4l8 0c3,0 5,-1 7,-2 2,-2 2,-4 2,-6 0,-3 0,-5 -2,-6 -2,-2 -4,-2 -7,-2l-8 0 0 16z"/>
  <polygon id="5" class="fil1" points="2192,557 2173,557 2173,572 2195,572 2195,577 2167,577 2167,534 2194,534 2194,539 2173,539 2173,552 2192,552 "/>
  <polygon id="6" class="fil1" points="2248,557 2230,557 2230,572 2251,572 2251,577 2224,577 2224,534 2251,534 2251,539 2230,539 2230,552 2248,552 "/>
  <polygon id="7" class="fil1" points="2293,577 2287,577 2265,544 2265,577 2260,577 2260,534 2265,534 2287,567 2287,534 2293,534 "/>
  <polygon id="8" class="fil1" points="2333,539 2319,539 2319,577 2313,577 2313,539 2300,539 2300,534 2333,534 "/>
  <path id="9" class="fil1" d="M2356 559l-10 0 0 18 -5 0 0 -43 14 0c5,0 8,1 11,3 3,2 4,6 4,10 0,2 -1,5 -2,7 -2,2 -4,3 -6,4l10 18 0 1 -6 0 -10 -18zm-10 -4l9 0c3,0 5,-1 7,-2 1,-2 2,-4 2,-6 0,-3 -1,-5 -2,-6 -2,-2 -4,-2 -7,-2l-9 0 0 16z"/>
  <polygon id="10" class="fil1" points="2404,557 2385,557 2385,572 2407,572 2407,577 2379,577 2379,534 2406,534 2406,539 2385,539 2385,552 2404,552 "/>
  <path id="11" class="fil1" d="M2447 571c-2,2 -4,4 -6,5 -3,1 -6,1 -9,1 -4,0 -7,-1 -10,-2 -3,-2 -5,-4 -6,-7 -2,-3 -2,-7 -2,-11l0 -3c0,-7 1,-12 4,-15 3,-4 7,-6 13,-6 4,0 8,1 11,4 2,2 4,5 5,9l-6 0c-1,-5 -4,-8 -10,-8 -4,0 -7,1 -9,4 -2,3 -3,6 -3,11l0 4c0,5 1,9 4,11 2,3 5,5 9,5 2,0 4,-1 5,-1 2,-1 3,-1 4,-2l0 -10 -10 0 0 -5 16 0 0 16z"/>
  <path id="12" class="fil1" d="M2481 565l-18 0 -4 12 -6 0 17 -43 5 0 16 43 -6 0 -4 -12zm-16 -4l15 0 -8 -20 -7 20z"/>
  <path id="13" class="fil1" d="M2514 559l-10 0 0 18 -6 0 0 -43 15 0c4,0 8,1 11,3 2,2 4,6 4,10 0,2 -1,5 -3,7 -1,2 -3,3 -6,4l10 18 0 1 -6 0 -9 -18zm-10 -4l9 0c2,0 5,-1 6,-2 2,-2 3,-4 3,-6 0,-3 -1,-5 -3,-6 -1,-2 -3,-2 -6,-2l-9 0 0 16z"/>
  <path id="14" class="fil1" d="M2581 565l-18 0 -4 12 -5 0 16 -43 5 0 16 43 -5 0 -5 -12zm-16 -4l15 0 -8 -20 -7 20z"/>
  <polygon id="15" class="fil1" points="2626,577 2620,577 2620,534 2626,534 "/>
  <polygon id="16" class="fil1" points="2670,577 2665,577 2643,544 2643,577 2637,577 2637,534 2643,534 2665,567 2665,534 2670,534 "/>
  <polygon id="17" class="fil1" points="2705,558 2687,558 2687,577 2682,577 2682,534 2708,534 2708,539 2687,539 2687,553 2705,553 "/>
  <path id="18" class="fil1" d="M2750 557c0,4 -1,8 -3,11 -1,3 -3,5 -6,7 -2,1 -5,2 -9,2 -3,0 -6,-1 -9,-2 -2,-2 -4,-4 -6,-7 -1,-3 -2,-7 -2,-11l0 -3c0,-4 1,-8 2,-11 2,-3 4,-5 6,-7 3,-2 6,-3 9,-3 4,0 7,1 9,3 3,1 5,4 6,7 2,3 3,7 3,11l0 3zm-6 -3c0,-5 -1,-9 -3,-12 -2,-2 -5,-4 -9,-4 -3,0 -6,2 -8,4 -2,3 -3,7 -3,12l0 3c0,5 1,8 3,11 2,3 5,4 8,4 4,0 7,-1 9,-4 2,-2 3,-6 3,-11l0 -3z"/>
  <path id="19" class="fil1" d="M2775 559l-10 0 0 18 -6 0 0 -43 15 0c4,0 8,1 11,3 2,2 4,6 4,10 0,2 -1,5 -3,7 -1,2 -3,3 -6,4l11 18 0 1 -7 0 -9 -18zm-10 -4l9 0c3,0 5,-1 6,-2 2,-2 3,-4 3,-6 0,-3 -1,-5 -2,-6 -2,-2 -4,-2 -7,-2l-9 0 0 16z"/>
  <polygon id="20" class="fil1" points="2805,534 2819,569 2833,534 2841,534 2841,577 2835,577 2835,560 2836,542 2821,577 2817,577 2803,542 2804,560 2804,577 2798,577 2798,534 "/>
  <path id="21" class="fil1" d="M2876 565l-18 0 -4 12 -5 0 16 -43 5 0 16 43 -6 0 -4 -12zm-16 -4l15 0 -8 -20 -7 20z"/>
  <path id="22" class="fil1" d="M2925 563c-1,5 -3,8 -5,11 -3,2 -7,3 -12,3 -5,0 -9,-2 -12,-5 -3,-4 -4,-9 -4,-15l0 -4c0,-4 0,-7 2,-10 1,-3 3,-6 6,-7 2,-2 5,-3 9,-3 4,0 8,2 11,4 3,3 4,6 5,11l-6 0c-1,-4 -2,-6 -3,-8 -2,-1 -4,-2 -7,-2 -4,0 -7,1 -9,4 -2,3 -3,6 -3,11l0 4c0,5 1,9 3,12 2,2 5,4 8,4 4,0 6,-1 8,-2 1,-2 2,-4 3,-8l6 0zm-15 14l0 1c3,1 4,3 4,6 0,1 0,3 -2,4 -1,1 -4,2 -6,2l-1 -3c2,0 3,-1 4,-1 1,-1 1,-1 1,-2 0,-1 0,-2 -1,-2 0,-1 -2,-1 -4,-1l1 -4 4 0z"/>
  <path id="23" class="fil1" d="M2957 565l-17 0 -5 12 -5 0 16 -43 5 0 16 43 -5 0 -5 -12zm-16 -4l15 0 -8 -20 -7 20zm18 -38c0,3 -1,4 -2,6 -1,1 -2,2 -4,2 -1,0 -2,-1 -2,-1 -1,0 -2,0 -3,-1 -1,-1 -1,-1 -2,-1 0,0 -1,0 -1,0 -1,0 -2,0 -2,1 -1,0 -1,1 -1,2l-4 0c0,-2 1,-4 2,-5 1,-2 3,-2 5,-2 0,0 1,0 1,0 1,0 2,1 3,1 1,1 1,1 2,1 0,0 1,1 1,1 1,0 2,-1 3,-2 0,0 0,-1 0,-2l4 0z"/>
  <path id="24" class="fil1" d="M3007 557c0,4 0,8 -2,11 -1,3 -3,5 -6,7 -2,1 -5,2 -9,2 -3,0 -6,-1 -9,-2 -3,-2 -5,-4 -6,-7 -1,-3 -2,-7 -2,-11l0 -3c0,-4 1,-8 2,-11 1,-3 3,-5 6,-7 3,-2 6,-3 9,-3 3,0 6,1 9,3 3,1 5,4 6,7 2,3 2,7 2,11l0 3zm-5 -3c0,-5 -1,-9 -3,-12 -2,-2 -5,-4 -9,-4 -4,0 -6,2 -8,4 -2,3 -4,7 -4,12l0 3c0,5 1,8 4,11 2,3 4,4 8,4 4,0 7,-1 9,-4 2,-2 3,-6 3,-11l0 -3z"/>
  <polygon class="fil1" points="1973,688 1955,688 1955,703 1976,703 1976,707 1949,707 1949,665 1976,665 1976,669 1955,669 1955,683 1973,683 "/>
  <polygon id="1" class="fil1" points="1993,687 2000,676 2006,676 1996,691 2007,707 2000,707 1993,696 1986,707 1979,707 1990,691 1980,676 1986,676 "/>
  <path id="2" class="fil1" d="M2039 692c0,5 -1,9 -3,12 -3,3 -6,4 -9,4 -4,0 -7,-1 -9,-4l0 16 -6 0 0 -44 5 0 0 3c3,-3 6,-4 10,-4 3,0 6,2 9,4 2,3 3,7 3,12l0 1zm-6 -1c0,-3 0,-6 -2,-8 -1,-2 -3,-3 -6,-3 -3,0 -6,1 -7,4l0 15c1,3 4,5 7,5 3,0 5,-1 6,-3 2,-3 2,-6 2,-10z"/>
  <path id="3" class="fil1" d="M2059 708c-4,0 -8,-1 -11,-4 -2,-3 -4,-7 -4,-12l0 -1c0,-3 1,-6 2,-8 1,-2 3,-4 5,-6 2,-1 5,-2 7,-2 4,0 8,1 10,4 2,3 3,7 3,12l0 2 -21 0c0,3 1,6 3,8 1,2 4,3 6,3 2,0 4,-1 5,-2 2,0 3,-1 4,-3l3 3c-3,4 -7,6 -12,6zm-1 -28c-2,0 -4,0 -5,2 -2,2 -3,4 -3,7l16 0 0 -1c0,-2 -1,-5 -2,-6 -2,-2 -3,-2 -6,-2z"/>
  <path id="4" class="fil1" d="M2093 681c-1,-1 -2,-1 -3,-1 -3,0 -6,2 -7,5l0 22 -5 0 0 -31 5 0 0 3c2,-2 4,-4 8,-4 1,0 2,0 2,1l0 5z"/>
  <path id="5" class="fil1" d="M2104 707l-5 0 0 -31 5 0 0 31zm-6 -40c0,-1 0,-1 1,-2 0,-1 1,-1 2,-1 1,0 2,0 3,1 0,1 1,1 1,2 0,1 -1,2 -1,2 -1,1 -2,1 -3,1 -1,0 -2,0 -2,-1 -1,0 -1,-1 -1,-2z"/>
  <path id="6" class="fil1" d="M2126 708c-4,0 -8,-1 -11,-4 -2,-3 -4,-7 -4,-12l0 -1c0,-3 1,-6 2,-8 1,-2 3,-4 5,-6 2,-1 5,-2 7,-2 4,0 8,1 10,4 2,3 3,7 3,12l0 2 -21 0c0,3 1,6 2,8 2,2 4,3 7,3 2,0 4,-1 5,-2 1,0 3,-1 4,-3l3 3c-3,4 -7,6 -12,6zm-1 -28c-2,0 -4,0 -5,2 -2,2 -3,4 -3,7l16 0 0 -1c0,-2 -1,-5 -2,-6 -2,-2 -4,-2 -6,-2zm9 -10l0 1 -4 0 -5 -5 -4 5 -5 0 0 -1 7 -8 4 0 7 8z"/>
  <path id="7" class="fil1" d="M2150 676l0 4c2,-3 5,-5 9,-5 7,0 10,4 11,11l0 21 -6 0 0 -21c0,-2 0,-4 -1,-5 -2,-1 -3,-1 -5,-1 -2,0 -4,0 -5,1 -1,1 -2,2 -3,4l0 22 -5 0 0 -31 5 0z"/>
  <path id="8" class="fil1" d="M2190 704c2,0 4,-1 6,-2 1,-1 2,-3 2,-5l5 0c0,2 -1,4 -2,6 -1,1 -2,3 -4,4 -2,1 -4,1 -7,1 -4,0 -7,-1 -10,-4 -2,-3 -4,-7 -4,-12l0 -1c0,-3 1,-6 2,-8 1,-3 3,-5 5,-6 2,-1 5,-2 7,-2 4,0 7,1 9,3 3,2 4,5 4,9l-5 0c0,-2 -1,-4 -2,-5 -2,-2 -4,-2 -6,-2 -2,0 -4,1 -6,3 -2,2 -2,4 -2,8l0 1c0,4 0,7 2,9 2,2 4,3 6,3z"/>
  <path id="9" class="fil1" d="M2215 707l-5 0 0 -31 5 0 0 31zm-6 -40c0,-1 1,-1 1,-2 1,-1 1,-1 2,-1 2,0 2,0 3,1 0,1 1,1 1,2 0,1 -1,2 -1,2 -1,1 -1,1 -3,1 -1,0 -1,0 -2,-1 0,0 -1,-1 -1,-2z"/>
  <path id="10" class="fil1" d="M2243 707c0,0 0,-1 0,-3 -3,3 -6,4 -9,4 -4,0 -6,-1 -8,-3 -2,-1 -3,-4 -3,-6 0,-4 1,-6 4,-8 2,-2 6,-3 10,-3l6 0 0 -2c0,-2 -1,-4 -2,-5 -1,-1 -3,-2 -5,-2 -2,0 -4,1 -5,2 -1,1 -2,2 -2,4l-5 0c0,-2 0,-4 1,-5 1,-2 3,-3 5,-4 2,0 4,-1 6,-1 4,0 7,1 9,3 2,2 3,4 3,7l0 15c0,3 0,5 1,7l0 0 -6 0zm-9 -4c2,0 4,0 5,-1 2,-1 3,-2 4,-3l0 -7 -5 0c-6,0 -10,2 -10,6 0,2 1,3 2,4 1,1 3,1 4,1z"/>
  <path id="11" class="fil1" d="M2269 691c0,-5 1,-8 3,-11 2,-3 5,-5 9,-5 4,0 7,1 9,4l0 -17 5 0 0 45 -5 0 0 -3c-2,3 -5,4 -9,4 -4,0 -7,-1 -9,-4 -2,-3 -3,-7 -3,-12l0 -1zm5 1c0,4 1,6 2,8 2,2 4,3 6,3 4,0 6,-1 8,-4l0 -15c-2,-3 -4,-4 -7,-4 -3,0 -5,1 -7,3 -1,2 -2,5 -2,9z"/>
  <path id="12" class="fil1" d="M2302 691c0,-3 1,-6 2,-8 1,-3 3,-5 5,-6 3,-1 5,-2 8,-2 4,0 8,2 10,5 3,3 4,7 4,12l0 0c0,3 0,6 -1,8 -2,3 -3,5 -6,6 -2,1 -4,2 -7,2 -4,0 -8,-1 -11,-4 -2,-3 -4,-7 -4,-12l0 -1zm6 1c0,3 1,6 2,8 2,3 4,4 7,4 3,0 5,-1 6,-4 2,-2 3,-5 3,-9 0,-3 -1,-6 -3,-8 -1,-2 -3,-3 -6,-3 -3,0 -5,1 -7,3 -1,2 -2,5 -2,9z"/>
  <path id="13" class="fil1" d="M2371 704c-2,3 -5,4 -9,4 -3,0 -6,-1 -8,-3 -2,-2 -3,-5 -3,-9l0 -20 6 0 0 20c0,5 2,7 6,7 4,0 7,-1 8,-4l0 -23 5 0 0 31 -5 0 0 -3z"/>
  <path id="14" class="fil1" d="M2403 699c0,-1 0,-3 -1,-3 -1,-1 -3,-2 -6,-2 -3,-1 -5,-2 -7,-3 -1,0 -3,-1 -3,-3 -1,-1 -1,-2 -1,-4 0,-2 1,-4 3,-6 2,-2 5,-3 8,-3 4,0 7,1 9,3 2,2 3,4 3,7l-5 0c0,-1 -1,-3 -2,-4 -1,-1 -3,-1 -5,-1 -2,0 -3,0 -4,1 -1,1 -2,2 -2,3 0,2 0,3 2,3 1,1 2,1 5,2 3,1 5,1 7,2 1,1 3,2 3,3 1,2 2,3 2,5 0,2 -1,5 -4,6 -2,2 -5,3 -9,3 -2,0 -4,0 -6,-1 -2,-1 -4,-2 -5,-4 -1,-2 -2,-3 -2,-5l6 0c0,2 1,3 2,4 1,1 3,2 5,2 3,0 4,-1 5,-2 2,0 2,-2 2,-3z"/>
  <path id="15" class="fil1" d="M2435 704c-2,3 -5,4 -9,4 -3,0 -6,-1 -8,-3 -1,-2 -2,-5 -2,-9l0 -20 5 0 0 20c0,5 2,7 6,7 4,0 7,-1 8,-4l0 -23 6 0 0 31 -5 0 -1 -3z"/>
  <path id="16" class="fil1" d="M2469 707c-1,0 -1,-1 -1,-3 -3,3 -6,4 -9,4 -3,0 -6,-1 -8,-3 -2,-1 -3,-4 -3,-6 0,-4 1,-6 4,-8 2,-2 6,-3 10,-3l6 0 0 -2c0,-2 -1,-4 -2,-5 -1,-1 -3,-2 -5,-2 -2,0 -4,1 -5,2 -1,1 -2,2 -2,4l-5 0c0,-2 0,-4 1,-5 2,-2 3,-3 5,-4 2,0 4,-1 6,-1 4,0 7,1 9,3 2,2 3,4 3,7l0 15c0,3 1,5 1,7l0 0 -5 0zm-9 -4c1,0 3,0 4,-1 2,-1 3,-2 4,-3l0 -7 -5 0c-6,0 -10,2 -10,6 0,2 1,3 2,4 1,1 3,1 5,1zm5 -41l6 0 -8 9 -4 0 6 -9z"/>
  <path id="17" class="fil1" d="M2497 681c-1,-1 -2,-1 -3,-1 -3,0 -6,2 -7,5l0 22 -5 0 0 -31 5 0 0 3c2,-2 4,-4 8,-4 1,0 1,0 2,1l0 5z"/>
  <path id="18" class="fil1" d="M2508 707l-5 0 0 -31 5 0 0 31zm-6 -40c0,-1 0,-1 1,-2 0,-1 1,-1 2,-1 1,0 2,0 3,1 0,1 0,1 0,2 0,1 0,2 0,2 -1,1 -2,1 -3,1 -1,0 -2,0 -2,-1 -1,0 -1,-1 -1,-2z"/>
  <path id="19" class="fil1" d="M2515 691c0,-3 1,-6 2,-8 1,-3 3,-5 5,-6 2,-1 5,-2 8,-2 4,0 7,2 10,5 3,3 4,7 4,12l0 0c0,3 0,6 -2,8 -1,3 -3,5 -5,6 -2,1 -4,2 -7,2 -5,0 -8,-1 -11,-4 -2,-3 -4,-7 -4,-12l0 -1zm6 1c0,3 0,6 2,8 2,3 4,4 7,4 2,0 5,-1 6,-4 2,-2 3,-5 3,-9 0,-3 -1,-6 -3,-8 -1,-2 -4,-3 -6,-3 -3,0 -5,1 -7,3 -2,2 -2,5 -2,9z"/>
  <line class="fil2 str0" x1="1575" y1="621" x2="3027" y2= "621" />
  <polygon class="fil1" points="1969,991 1983,1026 1997,991 2004,991 2004,1034 1998,1034 1998,1017 1999,999 1985,1034 1980,1034 1966,999 1967,1017 1967,1034 1961,1034 1961,991 "/>
  <path id="1" class="fil1" d="M2048 1014c0,4 0,8 -2,11 -1,3 -3,5 -6,7 -2,2 -5,2 -9,2 -3,0 -6,0 -9,-2 -2,-2 -4,-4 -6,-7 -1,-3 -2,-7 -2,-11l0 -3c0,-4 1,-8 2,-11 1,-3 3,-5 6,-7 3,-2 6,-3 9,-3 4,0 7,1 9,3 3,2 5,4 6,7 2,3 2,7 2,11l0 3zm-5 -3c0,-5 -1,-9 -3,-12 -2,-2 -5,-4 -9,-4 -3,0 -6,2 -8,4 -2,3 -3,7 -3,12l0 3c0,5 1,9 3,11 2,3 5,5 8,5 4,0 7,-2 9,-4 2,-3 3,-7 3,-12l0 -3z"/>
  <path id="2" class="fil1" d="M2058 1034l0 -43 12 0c4,0 7,1 10,2 3,2 5,4 7,7 1,4 2,7 2,11l0 3c0,4 -1,7 -2,10 -2,3 -4,6 -7,7 -3,2 -6,3 -10,3l-12 0zm6 -38l0 33 6 0c4,0 8,-1 10,-4 2,-3 4,-6 4,-11l0 -3c0,-5 -2,-9 -4,-11 -2,-3 -5,-4 -10,-4l-6 0z"/>
  <polygon id="3" class="fil1" points="2123,1014 2105,1014 2105,1029 2126,1029 2126,1034 2099,1034 2099,991 2126,991 2126,996 2105,996 2105,1009 2123,1009 "/>
  <polygon id="4" class="fil1" points="2141,1029 2161,1029 2161,1034 2135,1034 2135,991 2141,991 "/>
  <path id="5" class="fil1" d="M2193 1023l-18 0 -4 11 -6 0 16 -43 5 0 17 43 -6 0 -4 -11zm-16 -5l14 0 -7 -20 -7 20z"/>
  <path id="6" class="fil1" d="M2226 1016l-10 0 0 18 -6 0 0 -43 14 0c5,0 9,1 11,3 3,2 4,6 4,10 0,3 -1,5 -2,7 -1,2 -3,3 -6,4l10 18 0 1 -6 0 -9 -18zm-10 -4l8 0c3,0 5,-1 7,-2 2,-2 3,-4 3,-6 0,-3 -1,-5 -3,-6 -1,-2 -4,-2 -7,-2l-8 0 0 16z"/>
  <polygon id="7" class="fil1" points="2294,1014 2275,1014 2275,1029 2297,1029 2297,1034 2269,1034 2269,991 2296,991 2296,996 2275,996 2275,1009 2294,1009 "/>
  <polygon id="8" class="fil1" points="2350,1014 2332,1014 2332,1029 2353,1029 2353,1034 2326,1034 2326,991 2353,991 2353,996 2332,996 2332,1009 2350,1009 "/>
  <path id="9" class="fil1" d="M2374 1015c-5,-2 -8,-3 -10,-5 -3,-2 -4,-5 -4,-8 0,-3 2,-6 4,-8 3,-3 7,-4 11,-4 3,0 5,1 8,2 2,1 4,3 5,5 1,2 2,4 2,6l-6 0c0,-2 -1,-4 -2,-6 -2,-1 -4,-2 -7,-2 -3,0 -5,1 -7,2 -1,1 -2,3 -2,5 0,2 1,3 2,4 2,2 4,3 8,4 3,1 6,2 8,3 2,1 4,3 5,4 1,2 1,4 1,6 0,3 -1,6 -4,8 -3,2 -6,3 -11,3 -3,0 -6,0 -8,-1 -3,-1 -5,-3 -6,-5 -1,-2 -2,-4 -2,-7l6 0c0,3 1,5 3,6 1,2 4,3 7,3 3,0 5,-1 7,-2 2,-1 2,-3 2,-5 0,-2 0,-4 -2,-5 -1,-1 -4,-2 -8,-3z"/>
  <polygon id="10" class="fil1" points="2428,996 2415,996 2415,1034 2409,1034 2409,996 2395,996 2395,991 2428,991 "/>
  <path id="11" class="fil1" d="M2452 1016l-10 0 0 18 -6 0 0 -43 14 0c5,0 9,1 11,3 3,2 4,6 4,10 0,3 0,5 -2,7 -1,2 -3,3 -6,4l10 18 0 1 -6 0 -9 -18zm-10 -4l8 0c3,0 6,-1 7,-2 2,-2 3,-4 3,-6 0,-3 -1,-5 -3,-6 -1,-2 -4,-2 -7,-2l-8 0 0 16z"/>
  <path id="12" class="fil1" d="M2505 991l0 29c0,4 -1,7 -4,10 -3,3 -6,4 -10,4l-2 0c-4,0 -8,-1 -11,-3 -3,-3 -4,-6 -4,-11l0 -29 5 0 0 29c0,3 1,5 3,7 2,2 4,3 7,3 3,0 6,-1 8,-3 1,-2 2,-4 2,-7l0 -29 6 0z"/>
  <polygon id="13" class="fil1" points="2545,996 2531,996 2531,1034 2525,1034 2525,996 2512,996 2512,991 2545,991 "/>
  <path id="14" class="fil1" d="M2583 991l0 29c0,4 -2,7 -4,10 -3,3 -6,4 -10,4l-2 0c-5,0 -8,-1 -11,-3 -3,-3 -4,-6 -4,-11l0 -29 5 0 0 29c0,3 1,5 3,7 2,2 4,3 7,3 3,0 6,-1 7,-3 2,-2 3,-4 3,-7l0 -29 6 0z"/>
  <path id="15" class="fil1" d="M2609 1016l-10 0 0 18 -6 0 0 -43 14 0c5,0 9,1 11,3 3,2 4,6 4,10 0,3 0,5 -2,7 -1,2 -3,3 -6,4l10 18 0 1 -6 0 -9 -18zm-10 -4l8 0c3,0 5,-1 7,-2 2,-2 3,-4 3,-6 0,-3 -1,-5 -3,-6 -1,-2 -4,-2 -7,-2l-8 0 0 16z"/>
  <path id="16" class="fil1" d="M2655 1023l-18 0 -4 11 -6 0 17 -43 5 0 16 43 -6 0 -4 -11zm-16 -5l15 0 -8 -20 -7 20z"/>
  <path id="17" class="fil1" d="M2688 1016l-10 0 0 18 -6 0 0 -43 14 0c5,0 9,1 12,3 2,2 4,6 4,10 0,3 -1,5 -3,7 -1,2 -3,3 -6,4l10 18 0 1 -6 0 -9 -18zm-10 -4l9 0c2,0 5,-1 6,-2 2,-2 3,-4 3,-6 0,-3 -1,-5 -3,-6 -1,-2 -3,-2 -6,-2l-9 0 0 16z"/>
  <path id="18" class="fil1" d="M2765 1014c0,4 -1,8 -2,11 -2,3 -4,5 -6,7 -3,2 -6,2 -10,2 -3,0 -6,0 -8,-2 -3,-2 -5,-4 -7,-7 -1,-3 -2,-7 -2,-11l0 -3c0,-4 1,-8 2,-11 2,-3 4,-5 6,-7 3,-2 6,-3 9,-3 4,0 7,1 9,3 3,2 5,4 7,7 1,3 2,7 2,11l0 3zm-6 -3c0,-5 -1,-9 -3,-12 -2,-2 -5,-4 -9,-4 -3,0 -6,2 -8,4 -2,3 -3,7 -3,12l0 3c0,5 1,9 3,11 2,3 5,5 8,5 4,0 7,-2 9,-4 2,-3 3,-7 3,-12l0 -3z"/>
  <path id="19" class="fil1" d="M2787 1015c-5,-2 -8,-3 -10,-5 -3,-2 -4,-5 -4,-8 0,-3 2,-6 4,-8 3,-3 7,-4 11,-4 3,0 5,1 8,2 2,1 4,3 5,5 1,2 2,4 2,6l-6 0c0,-2 -1,-4 -2,-6 -2,-1 -4,-2 -7,-2 -3,0 -5,1 -7,2 -1,1 -2,3 -2,5 0,2 1,3 2,4 2,2 4,3 8,4 3,1 6,2 8,3 2,1 4,3 5,4 1,2 1,4 1,6 0,3 -1,6 -4,8 -3,2 -6,3 -11,3 -3,0 -6,0 -8,-1 -3,-1 -5,-3 -6,-5 -1,-2 -2,-4 -2,-7l6 0c0,3 1,5 3,6 1,2 4,3 7,3 3,0 5,-1 7,-2 2,-1 2,-3 2,-5 0,-2 0,-4 -2,-5 -1,-1 -4,-2 -8,-3z"/>
  <path id="20" class="fil1" d="M2833 1034l0 -43 12 0c3,0 7,1 10,2 2,2 5,4 6,7 2,4 3,7 3,11l0 3c0,4 -1,7 -3,10 -1,3 -4,6 -6,7 -3,2 -7,3 -11,3l-11 0zm5 -38l0 33 6 0c5,0 8,-1 10,-4 3,-3 4,-6 4,-11l0 -3c0,-5 -1,-9 -3,-11 -3,-3 -6,-4 -10,-4l-7 0z"/>
  <path id="21" class="fil1" d="M2897 1023l-18 0 -4 11 -6 0 16 -43 5 0 16 43 -5 0 -4 -11zm-17 -5l15 0 -7 -20 -8 20z"/>
  <path id="22" class="fil1" d="M2914 1034l0 -43 12 0c3,0 7,1 10,2 2,2 5,4 6,7 2,4 3,7 3,11l0 3c0,4 -1,7 -3,10 -1,3 -4,6 -6,7 -3,2 -7,3 -10,3l-12 0zm5 -38l0 33 6 0c5,0 8,-1 10,-4 3,-3 4,-6 4,-11l0 -3c0,-5 -1,-9 -3,-11 -3,-3 -6,-4 -10,-4l-7 0z"/>
  <path id="23" class="fil1" d="M2988 1014c0,4 -1,8 -3,11 -1,3 -3,5 -6,7 -2,2 -5,2 -9,2 -3,0 -6,0 -9,-2 -2,-2 -4,-4 -6,-7 -1,-3 -2,-7 -2,-11l0 -3c0,-4 1,-8 2,-11 2,-3 4,-5 6,-7 3,-2 6,-3 9,-3 4,0 7,1 9,3 3,2 5,4 6,7 2,3 3,7 3,11l0 3zm-6 -3c0,-5 -1,-9 -3,-12 -2,-2 -5,-4 -9,-4 -3,0 -6,2 -8,4 -2,3 -3,7 -3,12l0 3c0,5 1,9 3,11 2,3 5,5 8,5 4,0 7,-2 9,-4 2,-3 3,-7 3,-12l0 -3z"/>
  <path id="24" class="fil1" d="M3010 1015c-5,-2 -8,-3 -10,-5 -3,-2 -4,-5 -4,-8 0,-3 2,-6 4,-8 3,-3 6,-4 11,-4 3,0 5,1 8,2 2,1 4,3 5,5 1,2 2,4 2,6l-6 0c0,-2 -1,-4 -2,-6 -2,-1 -4,-2 -7,-2 -3,0 -5,1 -7,2 -1,1 -2,3 -2,5 0,2 1,3 2,4 2,2 4,3 8,4 3,1 6,2 8,3 2,1 3,3 4,4 1,2 2,4 2,6 0,3 -1,6 -4,8 -3,2 -6,3 -11,3 -3,0 -6,0 -8,-1 -3,-1 -5,-3 -6,-5 -1,-2 -2,-4 -2,-7l6 0c0,3 0,5 2,6 2,2 5,3 8,3 3,0 5,-1 7,-2 1,-1 2,-3 2,-5 0,-2 0,-4 -2,-5 -1,-1 -4,-2 -8,-3z"/>
  <path class="fil1" d="M1961 1165l0 -43 12 0c4,0 7,1 10,2 3,2 5,4 7,7 2,3 2,7 2,11l0 2c0,4 0,8 -2,11 -2,3 -4,5 -7,7 -3,2 -6,2 -10,3l-12 0zm6 -39l0 34 6 0c4,0 8,-1 10,-4 3,-3 4,-7 4,-12l0 -2c0,-5 -1,-9 -4,-12 -2,-2 -5,-4 -9,-4l-7 0z"/>
  <path id="1" class="fil1" d="M2020 1165c-1,-1 -1,-2 -1,-4 -3,3 -6,4 -9,4 -3,0 -6,-1 -8,-3 -2,-1 -3,-4 -3,-6 0,-4 1,-6 4,-8 2,-2 6,-3 10,-3l6 0 0 -2c0,-2 -1,-4 -2,-5 -1,-1 -3,-1 -5,-1 -2,0 -4,0 -5,1 -1,1 -2,2 -2,4l-5 0c0,-2 0,-4 1,-5 2,-2 3,-3 5,-4 2,0 4,-1 6,-1 4,0 7,1 9,3 2,2 3,4 3,7l0 15c0,3 1,5 1,7l0 1 -5 0zm-9 -5c1,0 3,0 4,-1 2,-1 3,-2 4,-3l0 -7 -4 0c-7,0 -10,2 -10,6 0,2 0,3 1,4 1,1 3,1 5,1z"/>
  <path id="2" class="fil1" d="M2040 1125l0 8 6 0 0 4 -6 0 0 20c0,1 0,2 1,3 0,0 1,0 3,0 0,0 1,0 2,0l0 5c-1,0 -3,0 -4,0 -2,0 -4,-1 -5,-2 -2,-2 -2,-4 -2,-6l0 -20 -6 0 0 -4 6 0 0 -8 5 0z"/>
  <path id="3" class="fil1" d="M2072 1165c0,-1 -1,-2 -1,-4 -2,3 -5,4 -9,4 -3,0 -6,-1 -8,-3 -2,-1 -3,-4 -3,-6 0,-4 2,-6 4,-8 3,-2 6,-3 11,-3l5 0 0 -2c0,-2 0,-4 -2,-5 -1,-1 -2,-1 -5,-1 -2,0 -3,0 -4,1 -2,1 -2,2 -2,4l-6 0c0,-2 1,-4 2,-5 1,-2 2,-3 4,-4 2,0 4,-1 7,-1 3,0 6,1 8,3 2,2 3,4 4,7l0 15c0,3 0,5 1,7l0 1 -6 0zm-9 -5c2,0 3,0 5,-1 1,-1 2,-2 3,-3l0 -7 -4 0c-7,0 -10,2 -10,6 0,2 0,3 2,4 1,1 2,1 4,1z"/>
  <polygon id="4" class="fil1" points="2105,1160 2125,1160 2125,1165 2099,1165 2099,1122 2105,1122 "/>
  <path id="5" class="fil1" d="M2150 1165c0,-1 0,-2 0,-4 -3,3 -6,4 -9,4 -3,0 -6,-1 -8,-3 -2,-1 -3,-4 -3,-6 0,-4 1,-6 4,-8 2,-2 6,-3 10,-3l6 0 0 -2c0,-2 -1,-4 -2,-5 -1,-1 -3,-1 -5,-1 -2,0 -4,0 -5,1 -1,1 -2,2 -2,4l-5 0c0,-2 0,-4 1,-5 1,-2 3,-3 5,-4 2,0 4,-1 6,-1 4,0 7,1 9,3 2,2 3,4 3,7l0 15c0,3 0,5 1,7l0 1 -6 0zm-9 -5c2,0 4,0 5,-1 2,-1 3,-2 4,-3l0 -7 -5 0c-6,0 -10,2 -10,6 0,2 1,3 2,4 1,1 3,1 4,1z"/>
  <path id="6" class="fil1" d="M2174 1157l7 -24 6 0 -13 36c-2,6 -5,8 -9,8l-1 0 -3 0 0 -5 2 1c2,0 3,-1 4,-2 1,0 2,-2 3,-4l1 -3 -11 -31 6 0 8 24z"/>
  <path id="7" class="fil1" d="M2204 1165c-4,0 -7,-1 -10,-4 -3,-3 -4,-7 -4,-11l0 -1c0,-4 0,-6 2,-9 1,-2 3,-4 5,-6 2,-1 4,-2 7,-2 4,0 7,2 9,4 3,3 4,7 4,12l0 2 -22 0c0,3 1,6 3,8 2,2 4,3 7,3 2,0 3,-1 5,-1 1,-1 2,-2 3,-4l3 3c-2,4 -6,6 -12,6zm0 -28c-2,0 -4,0 -6,2 -1,2 -2,4 -3,7l16 0 0 -1c0,-2 -1,-5 -2,-6 -1,-2 -3,-2 -5,-2z"/>
  <path id="8" class="fil1" d="M2238 1138c0,-1 -1,-1 -2,-1 -4,0 -6,2 -7,5l0 23 -6 0 0 -32 5 0 0 3c2,-2 5,-4 8,-4 1,0 2,0 2,1l0 5z"/>
  <line class="fil2 str0" x1="1524" y1="1078" x2="3039" y2= "1078" />
  <polygon class="fil1" points="1969,1504 1983,1538 1997,1504 2004,1504 2004,1546 1998,1546 1998,1530 1999,1512 1985,1546 1980,1546 1966,1512 1967,1530 1967,1546 1961,1546 1961,1504 "/>
  <path id="1" class="fil1" d="M2040 1535l-18 0 -4 11 -6 0 16 -42 5 0 16 42 -5 0 -4 -11zm-17 -4l15 0 -7 -20 -8 20z"/>
  <path id="2" class="fil1" d="M2062 1530l0 16 -5 0 0 -42 15 0c5,0 9,1 11,3 3,3 4,6 4,10 0,4 -1,7 -3,9 -3,2 -7,4 -12,4l-10 0zm0 -5l10 0c3,0 6,-1 7,-2 2,-2 3,-4 3,-6 0,-3 -1,-5 -3,-6 -1,-2 -3,-3 -6,-3l-11 0 0 17z"/>
  <polygon id="3" class="fil1" points="2120,1527 2102,1527 2102,1542 2123,1542 2123,1546 2096,1546 2096,1504 2123,1504 2123,1508 2102,1508 2102,1522 2120,1522 "/>
  <path id="4" class="fil1" d="M2155 1535l-18 0 -4 11 -5 0 16 -42 5 0 16 42 -6 0 -4 -11zm-16 -4l15 0 -8 -20 -7 20z"/>
  <path id="5" class="fil1" d="M2188 1529l-10 0 0 17 -6 0 0 -42 15 0c4,0 8,1 11,3 2,2 4,5 4,9 0,3 -1,5 -2,7 -2,2 -4,4 -6,5l10 18 0 0 -7 0 -9 -17zm-10 -5l9 0c3,0 5,0 7,-2 1,-1 2,-3 2,-6 0,-2 -1,-4 -2,-6 -2,-1 -4,-2 -7,-2l-9 0 0 16z"/>
  <path id="6" class="fil1" d="M2265 1526c0,5 -1,8 -2,11 -2,3 -4,6 -6,7 -3,2 -6,3 -9,3 -4,0 -7,-1 -9,-3 -3,-1 -5,-4 -6,-7 -2,-3 -3,-6 -3,-10l0 -3c0,-4 1,-8 3,-11 1,-3 3,-6 6,-8 2,-1 5,-2 9,-2 3,0 6,1 9,2 2,2 4,5 6,8 1,3 2,6 2,11l0 2zm-6 -2c0,-5 -1,-9 -3,-12 -2,-3 -5,-4 -8,-4 -4,0 -7,1 -9,4 -2,3 -3,6 -3,11l0 3c0,5 1,9 3,12 2,3 5,4 9,4 3,0 6,-1 8,-4 2,-3 3,-6 3,-11l0 -3z"/>
  <path id="7" class="fil1" d="M2290 1529l-10 0 0 17 -5 0 0 -42 14 0c5,0 8,1 11,3 3,2 4,5 4,9 0,3 -1,5 -2,7 -2,2 -4,4 -6,5l10 18 0 0 -6 0 -10 -17zm-10 -5l9 0c3,0 5,0 7,-2 1,-1 2,-3 2,-6 0,-2 -1,-4 -2,-6 -2,-1 -4,-2 -7,-2l-9 0 0 16z"/>
  <polygon id="8" class="fil1" points="2319,1546 2314,1546 2314,1504 2319,1504 "/>
  <path id="9" class="fil1" d="M2363 1541c-2,2 -4,3 -6,4 -3,1 -6,2 -9,2 -4,0 -7,-1 -10,-3 -2,-1 -4,-3 -6,-6 -1,-4 -2,-7 -2,-11l0 -4c0,-6 1,-11 4,-15 3,-3 7,-5 13,-5 4,0 8,1 11,3 2,3 4,6 5,10l-6 0c-1,-6 -4,-8 -10,-8 -4,0 -7,1 -9,4 -2,2 -3,6 -3,11l0 4c0,4 2,8 4,11 2,3 5,4 9,4 2,0 4,0 5,0 2,-1 3,-2 4,-3l0 -9 -10 0 0 -5 16 0 0 16z"/>
  <polygon id="10" class="fil1" points="2398,1527 2379,1527 2379,1542 2401,1542 2401,1546 2374,1546 2374,1504 2400,1504 2400,1508 2379,1508 2379,1522 2398,1522 "/>
  <polygon id="11" class="fil1" points="2417,1504 2431,1538 2445,1504 2452,1504 2452,1546 2446,1546 2446,1530 2447,1512 2433,1546 2428,1546 2414,1512 2415,1530 2415,1546 2409,1546 2409,1504 "/>
  <path id="12" class="fil1" d="M2484 1546l0 -42 12 0c4,0 7,0 10,2 3,2 5,4 7,7 1,3 2,7 2,11l0 2c0,4 -1,8 -2,11 -2,3 -4,5 -7,7 -3,1 -6,2 -10,2l-12 0zm6 -38l0 34 6 0c4,0 7,-2 10,-4 2,-3 3,-7 3,-12l0 -2c0,-5 -1,-9 -3,-12 -2,-2 -5,-4 -10,-4l-6 0z"/>
  <polygon id="13" class="fil1" points="2549,1527 2531,1527 2531,1542 2552,1542 2552,1546 2525,1546 2525,1504 2552,1504 2552,1508 2531,1508 2531,1522 2549,1522 "/>
  <path id="14" class="fil1" d="M2582 1546l0 -42 12 0c3,0 7,0 10,2 2,2 5,4 6,7 2,3 3,7 3,11l0 2c0,4 -1,8 -3,11 -1,3 -4,5 -6,7 -3,1 -7,2 -11,2l-11 0zm5 -38l0 34 6 0c5,0 8,-2 10,-4 3,-3 4,-7 4,-12l0 -2c0,-5 -1,-9 -3,-12 -3,-2 -6,-4 -10,-4l-7 0z"/>
  <path id="15" class="fil1" d="M2646 1535l-18 0 -4 11 -6 0 16 -42 5 0 16 42 -5 0 -4 -11zm-17 -4l15 0 -7 -20 -8 20z"/>
  <path id="16" class="fil1" d="M2663 1546l0 -42 12 0c3,0 7,0 10,2 2,2 5,4 6,7 2,3 3,7 3,11l0 2c0,4 -1,8 -3,11 -1,3 -4,5 -6,7 -3,1 -7,2 -10,2l-12 0zm5 -38l0 34 6 0c5,0 8,-2 10,-4 3,-3 4,-7 4,-12l0 -2c0,-5 -1,-9 -3,-12 -3,-2 -6,-4 -10,-4l-7 0z"/>
  <path id="17" class="fil1" d="M2737 1526c0,5 -1,8 -3,11 -1,3 -3,6 -6,7 -2,2 -5,3 -9,3 -3,0 -6,-1 -9,-3 -2,-1 -4,-4 -6,-7 -1,-3 -2,-6 -2,-10l0 -3c0,-4 1,-8 2,-11 2,-3 4,-6 6,-8 3,-1 6,-2 9,-2 4,0 7,1 9,2 3,2 5,5 6,8 2,3 3,6 3,11l0 2zm-6 -2c0,-5 -1,-9 -3,-12 -2,-3 -5,-4 -9,-4 -3,0 -6,1 -8,4 -2,3 -3,6 -3,11l0 3c0,5 1,9 3,12 2,3 5,4 8,4 4,0 7,-1 9,-4 2,-3 3,-6 3,-11l0 -3z"/>
  <path id="18" class="fil1" d="M2759 1527c-5,-1 -8,-3 -11,-5 -2,-2 -3,-4 -3,-7 0,-4 2,-7 4,-9 3,-2 6,-3 11,-3 3,0 5,1 8,2 2,1 4,2 5,4 1,2 2,5 2,7l-6 0c0,-3 -1,-5 -2,-6 -2,-2 -4,-2 -7,-2 -3,0 -5,0 -7,1 -1,2 -2,3 -2,6 0,1 1,3 2,4 2,1 4,2 8,3 3,1 6,2 8,4 2,1 3,2 4,4 1,1 2,3 2,5 0,4 -1,7 -4,9 -3,2 -6,3 -11,3 -3,0 -6,-1 -8,-2 -3,-1 -5,-2 -6,-4 -1,-2 -2,-5 -2,-7l6 0c0,3 0,5 2,6 2,2 5,2 8,2 3,0 5,0 7,-2 1,-1 2,-2 2,-4 0,-3 0,-4 -2,-5 -1,-1 -4,-3 -8,-4z"/>
  <path class="fil1" d="M1989 1665l-18 0 -4 11 -6 0 17 -42 5 0 16 42 -6 0 -4 -11zm-16 -4l14 0 -7 -20 -7 20z"/>
  <path id="1" class="fil1" d="M2031 1661c0,5 -1,9 -4,11 -2,3 -5,5 -9,5 -3,0 -6,-1 -9,-4l0 16 -5 0 0 -44 5 0 0 3c2,-3 5,-4 9,-4 4,0 7,1 9,4 3,3 4,7 4,12l0 1zm-6 -1c0,-3 0,-6 -2,-8 -1,-2 -4,-3 -6,-3 -4,0 -6,1 -8,4l0 15c2,3 4,4 8,4 2,0 5,-1 6,-3 2,-2 2,-5 2,-9z"/>
  <polygon id="2" class="fil1" points="2044,1676 2038,1676 2038,1631 2044,1631 "/>
  <path id="3" class="fil1" d="M2058 1676l-5 0 0 -31 5 0 0 31zm-6 -40c0,-1 1,-2 1,-2 1,-1 1,-1 3,-1 1,0 1,0 2,1 0,0 1,1 1,2 0,1 -1,2 -1,2 -1,1 -1,1 -2,1 -2,0 -2,0 -3,-1 0,0 -1,-1 -1,-2z"/>
  <path id="4" class="fil1" d="M2080 1672c2,0 3,0 5,-1 1,-1 2,-3 2,-5l5 0c0,2 0,4 -2,6 -1,1 -2,2 -4,3 -2,1 -4,2 -6,2 -5,0 -8,-2 -11,-4 -2,-3 -4,-7 -4,-12l0 -1c0,-3 1,-6 2,-8 1,-3 3,-5 5,-6 2,-1 5,-2 8,-2 3,0 6,1 8,3 3,2 4,5 4,8l-5 0c0,-2 -1,-3 -2,-5 -2,-1 -3,-2 -5,-2 -3,0 -5,1 -7,3 -1,2 -2,5 -2,9l0 1c0,4 1,7 2,9 2,1 4,2 7,2z"/>
  <path id="5" class="fil1" d="M2118 1676c0,0 -1,-1 -1,-3 -2,3 -5,4 -9,4 -3,0 -6,-1 -8,-3 -2,-1 -3,-4 -3,-6 0,-4 2,-6 4,-8 3,-2 6,-3 11,-3l5 0 0 -2c0,-2 0,-4 -2,-5 -1,-1 -2,-2 -5,-2 -2,0 -3,1 -4,2 -2,1 -2,2 -2,3l-6 0c0,-1 1,-3 2,-4 1,-2 2,-3 4,-4 2,-1 4,-1 7,-1 3,0 6,1 8,3 2,2 3,4 4,7l0 15c0,3 0,5 1,7l0 0 -6 0zm-9 -4c2,0 3,0 5,-1 1,-1 2,-2 3,-3l0 -7 -4 0c-7,0 -10,2 -10,6 0,2 0,3 2,4 1,1 2,1 4,1z"/>
  <path id="6" class="fil1" d="M2144 1672c2,0 3,0 5,-1 1,-1 2,-3 2,-5l5 0c0,2 0,4 -1,6 -2,1 -3,2 -5,3 -2,1 -4,2 -6,2 -4,0 -8,-2 -10,-4 -3,-3 -4,-7 -4,-12l0 -1c0,-3 0,-6 1,-8 2,-3 3,-5 5,-6 2,-1 5,-2 8,-2 3,0 6,1 9,3 2,2 3,5 3,8l-5 0c0,-2 -1,-3 -2,-5 -1,-1 -3,-2 -5,-2 -3,0 -5,1 -7,3 -1,2 -2,5 -2,9l0 1c0,4 1,7 2,9 2,1 4,2 7,2zm1 5l-1 1c3,1 5,2 5,5 0,2 -1,4 -2,5 -2,1 -4,1 -7,1l0 -3c1,0 3,0 3,-1 1,0 2,-1 2,-2 0,-1 -1,-1 -1,-2 -1,0 -2,0 -4,0l1 -4 4 0z"/>
  <path id="7" class="fil1" d="M2161 1660c0,-3 1,-6 2,-8 1,-3 3,-5 5,-6 2,-1 5,-2 8,-2 4,0 7,1 10,4 3,3 4,7 4,12l0 1c0,3 -1,6 -2,8 -1,3 -3,5 -5,6 -2,1 -5,2 -7,2 -5,0 -8,-2 -11,-5 -3,-3 -4,-7 -4,-11l0 -1zm6 1c0,3 0,6 2,8 2,2 4,3 7,3 2,0 5,-1 6,-3 2,-2 3,-5 3,-9 0,-3 -1,-6 -3,-8 -1,-2 -4,-4 -6,-4 -3,0 -5,1 -7,4 -2,2 -2,5 -2,9zm19 -29c0,2 -1,4 -2,5 -1,2 -3,2 -5,2 0,0 -1,0 -2,0 0,0 -1,-1 -2,-1 -1,-1 -2,-1 -2,-1 0,0 -1,0 -1,0 -1,0 -2,0 -2,0 -1,1 -1,2 -1,3l-4 0c0,-2 1,-4 2,-6 1,-1 3,-2 4,-2 1,0 2,1 2,1 1,0 1,0 2,1 1,0 2,1 3,1 0,0 1,0 1,0 1,0 2,0 2,-1 1,0 1,-1 1,-2l4 0z"/>
  <path id="8" class="fil1" d="M2210 1677c-4,0 -8,-1 -10,-4 -3,-3 -4,-7 -4,-12l0 -1c0,-3 0,-6 1,-8 2,-3 3,-5 5,-6 3,-1 5,-2 7,-2 5,0 8,1 10,4 2,3 3,7 3,12l0 2 -21 0c0,3 1,6 3,8 1,2 4,2 6,2 2,0 4,0 5,-1 2,0 3,-2 4,-3l3 3c-3,4 -7,6 -12,6zm-1 -29c-2,0 -4,1 -5,3 -2,1 -3,4 -3,7l16 0 0 -1c0,-3 -1,-5 -2,-6 -2,-2 -3,-3 -6,-3z"/>
  <path id="9" class="fil1" d="M2247 1668c0,-2 0,-3 -1,-4 -1,0 -3,-1 -6,-2 -3,0 -5,-1 -7,-2 -1,-1 -3,-2 -3,-3 -1,-1 -1,-2 -1,-4 0,-2 1,-5 3,-6 2,-2 5,-3 8,-3 4,0 7,1 9,3 2,2 3,4 3,7l-5 0c0,-2 -1,-3 -2,-4 -1,-1 -3,-2 -5,-2 -2,0 -3,1 -4,2 -1,1 -2,2 -2,3 0,1 1,2 2,3 1,1 2,1 5,2 3,1 5,1 7,2 1,1 3,2 4,3 0,1 1,3 1,5 0,2 -1,5 -4,6 -2,2 -5,3 -9,3 -2,0 -4,-1 -6,-1 -2,-1 -4,-3 -5,-4 -1,-2 -2,-4 -2,-5l6 0c0,1 1,3 2,4 1,1 3,1 5,1 3,0 4,0 5,-1 2,-1 2,-2 2,-3z"/>
  <line class="fil2 str0" x1="1546" y1="1590" x2="3042" y2= "1590" />
  <g id="_2232496629232">
   <g>
    <path class="fil3" d="M970 1303c191,0 381,0 572,1 190,0 381,0 571,0 -150,74 -301,148 -452,222 -151,74 -303,148 -455,223 -192,0 -384,-1 -576,-1 -192,0 -384,0 -576,0 153,-75 307,-149 460,-223 152,-74 304,-148 456,-222z"/>
    <path class="fil0" d="M572 1609c78,0 95,22 40,49 -56,27 -164,49 -241,49 -78,0 -95,-22 -39,-49 55,-27 163,-49 240,-49z"/>
    <path class="fil0" d="M916 1609c77,0 95,22 39,49 -55,28 -163,49 -240,49 -78,0 -95,-22 -40,-49 56,-27 163,-49 241,-49z"/>
    <path class="fil0" d="M1259 1610c77,0 95,22 40,49 -56,27 -163,49 -241,49 -77,0 -95,-22 -39,-49 55,-27 162,-49 240,-49z"/>
    <path class="fil0" d="M833 1482c77,0 95,22 40,49 -56,27 -163,49 -240,49 -78,0 -95,-22 -40,-49 56,-27 163,-49 240,-49z"/>
    <path class="fil0" d="M1176 1483c77,0 94,22 39,48 -55,27 -162,49 -240,49 -77,0 -94,-22 -39,-49 55,-27 162,-48 240,-48z"/>
    <path class="fil0" d="M1518 1483c77,0 95,22 40,49 -55,27 -162,49 -240,48 -77,0 -95,-22 -39,-48 55,-27 162,-49 239,-49z"/>
    <path class="fil0" d="M1093 1356c77,0 94,22 39,49 -55,27 -162,48 -239,48 -77,0 -95,-22 -39,-49 55,-26 162,-48 239,-48z"/>
    <path class="fil0" d="M1434 1356c77,0 95,22 40,49 -55,27 -162,49 -239,49 -77,-1 -95,-22 -39,-49 55,-27 162,-49 238,-49z"/>
    <path class="fil0" d="M1776 1357c77,0 95,22 40,48 -55,27 -162,49 -239,49 -77,0 -94,-22 -39,-49 54,-27 161,-48 238,-48z"/>
    <g id="live-chat.eps">
     <path class="fil3" d="M1512 1527c23,-12 10,-21 -27,-21 -39,0 -88,9 -111,20 -23,12 -10,21 28,21 3,0 6,0 10,-1 8,4 15,6 21,6 0,0 1,0 1,0 2,0 5,-1 7,-1 3,-1 5,-2 5,-3 0,0 2,-3 10,-6 23,-4 44,-9 56,-15zm-94 2c-5,0 -7,-1 -3,-3 4,-2 12,-4 18,-4 6,0 7,2 3,4 -4,2 -12,3 -18,3zm38 1c-6,0 -7,-2 -3,-4 4,-2 12,-4 17,-4 6,0 7,2 3,4 -4,2 -12,4 -17,4z"/>
     <path class="fil3" d="M1356 1543c-3,-2 -4,-5 -2,-7 1,-3 5,-6 11,-9 7,-3 15,-6 24,-9 1,0 2,0 2,0 -23,3 -46,9 -59,15 -12,6 -14,11 -6,15 -5,4 -20,8 -20,8 -1,0 -2,0 -2,1 0,0 1,0 1,0 0,0 0,0 0,0 9,0 28,-3 43,-5 3,0 7,0 10,0 14,0 29,-1 43,-3 -2,0 -4,0 -7,0 -19,0 -33,-2 -38,-6z"/>
    </g>
    <g id="analytics.eps">
     <path class="fil3" d="M1017 1432c-1,1 -4,1 -5,1 -53,0 -105,0 -158,0 -2,0 -2,0 -1,-1 38,-18 76,-37 113,-55 1,-1 4,-1 5,-1 3,0 6,0 9,0 2,0 2,0 1,1 -33,16 -66,32 -98,48 -4,1 -3,3 2,3 46,0 91,0 137,0 2,0 2,0 1,1 -2,1 -4,2 -6,3z"/>
     <path class="fil3" d="M1110 1382c-4,0 -11,1 -16,3 -5,1 -7,3 -6,4 0,0 0,0 0,0 -19,5 -37,11 -56,16 0,0 0,0 0,0 -3,-1 -7,0 -11,0 0,0 0,0 0,0 -3,-2 -6,-4 -9,-7 0,0 0,0 0,0 2,0 4,-1 5,-2 4,-1 4,-3 0,-3 -4,-1 -10,0 -16,1 -6,1 -10,3 -10,5 0,0 0,0 0,0 -15,3 -30,7 -44,10 0,0 0,0 -1,0 -3,-1 -11,0 -18,1 -7,2 -10,5 -8,6 2,1 8,1 16,0 7,-2 12,-4 12,-6 0,0 1,0 1,0 14,-3 29,-6 44,-10 0,0 0,0 0,0 2,1 7,1 12,0 0,0 0,0 0,0 3,2 6,4 9,7 0,0 0,0 0,0 -2,0 -3,1 -5,2 -3,1 -3,3 1,4 4,0 11,-1 17,-2 6,-2 9,-4 8,-5 0,0 0,0 1,0 18,-5 36,-11 55,-16 0,0 0,0 0,0 4,1 9,0 15,-1 5,-1 9,-3 10,-4 1,-2 -1,-3 -6,-3z"/>
    </g>
    <g id="share.eps">
     <path class="fil3" d="M767 1540c-9,0 -20,1 -31,3 -11,-3 -22,-5 -33,-8 4,-1 7,-3 10,-4 2,-1 4,-2 6,-4 22,-2 45,-5 67,-8 2,2 7,4 16,4 18,0 42,-5 55,-11 12,-7 8,-12 -9,-12 -18,0 -42,5 -55,11 -1,1 -2,2 -3,2 -24,3 -48,6 -72,9 -2,-1 -7,-2 -14,-2 -18,0 -42,5 -54,11 -13,6 -9,11 8,11 7,0 15,-1 23,-2 12,3 24,6 36,9 -2,1 -3,1 -4,2 -13,6 -9,11 9,11 17,0 41,-5 54,-11 12,-6 8,-11 -9,-11z"/>
    </g>
    <path id="facebook.eps" class="fil3" d="M1441 1380c-36,0 -73,0 -109,0 -10,0 -23,2 -31,6 -25,13 -51,25 -77,38 -7,3 -5,6 5,6 18,0 36,0 54,0 12,-6 24,-11 36,-17 -6,0 -12,0 -18,0 5,-3 10,-5 16,-8 6,0 12,0 18,0 4,-2 9,-4 13,-6 11,-6 31,-10 46,-10 6,0 12,0 18,0 -5,3 -10,5 -16,8 -3,0 -6,0 -9,0 -5,0 -8,0 -12,2 -4,2 -9,4 -13,6 8,0 15,0 23,0 -9,3 -17,5 -26,8 -4,0 -9,0 -13,0 -12,6 -24,11 -36,17 9,0 18,0 27,0 10,0 24,-3 31,-6 26,-13 52,-25 78,-38 7,-3 5,-6 -5,-6z"/>
    <path id="twitter.eps" class="fil3" d="M936 1640c-8,1 -16,2 -24,2 10,-1 20,-4 29,-6 -10,1 -19,2 -28,2 -1,-2 -7,-3 -17,-3 -19,0 -45,5 -59,12 -2,1 -3,1 -5,2 -27,0 -42,-5 -45,-12 -6,2 -12,4 -17,6 -8,4 -9,8 -5,10 -5,0 -9,-1 -12,-2 0,0 0,0 0,0 -12,6 -10,11 3,12 -3,0 -7,1 -10,1 -2,0 -4,0 -6,-1 -5,5 0,9 15,9 -18,3 -37,5 -53,5 -3,0 -6,0 -8,0 8,3 22,5 42,5 63,0 134,-18 167,-34 1,0 2,-1 3,-1 10,-2 20,-4 30,-7z"/>
    <g id="database_x0020__x0028_1_x0029_.eps">
     <path class="fil3" d="M471 1662c-3,0 -5,0 -7,0 -3,0 -6,0 -8,0 -21,0 -35,-1 -44,-3 -5,0 -8,-1 -10,-2 -6,3 -13,6 -19,9 2,3 23,6 60,6 36,0 69,-3 83,-6 7,-3 13,-6 20,-9 -6,1 -13,2 -20,2 -15,2 -34,3 -55,3z"/>
     <path class="fil3" d="M429 1644c-6,3 -13,6 -19,9 2,3 21,6 52,6 1,0 1,0 1,0 1,0 2,0 3,0 1,0 3,0 4,0 1,0 3,0 4,0 1,0 2,0 3,0 0,0 0,0 1,0 33,0 62,-3 75,-6 7,-3 13,-6 20,-9 -21,3 -54,5 -82,5 -29,0 -55,-2 -62,-5z"/>
     <path class="fil3" d="M586 1637c5,-4 -11,-8 -54,-8 -44,0 -77,4 -89,8 -1,0 -1,1 -2,1 -1,1 -3,1 -4,2 2,3 23,6 60,6 36,0 69,-3 83,-6 2,0 3,-1 5,-2 0,0 0,0 1,-1z"/>
     <path class="fil3" d="M375 1670c-5,3 -11,6 -17,8 0,0 0,1 0,1 -7,5 16,8 54,8 37,0 75,-3 89,-8 0,0 1,0 1,-1 6,-2 11,-5 17,-8 -18,3 -47,5 -83,5 -35,0 -55,-2 -61,-5z"/>
    </g>
    <g id="monthly-calendar.eps">
     <path class="fil3" d="M1195 1508c-4,0 -9,0 -14,0 3,-1 5,-2 7,-4 5,-2 4,-4 -3,-4 -1,0 -1,0 -1,0 -7,0 -16,2 -21,4 -2,2 -5,3 -7,4 -21,0 -42,0 -64,0 2,-1 5,-3 7,-4 5,-2 3,-4 -4,-4 0,0 0,0 0,0 -7,0 -16,2 -21,4 -3,1 -5,3 -7,4 -5,0 -9,0 -14,0 -6,0 -16,1 -21,4 -32,15 -63,31 -95,46 -5,3 -3,5 3,5 48,0 95,0 142,0 7,0 17,-2 22,-5 31,-15 63,-31 95,-46 5,-2 3,-4 -4,-4zm-107 48c-42,0 -84,0 -125,0 24,-12 48,-24 72,-35 42,0 83,0 125,0 -24,11 -48,23 -72,35z"/>
     <path class="fil3" d="M1019 1537c8,0 15,0 22,0 1,0 3,-1 3,-1 6,-3 11,-5 16,-8 1,0 0,0 -1,0 -7,0 -14,0 -21,0 -1,0 -3,0 -4,0 -5,3 -10,5 -15,8 -1,0 -1,1 0,1z"/>
     <path class="fil3" d="M1054 1537c7,0 14,0 22,0 1,0 2,-1 3,-1 5,-3 10,-5 15,-8 1,0 1,0 0,0 -7,0 -15,0 -22,0 -1,0 -2,0 -3,0 -5,3 -10,5 -15,8 -1,0 -1,1 0,1z"/>
     <path class="fil3" d="M1089 1537c7,0 14,0 21,0 1,0 3,-1 4,-1 5,-3 10,-5 15,-8 1,0 1,0 0,0 -8,0 -15,0 -22,0 -1,0 -3,0 -3,0 -6,3 -11,5 -16,8 -1,0 0,1 1,1z"/>
     <path class="fil3" d="M995 1549c7,0 14,0 21,0 1,0 3,-1 3,-1 6,-2 11,-5 16,-7 1,-1 0,-1 -1,-1 -7,0 -14,0 -21,0 -1,0 -3,0 -4,0 -5,3 -10,6 -15,8 -1,0 -1,1 1,1z"/>
     <path class="fil3" d="M1029 1549c7,0 15,0 22,0 1,0 2,-1 3,-1 5,-2 10,-5 16,-8 0,0 0,0 -1,0 -7,0 -14,0 -21,0 -2,0 -3,0 -4,1 -5,2 -10,5 -15,7 -1,0 -1,1 0,1z"/>
     <path class="fil3" d="M1064 1549c7,0 14,0 22,0 1,0 2,-1 3,-1 5,-2 10,-5 15,-7 1,-1 1,-1 0,-1 -7,0 -15,0 -22,0 -1,0 -2,0 -3,1 -5,2 -11,5 -16,7 0,0 0,1 1,1z"/>
    </g>
    <path id="like.eps" class="fil3" d="M1624 1431c-1,0 -2,0 -2,-1 -3,-2 -5,-4 -8,-6 -14,-10 -23,-17 -2,-28 19,-9 53,-16 78,-16 9,0 15,1 19,3 3,2 3,4 2,6 6,-2 16,-4 26,-6 12,-2 22,-3 31,-3 25,0 29,7 10,16 -21,11 -59,18 -117,28 -10,2 -20,4 -32,6 -2,1 -3,1 -5,1z"/>
    <path id="shopping-cart.eps" class="fil3" d="M1177 1673c-22,0 -44,0 -67,0 3,-2 5,-4 8,-6 29,0 58,0 87,0 25,-8 49,-17 73,-26 -42,0 -83,0 -125,0 4,-3 8,-6 12,-9 -11,0 -23,0 -35,0 -2,1 -5,2 -7,3 9,0 18,0 27,0 -16,13 -33,26 -50,38 -9,1 -20,3 -26,6 -7,4 -5,6 5,6 9,0 23,-2 30,-6 2,-1 3,-2 4,-2 14,0 27,0 41,0 -3,0 -5,1 -7,2 -7,4 -5,6 5,7 10,0 23,-3 30,-7 7,-3 5,-6 -5,-6z"/>
   </g>
   <rect class="fil4" x="54" y="1748" width="1152.26" height="32.1961"/>
   <polygon class="fil5" points="1206,1781 2113,1336 2113,1304 1206,1749 "/>
  </g>
  <path class="fil6" d="M821 1193l1 -23 46 1 0 23 -2 112c0,10 -6,18 -13,21l0 0 -357 167 -1 138 0 23 -46 0 0 -23 0 -151c0,-10 5,-19 14,-24l357 -166 1 -98z"/>
  <path class="fil6" d="M1046 1191l0 -23 46 -1 1 23 1 95 326 93c11,3 18,14 17,25l0 97 0 23 -46 0 0 -23 -1 -81 -325 -93 0 0c-10,-3 -17,-12 -17,-23l-2 -112z"/>
  <polygon class="fil6" points="948,1227 948,1203 995,1203 995,1227 995,1397 995,1421 948,1421 948,1397 "/>
  <g id="_2232496574480">
   <g>
    <path class="fil3" d="M831 832c195,0 390,0 585,0 195,0 391,0 586,0 -130,63 -259,127 -389,190 -129,64 -259,127 -388,191 -196,0 -391,0 -586,0 -195,0 -390,0 -585,0 129,-64 259,-127 388,-191 130,-63 259,-127 389,-190z"/>
    <path class="fil0" d="M1138 873c16,-2 32,-4 48,-6 8,-1 15,0 18,1 4,1 3,2 -1,4 -22,11 -44,22 -66,33 -6,3 -20,5 -30,5 -10,0 -14,-2 -8,-5 17,-8 33,-16 49,-24 -4,1 -9,1 -13,2 -12,1 -21,0 -20,-3 1,-3 11,-6 23,-7zm-283 152c12,0 25,0 37,0 21,0 27,5 15,11 -15,7 -30,14 -45,22 -12,6 -38,10 -59,10 -12,0 -25,0 -37,0 -21,0 -27,-4 -15,-10 15,-8 30,-15 44,-22 13,-6 39,-11 60,-11zm172 -98c16,-1 32,-3 48,-5 8,-1 14,-1 18,0 3,1 3,3 -1,5 -22,11 -44,22 -67,32 -6,3 -19,6 -29,6 -11,0 -14,-3 -8,-6 17,-7 33,-15 49,-23 -5,0 -9,1 -13,1 -8,1 -15,1 -18,0 -4,-1 -3,-3 1,-5 5,-2 12,-4 20,-5 0,0 0,0 0,0zm-100 49c16,-1 32,-3 48,-5 8,-1 14,-1 18,0 3,1 3,3 -1,5 -22,11 -44,22 -67,32 -6,3 -19,6 -29,6 -11,0 -14,-3 -8,-6 17,-7 33,-15 49,-23 -5,0 -9,1 -14,1 -7,1 -14,1 -17,0 -4,-1 -3,-3 1,-5 5,-2 12,-4 20,-5 0,0 0,0 0,0zm154 -98c-15,7 -30,14 -45,22 -12,6 -39,10 -59,10 -13,0 -25,0 -37,0 -21,0 -27,-4 -15,-10 14,-8 29,-15 44,-22 13,-6 39,-11 60,-11 12,0 24,0 37,0 20,0 27,5 15,11zm-404 161c0,0 0,0 0,0 -5,1 -9,1 -13,2 -8,1 -15,0 -18,-1 -4,-1 -3,-3 1,-5 5,-2 12,-3 20,-4 16,-2 32,-4 48,-6 8,0 14,0 18,1 3,1 3,2 -1,4 -22,11 -44,22 -67,33 -6,3 -19,5 -29,5 -10,0 -14,-2 -8,-5 16,-8 33,-16 49,-24zm51 -25c-20,0 -27,-5 -15,-11 15,-7 30,-14 45,-22 12,-6 39,-11 59,-11 13,0 25,0 37,0 21,0 28,5 15,11 -14,8 -29,15 -44,22 -12,6 -39,11 -59,11 -13,0 -25,0 -38,0zm138 -49c-13,0 -25,0 -38,0 -20,0 -27,-5 -15,-11 15,-7 30,-15 45,-22 12,-6 39,-11 59,-11 13,0 25,0 38,0 20,0 27,5 14,11 -14,7 -29,15 -44,22 -12,6 -39,11 -59,11zm-338 74c0,0 0,0 0,0 -4,1 -9,1 -13,2 -8,1 -15,0 -18,-1 -3,-1 -3,-3 2,-5 4,-2 11,-3 19,-4 16,-2 32,-4 48,-6 8,0 15,0 18,1 4,1 3,2 -1,4 -22,11 -44,22 -66,33 -6,3 -20,5 -30,5 -10,0 -14,-2 -7,-5 16,-8 32,-16 48,-24zm70 -25c-10,0 -13,-3 -7,-6 16,-7 32,-15 49,-23 -5,0 -10,1 -14,1 -8,1 -14,1 -18,0 -3,-1 -2,-3 2,-5 4,-2 12,-4 19,-5 16,-1 32,-3 49,-5 7,-1 14,-1 17,0 4,1 4,3 0,5 -23,11 -45,22 -67,32 -6,3 -19,6 -30,6zm100 -49c-10,0 -13,-3 -7,-6 16,-7 32,-15 49,-23 -5,0 -9,1 -14,1 -7,1 -14,1 -18,0 -3,-1 -2,-3 2,-5 4,-2 12,-4 19,-5 16,-1 32,-3 49,-5 7,-1 14,-1 18,0 3,1 3,3 -1,5 -23,11 -45,22 -67,32 -6,3 -19,6 -30,6zm93 -55c-20,0 -27,-5 -15,-11 15,-7 30,-14 44,-21 13,-6 39,-11 60,-11 12,0 25,0 37,0 20,0 27,5 15,11 -15,7 -30,14 -45,22 -12,6 -38,10 -59,10 -12,0 -25,0 -37,0zm395 26c0,0 0,0 0,0 -5,0 -9,1 -14,1 -7,1 -14,1 -18,0 -3,-1 -2,-3 2,-5 4,-2 12,-4 20,-5 16,-1 32,-3 48,-5 7,-1 14,-1 18,0 3,1 3,3 -1,5 -22,11 -45,22 -67,32 -6,3 -19,6 -29,6 -11,0 -14,-3 -8,-6 16,-7 32,-15 49,-23zm51 -26c-20,0 -27,-4 -15,-10 15,-8 30,-15 45,-22 12,-6 39,-11 59,-11 13,0 25,0 37,0 21,0 28,5 15,11 -15,7 -29,14 -44,22 -13,6 -39,10 -60,10 -12,0 -24,0 -37,0zm-122 60c12,0 25,0 37,0 20,0 27,5 15,11 -15,8 -30,15 -45,22 -12,6 -38,11 -59,11 -12,0 -25,0 -37,0 -21,0 -27,-5 -15,-11 15,-7 29,-14 44,-22 13,-6 39,-11 60,-11zm-141 69c0,0 0,0 0,0 -4,1 -9,1 -13,2 -8,1 -15,0 -18,-1 -3,-1 -3,-3 2,-5 4,-2 12,-3 19,-4 16,-2 33,-4 49,-6 7,0 14,0 17,1 4,1 3,2 0,4 -23,11 -45,22 -67,33 -6,3 -20,5 -30,5 -10,0 -13,-2 -7,-5 16,-8 32,-16 48,-24zm-79 -107c13,0 25,0 37,0 -14,7 -29,15 -44,22 -13,0 -25,0 -37,0 14,-7 29,-15 44,-22zm111 -54c13,0 25,0 37,0 -14,7 -29,14 -44,22 -12,0 -25,0 -37,0 15,-8 30,-15 44,-22zm-211 103c12,0 25,0 37,0 -15,8 -29,15 -44,22 -13,0 -25,0 -37,0 14,-7 29,-14 44,-22zm38 55c12,0 24,0 37,0 -15,7 -30,14 -45,22 -12,0 -25,0 -37,0 15,-8 30,-15 45,-22zm471 -158c12,0 25,0 37,0 -15,7 -30,14 -44,22 -13,0 -25,0 -38,0 15,-8 30,-15 45,-22zm-446 0c12,0 25,0 37,0 -15,7 -30,14 -45,21 -12,0 -25,0 -37,0 15,-7 30,-14 45,-21zm235 103c12,0 24,0 37,0 -15,8 -30,15 -45,22 -12,0 -25,0 -37,0 15,-7 30,-14 45,-22zm280 -5c16,-1 32,-3 48,-5 8,-1 14,-1 18,0 3,1 3,3 -1,5 -22,11 -44,22 -66,32 -7,3 -20,6 -30,6 -10,0 -14,-3 -8,-6 17,-7 33,-15 49,-23 -4,0 -9,1 -13,1 -12,1 -21,0 -20,-2 1,-3 11,-6 23,-8zm-300 158c13,0 25,0 37,0 21,0 27,5 15,11 -15,7 -29,14 -44,22 -13,6 -39,10 -60,11 -12,0 -24,0 -37,0 -20,-1 -27,-5 -15,-11 15,-8 30,-15 45,-22 12,-6 39,-11 59,-11zm189 -103c16,-2 32,-4 48,-6 8,0 14,0 18,1 3,1 3,2 -1,4 -22,11 -44,22 -67,33 -6,3 -19,5 -29,5 -11,0 -14,-2 -8,-5 16,-8 33,-16 49,-24 -5,1 -9,1 -14,2 -7,1 -14,0 -17,-1 -4,-1 -3,-3 1,-5 5,-2 12,-3 20,-4 0,0 0,0 0,0zm-112 54c16,-1 33,-3 49,-5 7,-1 14,-1 17,0 4,1 4,3 0,5 -23,11 -45,22 -67,32 -6,3 -19,6 -30,6 -10,0 -13,-3 -7,-6 16,-7 32,-15 49,-23 -5,0 -9,1 -14,1 -8,1 -14,1 -18,0 -3,-1 -2,-3 2,-5 4,-2 12,-4 19,-5 0,0 0,0 0,0zm166 -104c-15,8 -30,15 -45,22 -12,6 -39,11 -59,11 -13,0 -25,0 -37,0 -21,0 -28,-5 -15,-11 14,-7 29,-14 44,-22 12,-6 39,-11 59,-11 13,0 25,0 38,0 20,0 27,5 15,11zm-421 167c0,0 0,0 0,0 -4,1 -8,1 -13,2 -8,1 -14,0 -18,-1 -3,-1 -3,-3 2,-4 4,-2 12,-4 19,-5 16,-2 32,-4 49,-5 7,-1 14,-1 17,0 4,1 3,3 -1,4 -22,11 -44,22 -66,33 -6,3 -20,6 -30,6 -10,0 -13,-3 -7,-6 16,-8 32,-16 48,-24zm57 -25c-20,0 -27,-5 -15,-11 15,-7 30,-14 45,-22 12,-6 39,-11 59,-11 12,0 25,0 37,0 21,0 27,5 15,11 -15,8 -30,15 -44,22 -13,6 -39,11 -60,11 -12,0 -25,0 -37,0zm149 -55c-13,0 -25,0 -38,0 -20,0 -27,-4 -15,-10 15,-8 30,-15 45,-22 12,-6 39,-11 59,-11 13,0 25,0 37,0 21,0 28,5 15,11 -14,7 -29,14 -44,22 -12,6 -39,10 -59,10zm-354 80c0,0 0,0 0,0 -5,1 -9,1 -14,2 -7,1 -14,0 -18,-1 -3,-1 -2,-3 2,-4 4,-2 12,-4 20,-5 16,-2 32,-4 48,-5 7,-1 14,-1 18,0 3,1 3,3 -1,4 -22,11 -45,22 -67,33 -6,3 -19,6 -30,6 -10,0 -13,-3 -7,-6 16,-8 32,-16 49,-24zm75 -25c-10,0 -14,-3 -8,-6 17,-7 33,-15 49,-23 -4,0 -9,1 -13,1 -8,1 -15,1 -18,0 -4,-1 -3,-3 1,-5 5,-2 12,-4 20,-5 16,-1 32,-3 48,-5 8,-1 15,-1 18,0 3,1 3,3 -1,5 -22,11 -44,22 -66,32 -7,3 -20,6 -30,6zm598 -84c0,0 0,0 1,0 -5,1 -9,1 -14,2 -7,1 -15,0 -18,-1 -3,-1 -2,-3 2,-5 4,-2 12,-3 19,-4 16,-2 33,-4 49,-6 7,0 14,0 17,1 4,1 4,2 0,4 -22,11 -45,22 -67,33 -6,3 -19,5 -30,5 -10,0 -13,-2 -7,-5 16,-8 32,-16 48,-24zm52 -25c-21,0 -27,-5 -15,-11 15,-7 30,-14 45,-22 12,-6 38,-11 59,-11 12,0 25,0 37,0 21,0 27,5 15,11 -15,8 -30,15 -44,22 -13,6 -39,11 -60,11 -12,0 -25,0 -37,0zm-134 65c13,0 25,0 38,0 20,0 27,5 15,11 -15,7 -30,15 -45,22 -12,6 -39,11 -59,11 -13,0 -25,0 -37,0 -21,0 -28,-5 -15,-11 14,-7 29,-14 44,-22 12,-6 39,-11 59,-11zm-145 69c0,0 0,0 0,0 -5,1 -9,1 -14,2 -7,1 -14,0 -18,-1 -3,-1 -2,-3 2,-4 4,-2 12,-4 20,-5 16,-2 32,-4 48,-6 8,0 14,0 18,1 3,1 3,2 -1,4 -22,11 -45,22 -67,33 -6,3 -19,6 -29,6 -11,0 -14,-3 -8,-6 16,-8 33,-16 49,-24zm-63 -112c12,0 25,0 37,0 -15,7 -29,14 -44,22 -13,0 -25,0 -37,0 14,-8 29,-15 44,-22zm111 -55c13,0 25,0 37,0 -14,8 -29,15 -44,22 -12,0 -25,0 -37,0 15,-7 29,-14 44,-22zm-222 109c12,0 25,0 37,0 -15,8 -30,15 -45,22 -12,0 -24,0 -37,0 15,-7 30,-14 45,-22zm32 55c12,0 25,0 37,0 -15,7 -30,14 -44,22 -13,0 -25,0 -38,0 15,-8 30,-15 45,-22zm488 -164c12,0 24,0 37,0 -15,8 -30,15 -45,22 -12,0 -24,0 -37,0 15,-7 30,-14 45,-22zm-223 109c13,0 25,0 37,0 -15,7 -29,15 -44,22 -12,0 -25,0 -37,0 15,-7 29,-14 44,-22zm196 -169c13,0 25,0 37,0 21,0 28,5 15,11 -14,7 -29,15 -44,22 -12,6 -39,11 -60,11 -12,0 -24,0 -37,0 -20,0 -27,-5 -15,-11 15,-7 30,-15 45,-22 12,-6 39,-11 59,-11zm-953 163c16,-2 32,-4 48,-6 8,-1 14,0 18,1 3,1 3,2 -1,4 -22,11 -44,22 -67,33 -6,3 -19,5 -29,5 -10,0 -14,-2 -8,-5 17,-8 33,-16 49,-24 -5,1 -9,1 -13,2 -8,0 -15,0 -18,-1 -4,-1 -3,-3 1,-5 5,-2 12,-3 20,-4 0,0 0,0 0,0zm1025 -211c16,-2 32,-4 49,-6 7,0 14,0 17,1 4,1 3,2 0,4 -23,11 -45,22 -67,33 -6,3 -20,5 -30,5 -10,0 -14,-2 -7,-5 16,-8 32,-16 48,-24 -4,1 -9,1 -13,2 -8,0 -15,0 -18,-1 -3,-1 -3,-3 2,-5 4,-2 12,-3 19,-4 0,0 0,0 0,0zm-250 63c0,0 0,0 0,0 -4,0 -9,1 -13,1 -8,1 -14,1 -18,0 -3,-1 -3,-3 2,-5 4,-2 12,-4 19,-5 16,-1 33,-3 49,-5 7,-1 14,-1 17,0 4,1 3,3 0,5 -23,11 -45,22 -67,32 -6,3 -20,6 -30,6 -10,0 -13,-3 -7,-6 16,-7 32,-15 48,-23zm52 -26c-21,0 -27,-4 -15,-10 15,-8 30,-15 44,-22 13,-6 39,-11 60,-11 12,0 25,0 37,0 20,0 27,5 15,11 -15,7 -30,14 -45,22 -12,6 -38,10 -59,10 -12,0 -25,0 -37,0zm-988 211c-13,0 -25,0 -38,0 -20,0 -27,-5 -15,-11 15,-7 30,-14 45,-21 12,-6 39,-11 59,-11 13,0 25,0 38,0 20,0 27,5 15,11 -15,7 -30,14 -45,21 -12,6 -39,11 -59,11zm320 -29c0,0 0,0 0,0 -5,1 -9,1 -14,2 -7,0 -14,0 -18,-1 -3,-1 -2,-3 2,-5 5,-2 12,-3 20,-4 16,-2 32,-4 48,-6 7,-1 14,0 18,1 3,1 3,2 -1,4 -22,11 -45,22 -67,33 -6,3 -19,5 -29,5 -11,0 -14,-2 -8,-5 16,-8 33,-16 49,-24zm1054 -225c13,0 25,0 37,0 21,0 28,5 15,11 -15,7 -29,14 -44,22 -13,6 -39,10 -60,10 -12,0 -24,0 -37,0 -20,0 -27,-4 -15,-10 15,-8 30,-15 45,-22 12,-6 39,-11 59,-11zm-140 69c0,0 0,0 0,0 -5,0 -9,1 -13,1 -8,1 -15,1 -18,0 -4,-1 -3,-3 1,-5 5,-2 12,-4 20,-5 16,-1 32,-3 48,-5 8,-1 14,-1 18,0 3,1 3,3 -1,5 -22,11 -44,22 -67,32 -6,3 -19,6 -29,6 -11,0 -14,-3 -8,-6 16,-7 33,-15 49,-23zm-1205 153c12,0 25,0 37,0 -15,7 -29,14 -44,21 -13,0 -25,0 -37,0 15,-7 29,-14 44,-21zm1026 -211c12,0 24,0 37,0 -15,7 -30,14 -45,22 -12,0 -25,0 -37,0 15,-8 30,-15 45,-22zm37 54c12,0 25,0 37,0 -15,7 -29,15 -44,22 -13,0 -25,0 -38,0 15,-7 30,-15 45,-22zm260 -54c12,0 25,0 37,0 -15,7 -30,14 -44,22 -13,0 -25,0 -38,0 15,-8 30,-15 45,-22zm-1157 262c16,-2 32,-4 49,-6 7,0 14,0 17,1 4,1 3,2 -1,4 -22,11 -44,22 -66,33 -6,3 -20,5 -30,5 -10,0 -14,-2 -7,-5 16,-8 32,-16 48,-24 -4,1 -9,1 -13,2 -8,1 -15,0 -18,-1 -3,-1 -3,-3 2,-5 4,-2 11,-3 19,-4 0,0 0,0 0,0zm-161 37c-13,0 -25,0 -37,0 -21,0 -27,-4 -15,-10 14,-8 29,-15 44,-22 13,-6 39,-11 60,-11 12,0 24,0 37,0 20,0 27,5 15,11 -15,7 -30,14 -45,22 -12,6 -39,10 -59,10zm-167 0c-11,0 -14,-2 -8,-5 16,-8 33,-16 49,-24 -5,1 -9,1 -13,2 -8,1 -15,0 -18,-1 -4,-1 -3,-3 1,-5 4,-1 12,-3 20,-4 16,-2 32,-4 48,-6 7,0 14,0 18,1 3,1 3,2 -1,4 -22,11 -45,22 -67,33 -6,3 -19,5 -29,5zm196 -32c13,0 25,0 38,0 -15,7 -30,14 -45,22 -12,0 -25,0 -37,0 15,-8 30,-15 44,-22z"/>
   </g>
   <rect class="fil4" x="54" y="1213" width="1170.87" height="32.1961"/>
   <polygon class="fil5" points="1225,1245 2002,864 2002,832 1225,1213 "/>
  </g>
  <path class="fil7" d="M1058 923c28,13 49,51 49,95 0,4 0,8 -1,12l-141 0c0,-4 0,-8 0,-12 0,-45 21,-83 50,-95 -6,-52 -39,-54 -68,-56l-1 0c-11,-1 -29,6 -48,14 -35,14 -73,29 -107,11 -27,-15 -41,-37 -49,-69 -7,-27 -8,-61 -9,-104l42 -1c1,40 3,72 8,95 5,20 13,33 28,41 16,9 45,-3 71,-13 24,-9 46,-18 67,-17l0 0c48,3 101,7 109,99z"/>
  <g id="_2232496575184">
   <g>
    <path class="fil3" d="M839 375c191,0 383,0 575,0 192,0 384,0 576,0 -131,64 -261,128 -392,192 -131,64 -261,128 -392,192 -192,0 -384,0 -576,0 -192,0 -384,0 -576,0 131,-64 261,-128 392,-192 131,-64 262,-128 393,-192z"/>
    <path class="fil0" d="M668 551c67,0 134,0 201,0 10,0 24,-3 30,-6 15,-7 30,-14 44,-22 7,-3 4,-5 -7,-5 -67,0 -133,0 -200,0 -11,0 -24,2 -31,5 -15,8 -29,15 -44,22 -6,3 -3,6 7,6zm333 0c73,0 147,0 220,0 74,0 148,0 221,0 11,0 25,-3 31,-6 15,-7 30,-14 44,-22 7,-3 3,-5 -7,-5 -74,0 -148,0 -221,0 -74,0 -147,0 -221,0 -10,0 -24,2 -31,5 -14,8 -29,15 -44,22 -6,3 -3,6 8,6zm189 174c-7,3 -21,6 -31,6 -88,0 -176,0 -264,0 -11,0 -14,-3 -7,-6 36,-18 73,-36 110,-54 36,-18 73,-36 110,-54 6,-3 20,-5 30,-5 88,0 176,0 264,0 11,0 14,2 8,5 -37,18 -74,36 -110,54 -37,18 -74,36 -110,54zm-242 -76c-6,3 -20,5 -30,5 -51,0 -101,0 -152,0 -50,0 -100,0 -151,0 -10,0 -13,-2 -7,-5 21,-11 43,-21 64,-32 6,-3 20,-5 31,-5 50,0 100,0 151,0 50,0 100,0 151,0 10,0 14,2 7,5 -21,11 -42,21 -64,32zm-156 76c-6,3 -20,6 -31,6 -50,0 -100,0 -151,0 -50,0 -100,0 -151,0 -10,0 -14,-3 -7,-6 21,-10 42,-21 64,-31 6,-3 20,-6 31,-6 50,0 100,0 151,0 50,0 100,0 151,0 10,0 13,3 7,6 -21,10 -43,21 -64,31zm-278 -76c-6,3 -20,5 -30,5 -38,0 -75,0 -112,0 -10,0 -14,-2 -7,-5 21,-11 42,-21 64,-32 6,-3 20,-5 31,-5 37,0 74,0 111,0 10,0 14,2 7,5 -21,11 -42,21 -64,32zm-156 76c-6,3 -20,6 -31,6 -37,0 -74,0 -111,0 -11,0 -14,-3 -7,-6 21,-10 42,-21 63,-31 7,-3 21,-6 31,-6 37,0 74,0 112,0 10,0 13,3 7,6 -21,10 -43,21 -64,31zm332 -234c10,-5 30,-9 46,-9 153,0 306,0 459,0 153,0 306,0 459,0 16,0 21,4 11,9 -59,29 -118,58 -177,87 -10,4 -30,8 -46,8 -153,0 -306,0 -459,0 -153,0 -306,0 -460,0 -15,0 -20,-4 -11,-8 60,-29 119,-58 178,-87zm161 -79c10,-5 30,-9 46,-9 153,0 306,0 459,0 153,0 306,0 459,0 16,0 21,4 12,9 -30,14 -60,29 -89,43 -10,5 -30,9 -46,9 -153,0 -306,0 -459,0 -153,0 -306,0 -459,0 -16,0 -21,-4 -11,-9 29,-14 59,-29 88,-43zm633 38c-18,0 -36,0 -54,0 11,-5 22,-11 33,-16 18,0 36,0 54,0 -12,5 -23,11 -33,16zm107 0c-18,0 -36,0 -54,0 11,-5 22,-11 33,-16 18,0 36,0 54,0 -11,5 -22,11 -33,16zm108 0c-18,0 -36,0 -54,0 11,-5 22,-11 33,-16 18,0 36,0 54,0 -11,5 -22,11 -33,16z"/>
   </g>
   <rect class="fil4" x="54" y="759" width="1152.26" height="32.1961"/>
   <polygon class="fil5" points="1206,791 1990,407 1990,375 1206,759 "/>
  </g>
  <path class="fil7" d="M956 432c5,-4 0,-8 -11,-8 -11,-1 -24,2 -30,5 -13,10 -14,20 -5,28 10,9 32,16 63,18 32,2 66,-1 93,-8 25,-7 43,-16 49,-27 1,-2 -1,-5 -7,-6 -3,-1 -7,-2 -11,-2 -12,-1 -24,2 -27,6 -4,6 -15,11 -29,14 -15,4 -33,5 -50,4 -17,-1 -29,-4 -35,-9 -6,-4 -6,-10 0,-15zm129 47c-19,5 -39,8 -61,10 -22,2 -44,3 -65,1 -21,-2 -39,-5 -53,-9 -14,-5 -24,-10 -30,-17 -6,-6 -8,-12 -5,-18 2,-6 8,-12 16,-18 6,-4 2,-7 -8,-8 -11,0 -24,2 -30,6 -13,7 -22,15 -27,23 -5,9 -4,18 2,27 6,9 19,17 38,24 19,7 44,12 74,14 30,3 62,2 93,-1 31,-3 61,-8 87,-16 13,-4 25,-8 35,-13 13,-6 24,-12 31,-19 7,-7 11,-13 13,-20 0,-3 -3,-6 -9,-7 -4,-1 -8,-2 -13,-2 -12,-1 -24,2 -26,6 -2,7 -9,13 -19,20 -10,6 -25,12 -43,17z"/>
  <path class="fil7" d="M867 74l0 35c0,8 6,14 13,14l131 1c7,0 13,-6 13,-13l0 -36c0,-7 -6,-13 -13,-14l-130 0c-8,-1 -14,5 -14,13zm107 71l-43 0c-17,0 -33,7 -45,19 -12,11 -19,27 -20,45 0,9 0,87 0,96 0,12 9,22 21,22 8,0 15,-4 19,-10l0 7c0,12 9,22 21,22 8,0 15,-4 19,-10l0 5c0,12 10,21 22,22 8,0 14,-4 18,-11l0 66c0,12 9,22 21,22 12,0 22,-9 22,-21l2 -164 24 31c7,10 21,11 30,4 10,-7 12,-21 4,-30l-68 -89c-4,-6 -9,-12 -16,-16 -9,-6 -20,-9 -31,-10z"/>
 </g>
</svg>
