<?xml version="1.0" encoding="UTF-8"?>
<!DOCTYPE svg PUBLIC "-//W3C//DTD SVG 1.1//EN" "http://www.w3.org/Graphics/SVG/1.1/DTD/svg11.dtd">
<!-- Creator: CorelDRAW X7 -->
<svg xmlns="http://www.w3.org/2000/svg" xml:space="preserve" width="1200px" height="725px" version="1.1" style="shape-rendering:geometricPrecision; text-rendering:geometricPrecision; image-rendering:optimizeQuality; fill-rule:evenodd; clip-rule:evenodd"
viewBox="0 0 1346 812"
 xmlns:xlink="http://www.w3.org/1999/xlink">
 <defs>
  <style type="text/css">
   <![CDATA[
    .str1 {stroke:white;stroke-width:3.77862}
    .str0 {stroke:#B3B3B3;stroke-width:3.77862;stroke-linecap:round;stroke-linejoin:round;stroke-dasharray:7.557234 18.893086}
    .fil2 {fill:none}
    .fil3 {fill:#32145A}
    .fil6 {fill:#4F4F4F}
    .fil1 {fill:#5C2D91}
    .fil0 {fill:white}
    .fil5 {fill:#4F4F4F;fill-rule:nonzero}
    .fil7 {fill:#B4A0FF;fill-rule:nonzero}
    .fil4 {fill:white;fill-rule:nonzero}
   ]]>
  </style>
 </defs>
 <g id="Camada_x0020_1">
  <metadata id="CorelCorpID_0Corel-Layer"/>
  <rect class="fil0" width="1346" height="812"/>
  <path class="fil1" d="M903 750l107 0c0,-186 -151,-337 -337,-337 -186,0 -337,151 -337,337l106 0c3,-126 105,-227 231,-227 126,0 228,101 230,227z"/>
  <path class="fil2 str0" d="M589 781l-288 0c-1,-11 -2,-21 -2,-31 0,-206 168,-374 374,-374 206,0 373,168 373,374 0,10 0,20 -1,31l-292 0"/>
  <path class="fil2 str0" d="M24 750c0,-287 187,-531 446,-616m411 1c256,87 440,329 440,615"/>
  <path class="fil3" d="M533 326l-50 -153c-123,40 -228,118 -302,220l131 94c54,-75 131,-132 221,-161z"/>
  <path class="fil3" d="M813 326l50 -153c-60,-20 -124,-31 -190,-31 -67,0 -131,11 -190,31l50 153c44,-15 91,-23 140,-23 49,0 96,8 140,23z"/>
  <path class="fil3" d="M312 487l-131 -94c-73,100 -116,223 -116,357l161 0c0,-98 32,-189 86,-263z"/>
  <path class="fil3" d="M1034 487l131 -94c73,100 116,223 116,357l-161 0c0,-98 -32,-189 -86,-263z"/>
  <path class="fil3" d="M813 326l50 -153c122,40 227,118 302,220l-131 94c-54,-75 -131,-132 -221,-161z"/>
  <path class="fil3" d="M673 601c82,0 149,66 149,149l-298 0c0,-83 67,-149 149,-149z"/>
  <polygon class="fil4" points="621,466 618,466 618,446 621,446 "/>
  <path id="1" class="fil4" d="M628 451l0 2c1,-1 2,-2 4,-2 3,0 5,2 5,5l0 10 -3 0 0 -10c0,-1 0,-2 0,-2 -1,-1 -2,-1 -3,-1 0,0 -1,0 -2,1 0,0 -1,1 -1,1l0 11 -3 0 0 -15 3 0z"/>
  <path id="2" class="fil4" d="M640 458c0,-2 0,-4 1,-5 2,-1 3,-2 5,-2 1,0 3,1 4,2l0 -2 2 0 0 14c0,2 0,4 -1,5 -2,1 -3,1 -5,1 -1,0 -2,0 -3,0 -1,-1 -2,-1 -2,-2l1 -2c1,2 2,2 4,2 1,0 2,0 3,-1 0,0 1,-1 1,-2l0 -2c-1,1 -3,2 -4,2 -2,0 -3,-1 -5,-2 -1,-1 -1,-3 -1,-6zm2 1c0,1 1,3 1,3 1,1 2,2 3,2 2,0 3,-1 4,-2l0 -7c-1,-1 -2,-2 -4,-2 -1,0 -2,0 -3,1 0,1 -1,3 -1,5z"/>
  <path id="3" class="fil4" d="M662 466c-2,0 -4,-1 -5,-2 -1,-1 -2,-3 -2,-5l0 -1c0,-1 1,-2 1,-3 1,-2 1,-3 2,-3 1,-1 3,-1 4,-1 2,0 3,1 4,2 1,1 2,3 2,5l0 1 -10 0c0,2 0,3 1,4 1,1 2,1 3,1 1,0 2,0 2,-1 1,0 2,0 2,-1l1 1c-1,2 -3,3 -5,3zm0 -13c-1,0 -2,0 -3,1 -1,1 -1,2 -1,3l7 0 0 0c0,-1 0,-2 -1,-3 0,-1 -1,-1 -2,-1z"/>
  <path id="4" class="fil4" d="M679 462c0,-1 0,-1 -1,-2 0,0 -1,0 -2,-1 -2,0 -3,0 -3,-1 -1,0 -2,0 -2,-1 0,-1 -1,-1 -1,-2 0,-1 1,-2 2,-3 1,-1 2,-1 4,-1 1,0 3,0 4,1 1,1 1,2 1,3l-2 0c0,0 0,-1 -1,-1 -1,-1 -1,-1 -2,-1 -1,0 -2,0 -2,1 -1,0 -1,0 -1,1 0,1 0,1 1,1 0,1 1,1 2,1 1,1 2,1 3,1 1,1 2,1 2,2 0,0 1,1 1,2 0,1 -1,2 -2,3 -1,1 -2,1 -4,1 -1,0 -2,0 -3,-1 -1,0 -2,-1 -2,-1 -1,-1 -1,-2 -1,-3l2 0c0,1 1,2 1,2 1,1 2,1 3,1 1,0 2,0 2,-1 1,0 1,-1 1,-1z"/>
  <path id="5" class="fil4" d="M688 448l0 3 3 0 0 2 -3 0 0 9c0,1 0,1 1,1 0,1 0,1 1,1 0,0 0,0 1,0l0 2c-1,0 -1,0 -2,0 -1,0 -2,0 -2,-1 -1,-1 -1,-2 -1,-3l0 -9 -3 0 0 -2 3 0 0 -3 2 0z"/>
  <path id="6" class="fil4" d="M703 466c0,-1 0,-1 -1,-2 -1,1 -2,2 -4,2 -1,0 -2,0 -3,-1 -1,-1 -2,-2 -2,-3 0,-2 1,-3 2,-4 1,-1 3,-1 5,-1l2 0 0 -1c0,-1 0,-2 0,-2 -1,-1 -2,-1 -3,-1 -1,0 -1,0 -2,1 -1,0 -1,1 -1,1l-2 0c0,-1 0,-1 0,-2 1,-1 2,-1 3,-2 0,0 1,0 2,0 2,0 3,0 4,1 1,1 2,2 2,4l0 6c0,2 0,3 0,4l0 0 -2 0zm-4 -2c0,0 1,0 2,-1 1,0 1,-1 1,-1l0 -3 -2 0c-3,0 -4,1 -4,2 0,1 0,2 1,2 0,1 1,1 2,1zm5 -18c0,0 0,1 0,2 -1,0 -2,1 -2,1 -1,0 -1,0 -1,0 -1,0 -1,-1 -1,-1 -1,0 -1,0 -1,0 -1,0 -1,0 -1,0 0,0 -1,0 -1,0 0,0 0,1 0,1l-2 0c0,-1 0,-2 1,-2 0,-1 1,-1 2,-1 0,0 0,0 1,0 0,0 0,0 1,0 0,1 0,1 1,1 0,0 0,0 0,0 1,0 1,0 1,-1 1,0 1,0 1,-1l1 1z"/>
  <path id="7" class="fil4" d="M708 458c0,-1 0,-2 1,-4 1,-1 1,-2 2,-2 1,-1 2,-1 4,-1 2,0 3,1 5,2 1,1 1,3 1,5l0 1c0,1 0,2 0,3 -1,2 -2,2 -3,3 -1,1 -2,1 -3,1 -2,0 -4,-1 -5,-2 -1,-1 -2,-3 -2,-6l0 0zm3 1c0,1 0,3 1,3 0,1 1,2 3,2 1,0 2,-1 3,-2 0,-1 1,-2 1,-4 0,-1 -1,-3 -1,-4 -1,-1 -2,-1 -3,-1 -2,0 -3,0 -3,1 -1,1 -1,3 -1,5z"/>
  <path id="8" class="fil4" d="M724 470l-1 -1c1,-2 1,-3 1,-4l0 -2 3 0 0 2c0,1 0,2 -1,2 0,1 -1,2 -2,3z"/>
  <path id="9" class="fil4" d="M569 483l0 8 -2 0 0 -20 7 0c2,0 4,0 5,2 1,1 2,2 2,4 0,2 -1,3 -2,4 -1,1 -3,2 -5,2l-5 0zm0 -2l5 0c1,0 2,-1 3,-1 1,-1 1,-2 1,-3 0,-1 0,-2 -1,-3 -1,-1 -2,-1 -3,-1l-5 0 0 8z"/>
  <path id="10" class="fil4" d="M591 478c-1,0 -1,0 -1,0 -2,0 -3,1 -4,2l0 11 -2 0 0 -15 2 0 0 2c1,-2 2,-2 4,-2 0,0 1,0 1,0l0 2z"/>
  <path id="11" class="fil4" d="M599 491c-2,0 -4,-1 -5,-2 -1,-1 -2,-3 -2,-5l0 -1c0,-1 1,-3 1,-4 1,-1 1,-2 2,-2 1,-1 2,-1 4,-1 1,0 3,0 4,2 1,1 2,3 2,5l0 1 -10 0c0,1 0,3 1,3 1,1 2,2 3,2 1,0 2,0 2,-1 1,0 1,-1 2,-1l1 1c-1,2 -3,3 -5,3zm0 -13c-1,0 -2,0 -3,1 -1,1 -1,2 -1,3l7 0 0 0c0,-2 0,-3 -1,-3 -1,-1 -1,-1 -2,-1z"/>
  <path id="12" class="fil4" d="M620 483c0,3 -1,4 -2,6 -1,1 -2,2 -4,2 -2,0 -3,-1 -4,-2l0 7 -3 0 0 -20 3 0 0 2c1,-2 2,-2 4,-2 2,0 3,0 4,2 1,1 2,3 2,5l0 0zm-3 0c0,-2 0,-3 -1,-4 0,-1 -1,-1 -3,-1 -1,0 -2,0 -3,2l0 7c1,1 2,2 3,2 2,0 3,-1 3,-2 1,-1 1,-2 1,-4z"/>
  <path id="13" class="fil4" d="M632 491c0,-1 0,-1 0,-2 -2,1 -3,2 -5,2 -1,0 -2,-1 -3,-1 -1,-1 -1,-2 -1,-4 0,-1 0,-2 1,-3 1,-1 3,-1 5,-1l3 0 0 -1c0,-1 -1,-2 -1,-3 -1,0 -2,0 -3,0 0,0 -1,0 -2,0 0,1 -1,1 -1,2l-2 0c0,-1 0,-1 1,-2 0,-1 1,-1 2,-2 1,0 2,0 3,0 1,0 3,0 4,1 0,1 1,2 1,3l0 7c0,1 0,3 1,3l0 1 -3 0zm-4 -2c1,0 1,-1 2,-1 1,0 1,-1 2,-2l0 -3 -2 0c-3,0 -5,1 -5,3 0,1 0,2 1,2 0,0 1,1 2,1z"/>
  <path id="14" class="fil4" d="M645 478c0,0 -1,0 -1,0 -2,0 -3,1 -4,2l0 11 -2 0 0 -15 2 0 0 2c1,-2 2,-2 4,-2 0,0 1,0 1,0l0 2z"/>
  <path id="15" class="fil4" d="M646 483c0,-1 1,-3 1,-4 1,-1 1,-2 2,-2 1,-1 3,-1 4,-1 2,0 3,0 5,2 1,1 2,3 2,5l0 0c0,2 -1,3 -1,4 -1,1 -2,2 -3,3 -1,0 -2,1 -3,1 -2,0 -4,-1 -5,-2 -1,-2 -2,-3 -2,-6l0 0zm3 0c0,2 0,3 1,4 1,1 2,2 3,2 1,0 2,-1 3,-2 1,-1 1,-2 1,-4 0,-1 0,-3 -1,-4 -1,-1 -2,-1 -3,-1 -1,0 -2,0 -3,1 -1,1 -1,3 -1,4z"/>
  <path id="16" class="fil4" d="M676 491c-2,0 -4,-1 -5,-2 -2,-1 -2,-3 -2,-5l0 -1c0,-1 0,-3 1,-4 0,-1 1,-2 2,-2 1,-1 2,-1 3,-1 2,0 4,0 5,2 1,1 1,3 1,5l0 1 -10 0c0,1 1,3 2,3 0,1 1,2 3,2 1,0 1,0 2,-1 1,0 1,-1 2,-1l1 1c-1,2 -3,3 -5,3zm-1 -13c-1,0 -2,0 -2,1 -1,1 -1,2 -2,3l8 0 0 0c0,-2 -1,-3 -1,-3 -1,-1 -2,-1 -3,-1z"/>
  <path id="17" class="fil4" d="M702 485l-8 0 -2 6 -3 0 8 -20 2 0 8 20 -3 0 -2 -6zm-7 -2l6 0 -3 -9 -3 9z"/>
  <path id="18" class="fil4" d="M711 476l0 2c1,-2 3,-2 5,-2 3,0 4,1 4,5l0 10 -2 0 0 -10c0,-1 0,-2 -1,-2 0,-1 -1,-1 -2,-1 -1,0 -2,0 -2,0 -1,1 -1,1 -2,2l0 11 -2 0 0 -15 2 0z"/>
  <path id="19" class="fil4" d="M733 491c0,-1 0,-1 0,-2 -1,1 -3,2 -4,2 -2,0 -3,-1 -4,-1 -1,-1 -1,-2 -1,-4 0,-1 0,-2 1,-3 2,-1 3,-1 5,-1l3 0 0 -1c0,-1 -1,-2 -1,-3 -1,0 -1,0 -2,0 -1,0 -2,0 -3,0 0,1 -1,1 -1,2l-2 0c0,-1 0,-1 1,-2 0,-1 1,-1 2,-2 1,0 2,0 3,0 1,0 3,0 4,1 1,1 1,2 1,3l0 7c0,1 0,3 1,3l0 1 -3 0zm-4 -2c1,0 1,-1 2,-1 1,0 1,-1 2,-2l0 -3 -2 0c-3,0 -5,1 -5,3 0,1 0,2 1,2 0,0 1,1 2,1zm2 -19l3 0 -3 4 -2 0 2 -4z"/>
  <polygon id="20" class="fil4" points="742,491 739,491 739,470 742,470 "/>
  <path id="21" class="fil4" d="M748 491l-2 0 0 -15 2 0 0 15zm-2 -19c0,0 0,-1 0,-1 0,0 1,0 1,0 1,0 1,0 1,0 1,0 1,1 1,1 0,1 0,1 -1,1 0,0 0,1 -1,1 0,0 -1,-1 -1,-1 0,0 0,0 0,-1z"/>
  <path id="22" class="fil4" d="M761 487c0,-1 0,-2 -1,-2 0,0 -1,-1 -2,-1 -2,0 -3,0 -3,-1 -1,0 -2,-1 -2,-1 0,-1 -1,-1 -1,-2 0,-1 1,-2 2,-3 1,-1 2,-1 4,-1 1,0 3,0 4,1 1,1 1,2 1,3l-2 0c0,0 0,-1 -1,-2 -1,0 -1,0 -2,0 -1,0 -2,0 -2,0 -1,1 -1,1 -1,2 0,0 0,1 1,1 0,1 1,1 2,1 1,0 2,1 3,1 1,0 2,1 2,2 0,0 0,1 0,1 0,2 0,3 -1,4 -1,0 -3,1 -4,1 -1,0 -2,0 -3,-1 -1,0 -2,-1 -2,-2 -1,0 -1,-1 -1,-2l2 0c0,1 1,2 1,2 1,1 2,1 3,1 1,0 2,0 2,-1 1,0 1,-1 1,-1z"/>
  <path id="23" class="fil4" d="M773 491c-2,0 -4,-1 -5,-2 -1,-1 -2,-3 -2,-5l0 -1c0,-1 0,-3 1,-4 0,-1 1,-2 2,-2 1,-1 2,-1 3,-1 2,0 4,0 5,2 1,1 1,3 1,5l0 1 -9 0c0,1 0,3 1,3 1,1 2,2 3,2 1,0 1,0 2,-1 1,0 1,-1 2,-1l1 1c-1,2 -3,3 -5,3zm-1 -13c-1,0 -1,0 -2,1 -1,1 -1,2 -1,3l7 0 0 0c0,-2 0,-3 -1,-3 -1,-1 -2,-1 -3,-1z"/>
  <path class="fil2 str1" d="M1165 393l-131 94m-221 -161l50 -153m-330 153l-50 -153m-171 314l-131 -94"/>
  <path class="fil4" d="M635 725l0 -20 6 0c2,0 3,1 4,1 2,1 3,2 4,4 0,1 1,3 1,4l0 2c0,1 -1,3 -1,4 -1,2 -2,3 -4,4 -1,0 -2,1 -4,1l-6 0zm3 -18l0 16 3 0c2,0 3,-1 4,-2 1,-1 2,-3 2,-5l0 -2c0,-2 0,-4 -2,-5 -1,-1 -2,-2 -4,-2l-3 0z"/>
  <path id="1" class="fil4" d="M662 725c0,0 0,-1 0,-2 -1,2 -3,2 -4,2 -2,0 -3,0 -4,-1 -1,-1 -1,-2 -1,-3 0,-2 0,-3 1,-4 2,-1 3,-1 5,-1l3 0 0 -1c0,-1 -1,-2 -1,-2 -1,-1 -1,-1 -2,-1 -1,0 -2,0 -3,1 0,0 0,1 0,1l-3 0c0,0 0,-1 1,-2 0,0 1,-1 2,-1 1,-1 2,-1 3,-1 1,0 3,0 4,1 1,1 1,2 1,4l0 6c0,2 0,3 1,4l0 0 -3 0zm-4 -2c1,0 1,0 2,-1 1,0 1,-1 2,-1l0 -3 -2 0c-3,0 -5,1 -5,2 0,1 0,2 1,2 0,1 1,1 2,1z"/>
  <path id="2" class="fil4" d="M668 717c0,-2 0,-4 1,-5 1,-1 3,-2 4,-2 2,0 3,1 4,2l0 -8 3 0 0 21 -2 0 -1 -2c-1,2 -2,2 -4,2 -1,0 -3,-1 -4,-2 -1,-1 -1,-3 -1,-5l0 -1zm2 1c0,1 0,3 1,4 1,1 2,1 3,1 1,0 3,-1 3,-2l0 -7c0,-1 -2,-2 -3,-2 -1,0 -2,1 -3,2 -1,0 -1,2 -1,4z"/>
  <path id="3" class="fil4" d="M683 717c0,-1 0,-2 1,-3 0,-2 1,-2 2,-3 1,-1 2,-1 4,-1 2,0 3,1 4,2 2,1 2,3 2,6l0 0c0,1 0,2 -1,4 0,1 -1,2 -2,2 -1,1 -2,1 -3,1 -2,0 -4,-1 -5,-2 -1,-1 -2,-3 -2,-5l0 -1zm2 1c0,1 1,3 2,4 0,1 1,1 3,1 1,0 2,0 3,-1 0,-1 1,-3 1,-5 0,-1 -1,-2 -1,-3 -1,-1 -2,-2 -3,-2 -2,0 -3,1 -3,2 -1,0 -2,2 -2,4z"/>
  <path id="4" class="fil4" d="M708 721c0,-1 0,-1 -1,-2 0,0 -1,0 -3,-1 -1,0 -2,0 -3,-1 0,0 -1,0 -1,-1 -1,0 -1,-1 -1,-2 0,-1 1,-2 2,-3 1,-1 2,-1 4,-1 1,0 3,0 4,1 1,1 1,2 1,4l-2 0c0,-1 -1,-2 -1,-2 -1,-1 -1,-1 -2,-1 -1,0 -2,0 -2,1 -1,0 -1,1 -1,1 0,1 0,1 0,2 1,0 2,0 3,0 1,1 2,1 3,1 1,1 1,1 2,2 0,0 0,1 0,2 0,1 0,2 -1,3 -1,1 -3,1 -4,1 -1,0 -2,0 -3,-1 -1,0 -2,0 -2,-1 -1,-1 -1,-2 -1,-3l2 0c0,1 1,2 1,2 1,1 2,1 3,1 1,0 1,0 2,0 1,-1 1,-1 1,-2z"/>
  <path class="fil4" d="M285 328l0 -20 6 0c1,0 3,1 4,1 2,1 3,2 3,3 1,2 1,3 1,5l0 2c0,1 0,3 -1,4 0,2 -1,3 -3,4 -1,0 -3,1 -4,1l-6 0zm3 -18l0 16 2 0c2,0 4,-1 5,-2 1,-1 2,-3 2,-6l0 -1c0,-2 -1,-4 -2,-5 -1,-1 -2,-2 -4,-2l-3 0z"/>
  <path id="1" class="fil4" d="M312 328c0,-1 0,-1 -1,-2 -1,1 -2,2 -4,2 -1,0 -2,0 -3,-1 -1,-1 -2,-2 -2,-3 0,-2 1,-3 2,-4 1,-1 3,-1 5,-1l2 0 0 -1c0,-1 0,-2 0,-2 -1,-1 -2,-1 -3,-1 -1,0 -1,0 -2,1 0,0 -1,1 -1,1l-2 0c0,-1 0,-1 1,-2 0,-1 1,-1 2,-2 0,0 1,0 3,0 1,0 3,0 3,1 1,1 2,2 2,4l0 6c0,2 0,3 0,4l0 0 -2 0zm-4 -2c0,0 1,0 2,-1 1,0 1,-1 1,-1l0 -3 -1 0c-4,0 -5,1 -5,2 0,1 0,2 1,2 0,1 1,1 2,1z"/>
  <path id="2" class="fil4" d="M326 324c0,-1 0,-1 0,-2 -1,0 -2,0 -3,-1 -1,0 -2,0 -3,-1 -1,0 -1,0 -2,-1 0,0 0,-1 0,-2 0,-1 0,-2 1,-3 1,-1 3,-1 4,-1 2,0 3,0 4,1 1,1 2,2 2,3l-3 0c0,0 0,-1 -1,-1 0,-1 -1,-1 -2,-1 -1,0 -1,0 -2,1 -1,0 -1,0 -1,1 0,1 0,1 1,1 0,1 1,1 3,1 1,1 2,1 3,1 0,1 1,1 1,2 1,0 1,1 1,2 0,1 -1,2 -2,3 -1,1 -2,1 -4,1 -1,0 -2,0 -3,-1 -1,0 -1,-1 -2,-1 0,-1 -1,-2 -1,-3l3 0c0,1 0,2 1,2 0,1 1,1 2,1 1,0 2,0 2,-1 1,0 1,0 1,-1z"/>
  <path id="3" class="fil4" d="M335 315c1,-1 2,-2 4,-2 3,0 4,2 5,5l0 10 -3 0 0 -10c0,-1 0,-2 -1,-2 0,-1 -1,-1 -2,-1 -1,0 -1,0 -2,1 -1,0 -1,1 -1,1l0 11 -3 0 0 -21 3 0 0 8z"/>
  <path id="4" class="fil4" d="M360 321c0,2 -1,4 -2,5 -1,1 -2,2 -4,2 -2,0 -3,-1 -4,-2l0 2 -3 0 0 -21 3 0 0 8c1,-1 2,-2 4,-2 2,0 3,1 4,2 1,1 2,3 2,5l0 1zm-3 -1c0,-1 0,-3 -1,-4 -1,-1 -2,-1 -3,-1 -1,0 -3,1 -3,2l0 7c0,1 2,2 3,2 1,0 2,-1 3,-1 1,-1 1,-3 1,-5z"/>
  <path id="5" class="fil4" d="M362 320c0,-1 0,-2 1,-4 0,-1 1,-2 2,-2 1,-1 2,-1 4,-1 2,0 3,1 4,2 2,1 2,3 2,5l0 1c0,1 0,2 -1,3 0,2 -1,2 -2,3 -1,1 -2,1 -3,1 -2,0 -4,-1 -5,-2 -1,-1 -2,-3 -2,-6l0 0zm3 1c0,1 0,3 1,4 0,0 1,1 3,1 1,0 2,-1 3,-2 0,-1 1,-2 1,-4 0,-1 -1,-3 -1,-4 -1,-1 -2,-1 -3,-1 -2,0 -3,0 -3,1 -1,1 -1,3 -1,5z"/>
  <path id="6" class="fil4" d="M387 328c0,-1 0,-1 0,-2 -1,1 -2,2 -4,2 -2,0 -3,0 -4,-1 -1,-1 -1,-2 -1,-3 0,-2 1,-3 2,-4 1,-1 3,-1 5,-1l2 0 0 -1c0,-1 0,-2 -1,-2 0,-1 -1,-1 -2,-1 -1,0 -2,0 -2,1 -1,0 -1,1 -1,1l-3 0c0,-1 1,-1 1,-2 1,-1 1,-1 2,-2 1,0 2,0 3,0 2,0 3,0 4,1 1,1 1,2 2,4l0 6c0,2 0,3 0,4l0 0 -3 0zm-4 -2c1,0 2,0 2,-1 1,0 2,-1 2,-1l0 -3 -2 0c-3,0 -5,1 -5,2 0,1 1,2 1,2 1,1 1,1 2,1z"/>
  <path id="7" class="fil4" d="M400 315c0,0 0,0 -1,0 -1,0 -3,1 -3,2l0 11 -3 0 0 -15 3 0 0 2c1,-1 2,-2 3,-2 1,0 1,0 1,0l0 2z"/>
  <path id="8" class="fil4" d="M402 320c0,-2 0,-4 1,-5 2,-1 3,-2 5,-2 1,0 3,0 4,2l0 -8 2 0 0 21 -2 0 0 -2c-1,1 -3,2 -4,2 -2,0 -3,-1 -5,-2 -1,-1 -1,-3 -1,-5l0 -1zm2 1c0,1 1,3 1,3 1,1 2,2 3,2 2,0 3,-1 4,-2l0 -7c-1,-1 -2,-2 -4,-2 -1,0 -2,0 -3,1 0,1 -1,3 -1,5z"/>
  <path id="9" class="fil4" d="M427 324c0,-1 -1,-1 -1,-2 -1,0 -2,0 -3,-1 -1,0 -2,0 -3,-1 -1,0 -1,0 -2,-1 0,0 0,-1 0,-2 0,-1 0,-2 1,-3 1,-1 3,-1 4,-1 2,0 3,0 4,1 1,1 2,2 2,3l-3 0c0,0 0,-1 -1,-1 0,-1 -1,-1 -2,-1 -1,0 -1,0 -2,1 0,0 -1,0 -1,1 0,1 1,1 1,1 1,1 1,1 3,1 1,1 2,1 3,1 0,1 1,1 1,2 1,0 1,1 1,2 0,1 -1,2 -2,3 -1,1 -2,1 -4,1 -1,0 -2,0 -3,-1 -1,0 -1,-1 -2,-1 0,-1 -1,-2 -1,-3l3 0c0,1 0,2 1,2 1,1 1,1 2,1 1,0 2,0 3,-1 0,0 1,0 1,-1z"/>
  <path id="10" class="fil4" d="M292 353c-2,0 -4,-1 -5,-2 -1,-1 -2,-3 -2,-5l0 -1c0,-1 1,-3 1,-4 1,-1 2,-2 2,-2 1,-1 3,-1 4,-1 2,0 3,0 4,2 1,1 2,3 2,5l0 1 -10 0c0,1 0,3 1,3 1,1 2,2 3,2 1,0 2,0 2,-1 1,0 2,-1 2,-1l2 1c-2,2 -4,3 -6,3zm0 -13c-1,0 -2,0 -3,1 0,1 -1,2 -1,3l7 0 0 0c0,-2 0,-3 -1,-3 0,-1 -1,-1 -2,-1z"/>
  <path id="11" class="fil4" d="M315 345l-5 0 0 8 -2 0 0 -20 6 0c2,0 4,0 5,1 2,1 2,3 2,5 0,1 0,2 -1,3 -1,1 -1,2 -3,2l5 8 0 1 -3 0 -4 -8zm-5 -2l4 0c2,0 3,-1 3,-1 1,-1 2,-2 2,-3 0,-1 -1,-2 -2,-3 0,-1 -1,-1 -3,-1l-4 0 0 8z"/>
  <path id="12" class="fil4" d="M330 353c-2,0 -3,-1 -4,-2 -2,-1 -2,-3 -2,-5l0 -1c0,-1 0,-3 1,-4 0,-1 1,-2 2,-2 1,-1 2,-1 3,-1 2,0 3,0 5,2 1,1 1,3 1,5l0 1 -10 0c0,1 1,3 1,3 1,1 2,2 4,2 0,0 1,0 2,-1 0,0 1,-1 1,-1l2 1c-1,2 -3,3 -6,3zm0 -13c-1,0 -2,0 -2,1 -1,1 -2,2 -2,3l8 0 0 0c0,-2 -1,-3 -1,-3 -1,-1 -2,-1 -3,-1z"/>
  <polygon id="13" class="fil4" points="342,353 339,353 339,332 342,332 "/>
  <path id="14" class="fil4" d="M355 353c0,-1 -1,-1 -1,-2 -1,1 -2,2 -4,2 -1,0 -2,-1 -3,-1 -1,-1 -2,-2 -2,-3 0,-2 1,-3 2,-4 1,-1 3,-1 5,-1l2 0 0 -1c0,-1 0,-2 -1,-3 0,0 -1,0 -2,0 -1,0 -1,0 -2,0 -1,1 -1,1 -1,2l-2 0c0,-1 0,-1 0,-2 1,-1 2,-1 2,-2 1,0 2,0 3,0 2,0 3,0 4,1 1,1 2,2 2,3l0 7c0,1 0,3 0,3l0 1 -2 0zm-4 -2c0,0 1,-1 2,-1 0,0 1,-1 1,-2l0 -3 -2 0c-3,0 -4,1 -4,3 0,1 0,2 1,2 0,0 1,1 2,1z"/>
  <path id="15" class="fil4" d="M364 334l0 4 3 0 0 2 -3 0 0 9c0,1 0,1 0,1 1,1 1,1 2,1 0,0 0,0 1,0l0 2c-1,0 -1,0 -2,0 -1,0 -2,-1 -3,-1 0,-1 0,-2 0,-3l0 -9 -3 0 0 -2 3 0 0 -4 2 0z"/>
  <path id="16" class="fil4" d="M369 345c0,-1 0,-3 1,-4 0,-1 1,-2 2,-2 1,-1 2,-1 3,-1 2,0 4,0 5,2 1,1 2,3 2,5l0 0c0,2 0,3 -1,4 0,1 -1,2 -2,3 -1,0 -2,1 -4,1 -2,0 -3,-1 -4,-2 -2,-2 -2,-3 -2,-6l0 0zm2 0c0,2 1,3 1,4 1,1 2,2 3,2 2,0 3,-1 3,-2 1,-1 1,-2 1,-4 0,-1 0,-3 -1,-4 0,-1 -1,-1 -3,-1 -1,0 -2,0 -3,1 0,1 -1,3 -1,4zm5 -13l3 0 -3 4 -2 0 2 -4z"/>
  <path id="17" class="fil4" d="M392 340c0,0 -1,0 -1,0 -2,0 -3,1 -3,2l0 11 -3 0 0 -15 3 0 0 2c0,-2 2,-2 3,-2 1,0 1,0 1,0l0 2z"/>
  <path id="18" class="fil4" d="M397 353l-2 0 0 -15 2 0 0 15zm-3 -19c0,0 1,-1 1,-1 0,0 0,0 1,0 0,0 1,0 1,0 0,0 0,1 0,1 0,1 0,1 0,1 0,0 -1,1 -1,1 -1,0 -1,-1 -1,-1 0,0 -1,0 -1,-1z"/>
  <path id="19" class="fil4" d="M400 345c0,-1 1,-3 1,-4 1,-1 2,-2 3,-2 1,-1 2,-1 3,-1 2,0 4,0 5,2 1,1 2,3 2,5l0 0c0,2 -1,3 -1,4 -1,1 -1,2 -2,3 -1,0 -3,1 -4,1 -2,0 -3,-1 -5,-2 -1,-2 -2,-3 -2,-6l0 0zm3 0c0,2 0,3 1,4 1,1 2,2 3,2 1,0 2,-1 3,-2 1,-1 1,-2 1,-4 0,-1 0,-3 -1,-4 -1,-1 -2,-1 -3,-1 -1,0 -2,0 -3,1 -1,1 -1,3 -1,4z"/>
  <path id="20" class="fil4" d="M425 349c0,-1 0,-2 0,-2 -1,0 -2,-1 -3,-1 -1,0 -2,0 -3,-1 -1,0 -1,-1 -2,-1 0,-1 0,-1 0,-2 0,-1 0,-2 1,-3 1,-1 3,-1 4,-1 2,0 3,0 4,1 1,1 2,2 2,3l-3 0c0,0 0,-1 -1,-2 0,0 -1,0 -2,0 -1,0 -2,0 -2,0 -1,1 -1,1 -1,2 0,0 0,1 1,1 0,1 1,1 2,1 2,0 3,1 4,1 0,1 1,1 1,2 1,0 1,1 1,2 0,1 -1,2 -2,3 -1,0 -2,1 -4,1 -1,0 -2,0 -3,-1 -1,0 -2,-1 -2,-2 -1,0 -1,-1 -1,-2l3 0c0,1 0,2 1,2 0,1 1,1 2,1 1,0 2,0 2,-1 1,0 1,-1 1,-1z"/>
  <path class="fil4" d="M904 332c-3,-1 -4,-2 -5,-3 -1,-1 -2,-2 -2,-3 0,-2 1,-3 2,-4 1,-1 3,-2 5,-2 1,0 2,1 3,1 2,1 2,1 3,2 1,1 1,2 1,3l-3 0c0,-1 0,-2 -1,-2 -1,-1 -2,-1 -3,-1 -1,0 -2,0 -3,0 -1,1 -1,2 -1,3 0,0 0,1 1,2 1,0 2,1 3,1 2,1 3,1 4,2 1,0 2,1 2,2 1,0 1,1 1,2 0,2 -1,3 -2,4 -1,1 -3,2 -5,2 -1,0 -3,-1 -4,-1 -1,-1 -2,-1 -2,-2 -1,-1 -1,-2 -1,-3l2 0c0,1 1,2 2,2 0,1 2,1 3,1 1,0 2,0 3,0 1,-1 1,-2 1,-3 0,-1 0,-1 -1,-2 0,0 -2,-1 -3,-1z"/>
  <path id="1" class="fil4" d="M920 341c-2,0 -4,-1 -5,-2 -1,-2 -2,-3 -2,-6l0 0c0,-2 0,-3 1,-4 1,-1 1,-2 2,-3 1,0 2,-1 4,-1 1,0 3,1 4,2 1,2 2,3 2,6l0 1 -10 0c0,1 0,2 1,3 1,1 2,2 3,2 1,0 2,-1 2,-1 1,0 1,-1 2,-1l1 1c-1,2 -3,3 -5,3zm0 -14c-1,0 -2,1 -3,2 -1,0 -1,1 -1,3l7 0 0 -1c0,-1 0,-2 -1,-2 -1,-1 -1,-2 -2,-2z"/>
  <polygon id="2" class="fil4" points="931,340 929,340 929,320 931,320 "/>
  <path id="3" class="fil4" d="M936 340l0 -12 -2 0 0 -2 2 0 0 -2c0,-1 1,-3 2,-3 0,-1 2,-2 3,-2 1,0 1,0 2,1l0 2c-1,-1 -1,-1 -2,-1 0,0 -1,1 -2,1 0,1 0,1 0,2l0 2 3 0 0 2 -3 0 0 12 -3 0z"/>
  <polygon id="4" class="fil4" points="950,333 943,333 943,331 950,331 "/>
  <path id="5" class="fil4" d="M958 332c-2,-1 -3,-2 -4,-3 -1,-1 -2,-2 -2,-3 0,-2 1,-3 2,-4 1,-1 3,-2 5,-2 1,0 2,1 3,1 1,1 2,1 3,2 0,1 1,2 1,3l-3 0c0,-1 0,-2 -1,-2 -1,-1 -2,-1 -3,-1 -2,0 -3,0 -3,0 -1,1 -1,2 -1,3 0,0 0,1 1,2 0,0 2,1 3,1 2,1 3,1 4,2 1,0 2,1 2,2 0,0 1,1 1,2 0,2 -1,3 -2,4 -1,1 -3,2 -5,2 -2,0 -3,-1 -4,-1 -1,-1 -2,-1 -3,-2 0,-1 -1,-2 -1,-3l3 0c0,1 0,2 1,2 1,1 2,1 4,1 1,0 2,0 3,0 1,-1 1,-2 1,-3 0,-1 0,-1 -1,-2 -1,0 -2,-1 -4,-1z"/>
  <path id="6" class="fil4" d="M975 341c-2,0 -4,-1 -5,-2 -1,-2 -2,-3 -2,-6l0 0c0,-2 0,-3 1,-4 0,-1 1,-2 2,-3 1,0 2,-1 3,-1 2,0 4,1 5,2 1,2 1,3 1,6l0 1 -10 0c0,1 1,2 2,3 1,1 2,2 3,2 1,0 1,-1 2,-1 1,0 1,-1 2,-1l1 1c-1,2 -3,3 -5,3zm-1 -14c-1,0 -2,1 -2,2 -1,0 -1,1 -1,3l7 0 0 -1c0,-1 -1,-2 -1,-2 -1,-1 -2,-2 -3,-2z"/>
  <path id="7" class="fil4" d="M990 328c0,0 -1,0 -1,0 -2,0 -3,1 -3,2l0 10 -3 0 0 -14 3 0 0 1c0,-1 2,-2 3,-2 1,0 1,1 1,1l0 2z"/>
  <polygon id="8" class="fil4" points="998,337 1001,326 1004,326 998,340 997,340 991,326 994,326 "/>
  <path id="9" class="fil4" d="M1009 340l-3 0 0 -14 3 0 0 14zm-3 -18c0,-1 0,-1 0,-1 1,0 1,-1 2,-1 0,0 0,1 1,1 0,0 0,0 0,1 0,0 0,1 0,1 -1,0 -1,0 -1,0 -1,0 -1,0 -2,0 0,0 0,-1 0,-1z"/>
  <path id="10" class="fil4" d="M1019 339c1,0 1,-1 2,-1 1,-1 1,-2 1,-2l2 0c0,1 0,1 0,2 -1,1 -2,1 -3,2 0,0 -1,1 -2,1 -2,0 -4,-1 -5,-2 -1,-2 -2,-4 -2,-6l0 0c0,-2 0,-3 1,-4 0,-1 1,-2 2,-3 1,0 2,-1 4,-1 1,0 3,1 4,2 1,1 1,2 1,4l-2 0c0,-1 0,-2 -1,-3 -1,0 -1,-1 -2,-1 -2,0 -3,1 -3,2 -1,1 -1,2 -1,4l0 0c0,2 0,3 1,4 0,1 1,2 3,2z"/>
  <path id="11" class="fil4" d="M1033 341c-2,0 -3,-1 -5,-2 -1,-2 -1,-3 -1,-6l0 0c0,-2 0,-3 0,-4 1,-1 2,-2 3,-3 1,0 2,-1 3,-1 2,0 3,1 4,2 1,2 2,3 2,6l0 1 -10 0c0,1 1,2 1,3 1,1 2,2 3,2 1,0 2,-1 3,-1 0,0 1,-1 1,-1l2 1c-1,2 -3,3 -6,3zm0 -14c-1,0 -2,1 -3,2 0,0 -1,1 -1,3l7 0 0 -1c0,-1 0,-2 -1,-2 0,-1 -1,-2 -2,-2z"/>
  <path id="12" class="fil4" d="M1049 340l0 -19 6 0c3,0 4,0 5,1 1,1 2,2 2,4 0,1 0,2 -1,2 0,1 -1,2 -2,2 1,0 2,1 2,2 1,0 1,1 1,3 0,1 0,3 -1,4 -1,1 -3,1 -5,1l-7 0zm3 -9l0 7 4 0c1,0 2,0 3,-1 0,0 1,-1 1,-2 0,-3 -2,-4 -4,-4l-4 0zm0 -2l4 0c1,0 2,0 2,-1 1,0 1,-1 1,-2 0,-1 0,-2 -1,-2 0,-1 -1,-1 -3,-1l-3 0 0 6z"/>
  <polygon id="13" class="fil4" points="1069,340 1066,340 1066,321 1069,321 "/>
  <path class="fil4" d="M142 571l-4 0 0 8 -3 0 0 -20 7 0c2,0 4,1 5,2 1,1 2,2 2,4 0,1 -1,2 -1,3 -1,1 -2,2 -3,2l4 8 0 1 -2 0 -5 -8zm-4 -2l4 0c1,0 2,-1 3,-1 1,-1 1,-2 1,-3 0,-1 0,-2 -1,-3 -1,0 -2,-1 -3,-1l-4 0 0 8z"/>
  <polygon id="1" class="fil4" points="157,571 150,571 150,569 157,569 "/>
  <path id="2" class="fil4" d="M162 571l0 8 -2 0 0 -20 7 0c2,0 4,1 5,2 1,1 2,2 2,4 0,2 -1,3 -2,4 -1,1 -3,2 -5,2l-5 0zm0 -2l5 0c1,0 2,0 3,-1 1,-1 1,-2 1,-3 0,-1 0,-2 -1,-3 -1,0 -2,-1 -3,-1l-5 0 0 8z"/>
  <path id="3" class="fil4" d="M182 575l3 -11 3 0 -6 17c-1,2 -2,4 -4,4l-1 -1 -1 0 0 -2 1 0c1,0 1,0 2,0 0,-1 1,-1 1,-2l1 -2 -6 -14 3 0 4 11z"/>
  <path id="4" class="fil4" d="M193 561l0 3 3 0 0 2 -3 0 0 9c0,1 1,1 1,1 0,1 0,1 1,1 0,0 1,0 1,0l0 2c0,0 -1,0 -2,0 -1,0 -2,0 -2,-1 -1,-1 -1,-2 -1,-3l0 -9 -3 0 0 -2 3 0 0 -3 2 0z"/>
  <path id="5" class="fil4" d="M202 566c1,-2 2,-2 4,-2 3,0 4,2 5,5l0 10 -3 0 0 -10c0,-1 0,-2 -1,-2 0,-1 -1,-1 -2,-1 -1,0 -1,0 -2,1 -1,0 -1,1 -1,1l0 11 -3 0 0 -21 3 0 0 8z"/>
  <path id="6" class="fil4" d="M214 571c0,-1 0,-2 0,-4 1,-1 2,-2 3,-2 1,-1 2,-1 3,-1 2,0 4,1 5,2 1,1 2,3 2,5l0 1c0,1 0,2 -1,3 -1,1 -1,2 -2,3 -1,1 -2,1 -4,1 -2,0 -3,-1 -5,-2 -1,-2 -1,-3 -1,-6l0 0zm2 1c0,1 0,2 1,3 1,1 2,2 3,2 1,0 2,-1 3,-2 1,-1 1,-2 1,-4 0,-1 0,-3 -1,-4 -1,-1 -2,-1 -3,-1 -1,0 -2,0 -3,1 -1,1 -1,3 -1,5z"/>
  <path id="7" class="fil4" d="M232 564l0 2c1,-1 3,-2 5,-2 3,0 4,2 4,5l0 10 -2 0 0 -10c0,-1 0,-2 -1,-2 0,-1 -1,-1 -2,-1 -1,0 -2,0 -2,1 -1,0 -1,1 -2,1l0 11 -2 0 0 -15 2 0z"/>
  <path class="fil4" d="M1147 566l0 -20 5 0c2,0 4,0 5,1 1,1 2,2 3,3 1,2 1,3 1,5l0 2c0,1 0,3 -1,4 -1,2 -2,3 -3,4 -1,0 -3,1 -5,1l-5 0zm3 -18l0 16 2 0c2,0 4,-1 5,-2 1,-2 2,-3 2,-6l0 -1c0,-2 -1,-4 -2,-5 -1,-1 -3,-2 -4,-2l-3 0z"/>
  <path id="1" class="fil4" d="M1174 566c-1,-1 -1,-1 -1,-2 -1,1 -2,2 -4,2 -1,0 -3,0 -3,-1 -1,-1 -2,-2 -2,-3 0,-2 1,-3 2,-4 1,-1 3,-1 5,-1l2 0 0 -1c0,-1 0,-2 -1,-2 0,-1 -1,-1 -2,-1 -1,0 -2,0 -2,1 -1,0 -1,1 -1,1l-3 0c0,-1 1,-1 1,-2 1,-1 1,-1 2,-2 1,0 2,0 3,0 2,0 3,0 4,1 1,1 2,2 2,4l0 6c0,2 0,3 0,3l0 1 -2 0zm-5 -2c1,0 2,0 3,-1 0,0 1,-1 1,-1l0 -3 -2 0c-3,0 -4,1 -4,2 0,1 0,2 0,2 1,1 2,1 2,1z"/>
  <path id="2" class="fil4" d="M1183 548l0 3 3 0 0 2 -3 0 0 9c0,1 0,1 0,1 1,1 1,1 2,1 0,0 0,0 1,0l0 2c-1,0 -2,0 -2,0 -1,0 -2,0 -3,-1 0,-1 -1,-2 -1,-3l0 -9 -2 0 0 -2 2 0 0 -3 3 0z"/>
  <path id="3" class="fil4" d="M1198 566c-1,-1 -1,-1 -1,-2 -1,1 -2,2 -4,2 -1,0 -3,0 -3,-1 -1,-1 -2,-2 -2,-3 0,-2 1,-3 2,-4 1,-1 3,-1 5,-1l2 0 0 -1c0,-1 0,-2 -1,-2 0,-1 -1,-1 -2,-1 -1,0 -2,0 -2,1 -1,0 -1,1 -1,1l-3 0c0,-1 1,-1 1,-2 1,-1 1,-1 2,-2 1,0 2,0 3,0 2,0 3,0 4,1 1,1 2,2 2,4l0 6c0,2 0,3 0,3l0 1 -2 0zm-5 -2c1,0 2,0 3,-1 0,0 1,-1 1,-1l0 -3 -2 0c-3,0 -4,1 -4,2 0,1 0,2 0,2 1,1 2,1 2,1z"/>
  <path id="4" class="fil4" d="M1116 591l0 -20 5 0c2,0 4,0 5,1 1,1 2,2 3,3 1,2 1,3 1,5l0 1c0,2 0,4 -1,5 -1,2 -2,3 -3,3 -1,1 -3,1 -5,2l-5 0zm2 -18l0 15 3 0c2,0 4,0 5,-1 1,-2 1,-3 1,-6l0 -1c0,-2 0,-4 -1,-5 -1,-1 -3,-2 -5,-2l-3 0z"/>
  <path id="5" class="fil4" d="M1136 591l-2 0 0 -15 2 0 0 15zm-2 -19c0,0 0,-1 0,-1 0,0 0,0 1,0 0,0 1,0 1,0 0,0 0,1 0,1 0,0 0,1 0,1 0,0 -1,1 -1,1 -1,0 -1,-1 -1,-1 0,0 0,-1 0,-1z"/>
  <path id="6" class="fil4" d="M1149 587c0,-1 -1,-2 -1,-2 -1,0 -1,-1 -3,-1 -1,0 -2,0 -3,-1 0,0 -1,-1 -1,-1 -1,-1 -1,-1 -1,-2 0,-1 1,-2 2,-3 1,-1 2,-1 3,-1 2,0 3,0 4,1 2,1 2,2 2,3l-2 0c0,0 -1,-1 -1,-2 -1,0 -2,0 -3,0 0,0 -1,0 -2,0 0,1 0,1 0,2 0,0 0,1 0,1 1,1 2,1 3,1 1,0 2,1 3,1 1,0 1,1 2,1 0,1 0,2 0,2 0,2 0,3 -1,4 -1,0 -3,1 -4,1 -2,0 -3,0 -4,-1 0,0 -1,-1 -2,-2 0,0 0,-1 0,-2l2 0c0,1 0,2 1,2 1,1 2,1 3,1 0,0 1,0 2,-1 0,0 1,-1 1,-1z"/>
  <path id="7" class="fil4" d="M1160 589c1,0 2,-1 3,-1 0,-1 1,-1 1,-2l2 0c0,1 0,2 -1,2 0,1 -1,2 -2,2 -1,1 -2,1 -3,1 -2,0 -3,-1 -5,-2 -1,-2 -1,-3 -1,-6l0 0c0,-1 0,-3 1,-4 0,-1 1,-2 2,-2 1,-1 2,-1 3,-1 2,0 3,0 4,1 1,1 2,2 2,4l-2 0c0,-1 -1,-2 -1,-2 -1,-1 -2,-1 -3,-1 -1,0 -2,0 -3,1 0,1 -1,2 -1,4l0 1c0,1 1,2 1,3 1,1 2,2 3,2z"/>
  <path id="8" class="fil4" d="M1168 583c0,-1 0,-3 1,-4 1,-1 1,-2 2,-2 1,-1 2,-1 4,-1 2,0 3,0 5,2 1,1 1,3 1,5l0 0c0,2 0,3 0,4 -1,1 -2,2 -3,3 -1,0 -2,1 -3,1 -2,0 -4,-1 -5,-2 -1,-2 -2,-3 -2,-6l0 0zm3 0c0,2 0,3 1,4 1,1 2,2 3,2 1,0 2,-1 3,-2 1,-1 1,-2 1,-4 0,-2 0,-3 -1,-4 -1,-1 -2,-1 -3,-1 -1,0 -2,0 -3,1 -1,1 -1,3 -1,4z"/>
  <polygon id="9" class="fil4" points="1189,587 1193,576 1195,576 1190,591 1188,591 1183,576 1185,576 "/>
  <path id="10" class="fil4" d="M1204 591c-2,0 -4,-1 -5,-2 -2,-1 -2,-3 -2,-5l0 -1c0,-1 0,-3 1,-4 0,-1 1,-2 2,-2 1,-1 2,-1 3,-1 2,0 4,0 5,2 1,1 1,3 1,5l0 1 -10 0c0,1 1,3 2,3 0,1 1,2 3,2 1,0 1,0 2,-1 1,0 1,-1 2,-1l1 1c-1,2 -3,3 -5,3zm-1 -13c-1,0 -2,0 -2,1 -1,1 -1,2 -2,3l8 0 0 0c0,-2 -1,-3 -1,-3 -1,-1 -2,-1 -3,-1z"/>
  <path id="11" class="fil4" d="M1219 578c0,0 -1,0 -1,0 -2,0 -3,1 -3,2l0 11 -3 0 0 -15 3 0 0 2c0,-2 2,-2 3,-2 1,0 1,0 1,0l0 2z"/>
  <path id="12" class="fil4" d="M1226 587l4 -11 2 0 -5 17c-1,2 -3,3 -5,3l0 0 -1 0 0 -2 1 0c0,0 1,0 2,0 0,-1 0,-1 1,-2l0 -2 -5 -14 3 0 3 11z"/>
  <path class="fil5" d="M499 128c0,2 0,4 -1,6 -1,1 -3,2 -5,3 -2,0 -4,0 -6,-1 -1,-1 -3,-3 -3,-6l-1 -2c0,-2 -1,-3 0,-5 0,-1 0,-3 1,-4 1,-1 3,-1 4,-2 2,0 4,0 5,1 2,0 3,2 4,4l-3 0c0,-1 -1,-2 -2,-3 -1,0 -2,0 -3,0 -2,1 -3,2 -4,3 0,2 0,3 1,6l0 1c1,2 1,4 3,5 1,1 2,1 4,1 1,-1 2,-1 3,-2 0,-1 0,-2 0,-4l3 -1z"/>
  <path id="1" class="fil5" d="M517 120c1,2 1,4 1,5 0,2 -1,3 -2,4 -1,1 -2,2 -4,2 -1,1 -3,1 -4,0 -1,0 -2,-1 -3,-2 -1,-1 -2,-3 -3,-4l0 -2c-1,-2 -1,-3 -1,-5 1,-1 1,-3 2,-4 1,-1 2,-2 4,-2 1,0 3,0 4,0 1,0 3,1 4,2 1,2 1,3 2,5l0 1zm-2 0c-1,-3 -2,-4 -3,-5 -2,-1 -3,-1 -5,-1 -1,1 -2,2 -3,3 0,1 0,3 0,5l1 2c0,2 1,4 2,4 2,1 3,2 5,1 1,0 2,-1 3,-3 1,-1 1,-3 0,-5l0 -1z"/>
  <polygon id="2" class="fil5" points="540,125 538,125 525,113 528,127 525,128 521,109 524,108 537,121 533,106 536,106 "/>
  <path id="3" class="fil5" d="M550 114c-2,0 -4,-1 -5,-2 -1,0 -2,-1 -2,-3 0,-1 0,-3 1,-4 2,-1 3,-2 5,-2 1,0 3,0 4,0 1,0 2,1 2,2 1,1 2,2 2,3l-3 0c0,-1 -1,-2 -1,-3 -1,0 -2,0 -4,0 -1,0 -2,1 -2,1 -1,1 -1,2 -1,3 0,1 0,1 1,2 1,0 2,0 4,1 2,0 3,0 4,0 1,1 2,1 2,2 1,1 1,1 1,2 0,2 0,3 -1,5 -1,1 -3,1 -5,2 -1,0 -2,0 -3,0 -2,-1 -3,-1 -3,-2 -1,-1 -2,-2 -2,-3l3 0c0,1 0,2 1,2 1,1 3,1 4,1 1,-1 2,-1 3,-2 1,0 1,-1 1,-2 0,-1 -1,-2 -2,-2 0,-1 -2,-1 -4,-1z"/>
  <path id="4" class="fil5" d="M574 99l3 13c0,2 -1,3 -1,5 -1,1 -3,2 -5,2l0 1c-3,0 -4,0 -6,-1 -1,-1 -2,-3 -2,-5l-3 -13 3 0 2 13c0,1 1,2 2,3 1,1 2,1 3,1 2,-1 3,-1 3,-2 1,-1 1,-2 1,-4l-2 -13 2 0z"/>
  <polygon id="5" class="fil5" points="584,97 592,112 597,96 600,95 603,115 600,115 599,108 598,99 594,116 592,116 584,101 585,109 586,117 583,117 581,98 "/>
  <path id="6" class="fil5" d="M623 104c0,2 0,3 -1,5 0,1 -1,3 -2,3 -1,1 -3,2 -4,2 -2,0 -3,0 -4,-1 -2,-1 -3,-2 -3,-3 -1,-1 -2,-3 -2,-5l0 -1c0,-2 0,-4 1,-5 0,-2 1,-3 2,-4 2,-1 3,-1 4,-1 2,0 3,0 5,1 1,0 2,1 3,3 0,1 1,3 1,5l0 1zm-3 -1c0,-3 0,-4 -1,-5 -1,-2 -3,-2 -4,-2 -2,0 -3,1 -4,2 -1,1 -1,3 -1,5l0 2c0,2 1,4 2,5 1,1 2,2 4,2 1,0 3,-1 3,-2 1,-2 2,-4 1,-6l0 -1z"/>
  <path id="7" class="fil5" d="M636 112l-1 -19 5 -1c2,0 3,0 5,1 1,1 2,2 3,3 1,1 1,3 1,5l1 1c0,2 -1,3 -1,5 -1,1 -2,2 -3,3 -1,1 -3,2 -5,2l-5 0zm1 -18l1 16 3 0c2,-1 4,-1 5,-3 1,-1 1,-3 1,-5l0 -1c0,-2 -1,-4 -2,-5 -1,-1 -3,-2 -5,-2l-3 0z"/>
  <path id="8" class="fil5" d="M666 106l-8 0 -2 5 -2 0 7 -19 2 0 8 19 -3 0 -2 -5zm-7 -2l6 0 -3 -9 -3 9z"/>
  <polygon id="9" class="fil5" points="685,111 682,111 683,92 685,92 "/>
  <polygon id="10" class="fil5" points="706,112 704,112 694,96 694,112 691,111 692,92 694,92 704,107 704,92 707,92 "/>
  <polygon id="11" class="fil5" points="724,105 716,104 715,113 712,112 714,93 726,94 726,96 716,95 716,102 724,103 "/>
  <path id="12" class="fil5" d="M745 106c0,2 -1,3 -1,5 -1,1 -2,2 -3,3 -2,0 -3,1 -5,1 -1,0 -2,-1 -4,-2 -1,-1 -2,-2 -2,-3 -1,-2 -1,-3 -1,-5l0 -2c1,-2 1,-3 2,-5 1,-1 2,-2 3,-3 1,0 2,-1 4,0 2,0 3,0 4,1 1,1 2,2 3,4 0,1 0,3 0,5l0 1zm-2 -2c0,-2 -1,-4 -1,-5 -1,-1 -3,-2 -4,-2 -2,0 -3,0 -4,1 -1,1 -2,3 -2,5l0 2c0,2 0,4 1,5 1,2 2,2 4,2 1,1 3,0 4,-1 1,-1 1,-3 1,-5l1 -2z"/>
  <path id="13" class="fil5" d="M758 109l-5 -1 -1 8 -2 0 2 -20 6 1c3,0 4,1 5,2 1,2 2,3 2,5 -1,1 -1,2 -2,3 -1,1 -2,1 -3,2l4 8 0 1 -3 -1 -3 -8zm-5 -3l4 1c2,0 3,0 4,-1 0,0 1,-1 1,-2 0,-2 0,-3 -1,-3 0,-1 -1,-1 -3,-2l-4 0 -1 7z"/>
  <polygon id="14" class="fil5" points="775,99 778,116 788,102 791,102 787,122 785,121 786,114 788,106 779,120 777,120 773,103 772,111 771,118 768,118 772,99 "/>
  <path id="15" class="fil5" d="M805 120l-8 -2 -3 5 -2 -1 11 -18 2 1 4 21 -3 -1 -1 -5zm-7 -4l7 1 -2 -9 -5 8z"/>
  <path id="16" class="fil5" d="M828 124c-1,2 -2,3 -3,4 -2,1 -3,1 -6,0 -2,0 -3,-1 -4,-3 -1,-2 -1,-5 -1,-7l1 -2c0,-2 1,-3 2,-4 1,-2 2,-2 3,-3 2,0 3,0 4,0 3,1 4,1 5,3 1,1 1,3 1,5l-3 -1c1,-1 0,-2 0,-3 -1,-1 -2,-2 -3,-2 -2,0 -3,0 -4,1 -1,1 -2,2 -3,5l0 1c-1,3 -1,4 0,6 0,1 1,2 3,2 1,1 2,1 3,0 1,0 2,-1 3,-3l2 1zm-8 5l0 0c1,1 2,2 1,3 0,1 0,1 -1,2 -1,0 -2,0 -3,0l0 -2c1,0 1,0 2,0 0,0 0,0 1,0 0,-1 0,-1 -1,-1 0,-1 0,-1 -1,-1l1 -2 1 1z"/>
  <path id="17" class="fil5" d="M843 129l-7 -2 -3 4 -3 0 12 -18 2 1 3 21 -3 -1 -1 -5zm-6 -4l6 1 -1 -9 -5 8zm12 -15c0,1 -1,2 -2,2 0,1 -1,1 -2,0 0,0 0,0 -1,0 0,0 0,0 -1,-1 0,0 0,0 0,0 0,0 -1,-1 -1,-1 0,0 -1,0 -1,1 0,0 0,0 -1,0l-1 0c0,-1 0,-2 1,-2 1,-1 2,-1 2,0 1,0 1,0 1,0 0,0 1,0 1,1 0,0 1,0 1,0 0,0 0,1 1,1 0,0 0,0 1,-1 0,0 0,0 0,-1l2 1z"/>
  <path id="18" class="fil5" d="M868 132c-1,1 -2,3 -3,4 -1,1 -2,2 -3,2 -2,1 -3,1 -5,0 -1,0 -2,-1 -3,-2 -1,-1 -2,-2 -2,-4 0,-1 0,-3 1,-5l0 -1c1,-2 1,-3 2,-5 1,-1 3,-2 4,-2 1,0 3,0 4,0 2,1 3,1 4,2 1,1 1,3 2,4 0,2 0,4 -1,5l0 2zm-2 -2c0,-3 0,-4 0,-6 -1,-1 -2,-2 -3,-3 -2,0 -3,0 -5,1 -1,1 -2,2 -2,4l-1 2c-1,2 -1,4 0,5 0,2 2,3 3,3 2,1 3,1 4,0 2,-1 3,-3 3,-5l1 -1z"/>
  <path class="fil6" d="M694 26c3,-3 8,-3 11,0 3,3 3,8 0,11 -3,3 -8,3 -11,0 -2,-1 -2,-4 -2,-6 0,-2 0,-4 2,-5zm-13 11c0,5 -4,8 -8,8 -4,0 -8,-3 -8,-8 0,-4 4,-8 8,-8 2,0 4,1 6,3 1,1 2,3 2,5zm-16 -8c-4,5 -4,12 0,16 4,5 11,5 16,0 4,-4 4,-11 0,-16 -2,-2 -5,-3 -8,-3 -3,0 -6,1 -8,3zm-13 8c-3,3 -8,3 -11,0 -4,-3 -4,-8 0,-11 3,-3 8,-3 11,0 1,1 2,3 2,5 0,2 -1,5 -2,6zm-6 -17c-6,0 -11,5 -11,11 0,7 5,12 11,12 6,0 11,-5 11,-12 0,-3 -1,-5 -3,-7 -2,-3 -5,-4 -8,-4zm-17 40c0,-6 5,-12 11,-12l12 0c2,0 4,1 6,2 1,0 2,1 3,2 -5,2 -8,7 -9,12l0 1c0,0 0,0 0,0l0 0 0 1 0 1 -23 0 0 -7zm38 -6l12 0c6,0 11,5 11,10l0 0c0,1 0,1 1,1l0 0c0,0 0,1 0,1l0 7 -36 0 0 -7c0,0 0,-1 0,-1l0 0c0,0 0,0 0,0l0 0c0,-1 0,-1 0,-1l0 0 0 0 0 0 0 0 0 -1 0 0 0 0 0 -1c2,-4 6,-8 11,-8l1 0zm21 -4c2,-1 4,-2 5,-2l13 0c6,0 11,6 11,12l0 7 -23 0 0 -1c0,0 0,-1 0,-1l0 0c0,0 0,0 0,0l0 0c0,0 0,0 0,-1l0 0 0 0 0 0 0 0 0 0 0 0 0 -1 0 0 0 0 0 0 0 0 0 0 0 0 0 0 0 -1 0 0 0 0 0 0 0 0 0 0 0 0 0 -1 0 0 0 0 0 0c-2,-4 -5,-7 -9,-9 1,-1 2,-1 3,-2zm-61 20l25 0 0 4c0,1 1,2 2,2l38 0c1,0 2,-1 2,-2l0 -4 25 0c1,0 1,-1 1,-2l0 -8c0,-8 -6,-15 -14,-15l-12 0c-3,0 -6,1 -8,2 -2,1 -3,3 -4,4 -1,0 -2,0 -3,0l-12 0c-1,0 -2,0 -3,0 -1,-1 -3,-3 -4,-4 -3,-1 -5,-2 -8,-2l-12 0c-8,0 -15,7 -15,15l0 8c0,1 1,2 2,2zm73 -27c6,0 11,-5 11,-12 0,-6 -5,-11 -11,-11 -7,0 -12,5 -12,11 0,3 2,6 4,8 2,2 5,4 8,4z"/>
  <polygon class="fil4" points="626,202 632,218 638,202 642,202 642,222 639,222 639,214 639,206 633,222 631,222 625,206 625,214 625,222 622,222 622,202 "/>
  <path id="1" class="fil4" d="M655 222c0,-1 0,-1 0,-2 -2,1 -3,2 -5,2 -1,0 -2,0 -3,-1 -1,-1 -2,-2 -2,-3 0,-2 1,-3 2,-4 1,-1 3,-1 5,-1l3 0 0 -1c0,-1 -1,-2 -1,-2 -1,-1 -2,-1 -3,-1 0,0 -1,0 -2,1 0,0 -1,1 -1,1l-2 0c0,-1 0,-1 1,-2 0,-1 1,-1 2,-2 1,0 2,0 3,0 1,0 3,0 4,1 0,1 1,2 1,4l0 6c0,2 0,3 1,3l0 1 -3 0zm-4 -2c1,0 1,0 2,-1 1,0 1,-1 2,-1l0 -3 -2 0c-3,0 -5,1 -5,2 0,1 0,2 1,2 0,1 1,1 2,1z"/>
  <path id="2" class="fil4" d="M667 220c1,0 1,0 2,-1 1,0 1,-1 1,-2l3 0c-1,1 -1,2 -1,2 -1,1 -2,2 -2,2 -1,1 -2,1 -3,1 -2,0 -4,-1 -5,-2 -1,-1 -2,-3 -2,-5l0 -1c0,-1 1,-3 1,-4 1,-1 1,-2 2,-2 1,-1 2,-1 4,-1 1,0 3,0 4,1 1,1 1,3 2,4l-3 0c0,-1 0,-2 -1,-2 -1,-1 -1,-1 -2,-1 -2,0 -3,0 -3,1 -1,1 -1,2 -1,4l0 1c0,1 0,3 1,4 0,0 1,1 3,1z"/>
  <path id="3" class="fil4" d="M678 209c1,-1 2,-2 4,-2 3,0 5,2 5,5l0 10 -3 0 0 -10c0,-1 0,-2 0,-2 -1,-1 -2,-1 -3,-1 0,0 -1,0 -2,1 0,0 -1,1 -1,1l0 11 -3 0 0 -21 3 0 0 8z"/>
  <path id="4" class="fil4" d="M693 222l-2 0 0 -15 2 0 0 15zm-2 -19c0,0 0,0 0,-1 0,0 1,0 1,0 0,0 1,0 1,0 0,1 0,1 0,1 0,1 0,1 0,1 0,1 -1,1 -1,1 0,0 -1,0 -1,-1 0,0 0,0 0,-1z"/>
  <path id="5" class="fil4" d="M700 207l0 2c1,-1 2,-2 4,-2 3,0 5,2 5,5l0 10 -3 0 0 -10c0,-1 0,-2 -1,-2 0,-1 -1,-1 -2,-1 -1,0 -1,0 -2,1 0,0 -1,1 -1,1l0 11 -3 0 0 -15 3 0z"/>
  <path id="6" class="fil4" d="M718 222c-2,0 -3,-1 -4,-2 -2,-1 -2,-3 -2,-5l0 -1c0,-1 0,-2 1,-4 0,-1 1,-2 2,-2 1,-1 2,-1 3,-1 2,0 3,0 5,2 1,1 1,3 1,5l0 1 -10 0c0,2 1,3 2,4 0,0 1,1 3,1 0,0 1,0 2,-1 0,0 1,0 1,-1l2 1c-1,2 -3,3 -6,3zm0 -13c-1,0 -2,0 -2,1 -1,1 -2,2 -2,3l8 0 0 0c0,-1 -1,-2 -1,-3 -1,-1 -2,-1 -3,-1z"/>
  <polygon id="7" class="fil4" points="624,244 634,244 634,246 622,246 622,227 624,227 "/>
  <path id="8" class="fil4" d="M642 247c-2,0 -3,-1 -5,-2 -1,-1 -2,-3 -2,-5l0 -1c0,-1 1,-3 1,-4 1,-1 2,-2 3,-2 1,-1 2,-1 3,-1 2,0 3,0 4,2 1,1 2,3 2,5l0 1 -10 0c0,1 0,3 1,3 1,1 2,2 3,2 1,0 2,0 3,-1 0,0 1,-1 1,-1l2 1c-2,2 -3,3 -6,3zm0 -13c-1,0 -2,0 -3,1 0,1 -1,2 -1,3l7 0 0 0c0,-2 0,-3 -1,-3 0,-1 -1,-1 -2,-1z"/>
  <path id="9" class="fil4" d="M660 246c0,0 -1,0 -1,-1 -1,1 -2,2 -4,2 -1,0 -2,-1 -3,-1 -1,-1 -2,-2 -2,-4 0,-1 1,-2 2,-3 1,-1 3,-1 5,-1l2 0 0 -1c0,-1 0,-2 0,-3 -1,0 -2,0 -3,0 -1,0 -1,0 -2,0 -1,1 -1,1 -1,2l-2 0c0,-1 0,-1 0,-2 1,-1 2,-1 2,-2 1,0 2,0 3,0 2,0 3,0 4,1 1,1 2,2 2,3l0 7c0,1 0,2 0,3l0 0 -2 0zm-4 -1c0,0 1,-1 2,-1 0,0 1,-1 1,-2l0 -3 -2 0c-3,0 -4,1 -4,3 0,1 0,2 1,2 0,0 1,1 2,1z"/>
  <path id="10" class="fil4" d="M673 234c-1,0 -1,0 -1,0 -2,0 -3,1 -4,2l0 10 -2 0 0 -14 2 0 0 2c1,-2 2,-2 4,-2 0,0 0,0 1,0l0 2z"/>
  <path id="11" class="fil4" d="M677 232l0 2c2,-2 3,-2 5,-2 3,0 4,1 4,5l0 9 -2 0 0 -9c0,-1 0,-2 -1,-2 0,-1 -1,-1 -2,-1 -1,0 -1,0 -2,0 -1,1 -1,1 -1,2l0 10 -3 0 0 -14 2 0z"/>
  <path id="12" class="fil4" d="M693 246l-3 0 0 -14 3 0 0 14zm-3 -18c0,0 0,-1 1,-1 0,0 0,0 1,0 0,0 1,0 1,0 0,0 0,1 0,1 0,0 0,1 0,1 0,0 -1,0 -1,0 -1,0 -1,0 -1,0 -1,0 -1,-1 -1,-1z"/>
  <path id="13" class="fil4" d="M699 232l0 2c1,-2 3,-2 5,-2 3,0 4,1 4,5l0 9 -2 0 0 -9c0,-1 0,-2 -1,-2 0,-1 -1,-1 -2,-1 -1,0 -2,0 -2,0 -1,1 -1,1 -2,2l0 10 -2 0 0 -14 2 0z"/>
  <path id="14" class="fil4" d="M712 239c0,-2 0,-4 1,-5 1,-2 3,-2 4,-2 2,0 3,0 4,2l1 -2 2 0 0 14c0,2 -1,4 -2,5 -1,1 -2,1 -4,1 -1,0 -2,0 -3,0 -1,-1 -2,-2 -3,-2l2 -2c1,2 2,2 3,2 2,0 3,0 3,-1 1,-1 1,-1 1,-3l0 -1c-1,1 -2,2 -4,2 -1,0 -3,-1 -4,-2 -1,-2 -1,-4 -1,-6zm2 0c0,2 0,3 1,4 1,1 2,2 3,2 1,0 3,-1 3,-2l0 -7c0,-2 -2,-2 -3,-2 -1,0 -2,0 -3,1 -1,1 -1,3 -1,4z"/>
  <g>
   <path class="fil7" d="M485 686l47 16 -2 4 -46 -15 1 -5zm16 -7l-8 27 -32 -25 40 -2z"/>
  </g>
  <g>
   <path class="fil7" d="M286 622l67 22 -1 4 -68 -22 2 -4zm16 -8l-9 27 -32 -25 41 -2z"/>
  </g>
  <g>
   <path class="fil7" d="M435 418l42 58 -4 3 -42 -58 4 -3zm17 4l-23 17 -10 -39 33 22z"/>
  </g>
  <g>
   <path class="fil7" d="M859 692l-43 14 -2 -4 44 -15 1 5zm-8 15l-9 -27 40 2 -31 25z"/>
  </g>
  <g>
   <path class="fil7" d="M1061 626l-67 22 -2 -5 68 -22 1 5zm-8 15l-9 -27 40 2 -31 25z"/>
  </g>
  <g>
   <path class="fil7" d="M914 421l-41 58 -4 -3 41 -58 4 3zm2 18l-23 -17 34 -22 -11 39z"/>
  </g>
  <g>
   <path class="fil7" d="M675 554l0 47 -4 0 0 -47 4 0zm12 13l-28 0 14 -38 14 38z"/>
  </g>
  <g>
   <path class="fil7" d="M675 342l0 71 -4 0 0 -71 4 0zm12 13l-28 0 14 -38 14 38z"/>
  </g>
  <path class="fil5" d="M599 792l0 -19 5 0c2,0 3,0 5,1 1,0 2,1 3,3 0,1 1,3 1,5l0 1c0,2 -1,3 -1,5 -1,1 -2,2 -3,3 -2,1 -3,1 -5,1l-5 0zm2 -17l0 15 3 0c2,0 3,-1 5,-2 1,-1 1,-3 1,-5l0 -1c0,-3 0,-4 -1,-5 -1,-2 -3,-2 -5,-2l-3 0z"/>
  <path id="1" class="fil5" d="M629 787l-8 0 -2 5 -3 0 8 -19 2 0 7 19 -2 0 -2 -5zm-8 -2l7 0 -3 -9 -4 9z"/>
  <polygon id="2" class="fil5" points="649,775 643,775 643,792 641,792 641,775 634,775 634,773 649,773 "/>
  <path id="3" class="fil5" d="M664 787l-8 0 -2 5 -3 0 8 -19 2 0 7 19 -2 0 -2 -5zm-8 -2l7 0 -3 -9 -4 9z"/>
  <polygon id="4" class="fil5" points="682,790 691,790 691,792 679,792 679,773 682,773 "/>
  <path id="5" class="fil5" d="M707 787l-8 0 -2 5 -3 0 8 -19 2 0 7 19 -2 0 -2 -5zm-7 -2l6 0 -3 -9 -3 9z"/>
  <polygon id="6" class="fil5" points="721,783 718,786 718,792 716,792 716,773 718,773 718,782 727,773 730,773 722,781 731,792 728,792 "/>
  <polygon id="7" class="fil5" points="746,783 737,783 737,790 747,790 747,792 735,792 735,773 747,773 747,775 737,775 737,781 746,781 "/>
  <g id="database.eps">
   <path class="fil0" d="M698 643c-1,-5 -10,-9 -25,-9 -15,0 -24,4 -25,9 0,0 0,0 0,0l0 38c0,0 0,0 0,0 1,5 12,9 25,9 13,0 24,-4 25,-9 0,0 0,0 0,0l0 -38c0,0 0,0 0,0zm-2 25c0,0 0,1 0,1 0,0 0,0 0,0 0,0 0,0 0,0 0,0 -1,1 -1,1 0,0 0,0 0,0 0,0 0,0 0,0 0,0 -1,1 -1,1 0,0 0,0 0,0 0,0 0,0 -1,0 0,0 0,0 0,1 0,0 -1,0 -1,0 0,0 0,0 0,0 0,0 -1,0 -1,1 0,0 0,0 0,0 -3,1 -6,1 -9,2 0,0 0,0 0,0 -1,0 -1,0 -2,0 0,0 0,0 0,0 -1,0 -2,0 -2,0 -1,0 -1,0 -1,0 -1,0 -1,0 -2,0 0,0 -1,0 -2,0 -1,0 -2,0 -3,0 0,0 -1,0 -1,0 0,0 -1,0 -1,0 -1,0 -1,0 -2,0 0,0 0,0 0,0 -1,0 -2,0 -2,0 0,0 0,0 0,0 -4,-1 -7,-1 -9,-2 0,0 0,0 0,0 0,-1 -1,-1 -1,-1 0,0 0,0 0,0 -1,0 -1,0 -1,-1 0,0 0,0 0,0 -1,0 -1,0 -1,0 0,0 0,0 0,0 -1,0 -1,-1 -1,-1 0,0 0,0 0,0 0,0 -1,0 -1,0 0,0 0,-1 0,-1 0,0 0,0 0,0 0,0 0,0 0,0 0,0 0,-1 0,-1 0,0 0,0 0,0 0,0 0,0 0,0 0,-1 0,-1 0,-1l0 -7c0,0 0,0 0,0 0,0 0,0 0,0 4,3 12,5 23,5 11,0 19,-2 22,-5 1,0 1,0 1,0l0 7c0,0 0,0 0,1 0,0 0,0 0,0 0,0 0,0 0,0zm0 -21l0 8c0,0 0,0 0,0 0,0 0,1 0,1 0,0 0,0 0,0 0,0 0,0 0,1 0,0 0,0 0,0 0,0 0,0 0,0 0,0 -1,0 -1,0 0,1 0,1 0,1 0,0 0,0 0,0 0,0 -1,0 -1,1 0,0 0,0 0,0 0,0 0,0 -1,0 0,0 0,0 0,0 0,1 -1,1 -1,1 0,0 0,0 0,0 0,0 -1,0 -1,0 0,0 0,0 0,0 -3,1 -6,2 -9,3 0,0 0,0 0,0 -1,0 -1,0 -2,0 0,0 0,0 0,0 -1,0 -2,0 -2,0 -1,0 -1,0 -1,0 -1,0 -1,0 -2,0 0,0 -1,0 -2,0 -1,0 -2,0 -3,0 0,0 -1,0 -1,0 0,0 -1,0 -1,0 -1,0 -1,0 -2,0 0,0 0,0 0,0 -1,0 -2,0 -2,0 0,0 0,0 0,0 -4,-1 -7,-2 -9,-3 0,0 0,0 0,0 0,0 -1,0 -1,0 0,0 0,0 0,0 -1,0 -1,0 -1,-1 0,0 0,0 0,0 -1,0 -1,0 -1,0 0,0 0,0 0,0 -1,-1 -1,-1 -1,-1 0,0 0,0 0,0 0,0 -1,0 -1,-1 0,0 0,0 0,0 0,0 0,0 0,0 0,0 0,0 0,0 0,-1 0,-1 0,-1 0,0 0,0 0,0 0,0 0,-1 0,-1 0,0 0,0 0,0l0 -8c0,0 0,1 0,1 0,0 0,0 0,0 0,0 1,0 1,1 0,0 0,0 0,0 1,0 1,0 1,0 0,0 1,0 1,0 0,1 0,1 1,1 0,0 0,0 0,0 1,0 1,0 2,1 0,0 0,0 0,0 0,0 1,0 1,0 0,0 1,0 1,0 0,1 1,1 2,1 0,0 0,0 0,0 1,0 1,0 2,0 0,0 0,0 0,0 1,0 1,1 2,1 0,0 0,0 1,0 0,0 1,0 2,0 0,0 0,0 0,0 1,0 2,0 2,0 1,0 1,0 1,0 1,0 2,0 3,0 1,0 2,0 3,0 0,0 0,0 0,0 1,0 2,0 2,0 0,0 1,0 1,0 1,0 1,0 2,0 0,0 1,0 1,0 0,0 1,-1 1,-1 1,0 1,0 1,0 1,0 1,0 2,0 0,0 0,0 0,0 1,0 1,0 2,-1 0,0 0,0 0,0 1,0 1,0 2,0 0,0 0,0 0,0 1,-1 1,-1 2,-1 0,0 0,0 0,0 0,0 1,0 1,-1 0,0 0,0 0,0 1,0 1,0 1,0 0,0 1,0 1,0 0,-1 0,-1 1,-1 0,0 0,0 0,0 0,0 0,-1 0,-1zm-23 -11c14,0 23,4 23,8 0,3 -9,7 -23,7 -14,0 -23,-4 -23,-7 0,-4 9,-8 23,-8zm23 44c0,0 0,0 0,0 0,4 -10,8 -23,8 -13,0 -23,-4 -23,-8 0,0 0,0 0,0l0 -8c0,0 0,0 0,0 0,0 0,0 0,0 4,3 12,5 23,5 11,0 19,-2 22,-5 1,0 1,0 1,0l0 8z"/>
  </g>
 </g>
</svg>
