<?xml version="1.0" encoding="UTF-8"?>
<!DOCTYPE svg PUBLIC "-//W3C//DTD SVG 1.1//EN" "http://www.w3.org/Graphics/SVG/1.1/DTD/svg11.dtd">
<!-- Creator: CorelDRAW X7 -->
<svg xmlns="http://www.w3.org/2000/svg" xml:space="preserve" width="1200px" height="1020px" version="1.1" style="shape-rendering:geometricPrecision; text-rendering:geometricPrecision; image-rendering:optimizeQuality; fill-rule:evenodd; clip-rule:evenodd"
viewBox="0 0 925 786"
 xmlns:xlink="http://www.w3.org/1999/xlink">
 <defs>
  <style type="text/css">
   <![CDATA[
    .str0 {stroke:#B3B3B3;stroke-width:2.6251;stroke-linecap:round;stroke-linejoin:round;stroke-dasharray:5.250209 13.125523}
    .fil1 {fill:none}
    .fil3 {fill:#32145A}
    .fil7 {fill:#5C2D91}
    .fil0 {fill:white}
    .fil2 {fill:#32145A;fill-rule:nonzero}
    .fil5 {fill:#4F4F4F;fill-rule:nonzero}
    .fil6 {fill:#B4A0FF;fill-rule:nonzero}
    .fil4 {fill:white;fill-rule:nonzero}
   ]]>
  </style>
 </defs>
 <g id="Camada_x0020_1">
  <metadata id="CorelCorpID_0Corel-Layer"/>
  <rect class="fil0" width="925" height="776"/>
  <path class="fil1 str0" d="M585 559l154 227m-154 -232c48,-35 77,-92 77,-152 0,-61 -29,-117 -77,-153m0 0l154 -228"/>
  <path class="fil2" d="M715 132l-6 0 -1 4 -2 0 5 -14 2 0 5 14 -2 0 -1 -4zm-5 -1l4 0 -2 -7 -2 7z"/>
  <path id="1" class="fil2" d="M721 126l0 1c1,-1 2,-2 3,-2 2,0 3,2 4,4l0 7 -2 0 0 -7c0,-1 0,-1 -1,-2 0,0 -1,0 -1,0 -1,0 -1,0 -2,0 0,1 0,1 -1,2l0 7 -1 0 0 -10 1 0z"/>
  <path id="2" class="fil2" d="M736 136c0,0 0,-1 0,-1 -1,1 -2,1 -3,1 -1,0 -2,0 -2,-1 -1,0 -1,-1 -1,-2 0,-1 0,-2 1,-2 1,-1 2,-1 3,-1l2 0 0 -1c0,-1 0,-1 0,-2 -1,0 -1,0 -2,0 -1,0 -1,0 -2,0 0,1 0,1 0,1l-2 0c0,0 0,-1 1,-1 0,0 0,-1 1,-1 1,0 1,-1 2,-1 1,0 2,1 3,1 0,1 1,2 1,3l0 4c0,1 0,2 0,3l0 0 -2 0zm-2 -2c0,0 1,0 1,0 1,0 1,-1 1,-1l0 -2 -1 0c-2,0 -3,0 -3,2 0,0 0,1 0,1 0,0 1,0 2,0z"/>
  <polygon id="3" class="fil2" points="742,136 741,136 741,121 742,121 "/>
  <path id="4" class="fil2" d="M747 136l-2 0 0 -10 2 0 0 10zm-2 -13c0,0 0,-1 0,-1 1,0 1,0 1,0 1,0 1,0 1,0 0,0 0,1 0,1 0,0 0,0 0,1 0,0 0,0 -1,0 0,0 0,0 -1,0 0,-1 0,-1 0,-1z"/>
  <path id="5" class="fil2" d="M756 133c0,0 0,-1 -1,-1 0,0 -1,0 -2,-1 0,0 -1,0 -2,0 0,-1 -1,-1 -1,-1 0,-1 0,-1 0,-2 0,0 0,-1 1,-2 1,0 1,-1 3,-1 1,0 2,1 2,1 1,1 1,2 1,3l-1 0c0,-1 -1,-1 -1,-2 0,0 -1,0 -1,0 -1,0 -2,0 -2,0 0,1 0,1 0,1 0,1 0,1 0,1 0,1 1,1 2,1 1,0 1,0 2,1 0,0 1,0 1,1 0,0 0,0 0,1 0,1 0,2 -1,2 0,1 -1,1 -2,1 -1,0 -2,0 -3,0 0,-1 -1,-1 -1,-2 0,0 -1,-1 -1,-1l2 0c0,0 0,1 1,1 0,0 1,1 2,1 0,0 1,-1 1,-1 1,0 1,0 1,-1z"/>
  <path id="6" class="fil2" d="M762 123l0 3 2 0 0 1 -2 0 0 6c0,1 0,1 0,1 1,0 1,0 1,0 0,0 1,0 1,0l0 2c0,0 -1,0 -1,0 -1,0 -2,0 -2,-1 0,0 -1,-1 -1,-2l0 -6 -1 0 0 -1 1 0 0 -3 2 0z"/>
  <path id="7" class="fil2" d="M772 136c0,0 0,-1 0,-1 -1,1 -2,1 -3,1 -1,0 -2,0 -2,-1 -1,0 -1,-1 -1,-2 0,-1 0,-2 1,-2 1,-1 2,-1 3,-1l2 0 0 -1c0,-1 0,-1 -1,-2 0,0 0,0 -1,0 -1,0 -1,0 -2,0 0,1 0,1 0,1l-2 0c0,0 0,-1 0,-1 1,0 1,-1 2,-1 1,0 1,-1 2,-1 1,0 2,1 3,1 0,1 1,2 1,3l0 4c0,1 0,2 0,3l0 0 -2 0zm-3 -2c1,0 1,0 2,0 0,0 1,-1 1,-1l0 -2 -1 0c-2,0 -4,0 -4,2 0,0 1,1 1,1 0,0 1,0 1,0z"/>
  <path id="8" class="fil2" d="M702 148c0,-2 1,-3 2,-4 0,-1 1,-1 2,-1 2,0 3,0 3,1l0 -5 2 0 0 14 -2 0 0 -1c0,1 -1,1 -3,1 -1,0 -2,0 -2,-1 -1,-1 -2,-2 -2,-4l0 0zm2 0c0,1 0,2 1,3 0,0 1,1 2,1 1,0 2,-1 2,-2l0 -4c0,-1 -1,-2 -2,-2 -1,0 -2,0 -2,1 -1,1 -1,2 -1,3z"/>
  <path id="9" class="fil2" d="M718 153c-1,0 -3,0 -3,-1 -1,-1 -2,-2 -2,-4l0 0c0,-1 0,-2 1,-3 0,-1 1,-1 1,-2 1,0 2,0 3,0 1,0 2,0 3,1 1,1 1,2 1,4l0 0 -7 0c0,1 0,2 1,3 0,0 1,1 2,1 1,0 1,0 2,-1 0,0 0,0 1,-1l1 1c-1,2 -2,2 -4,2zm0 -9c-1,0 -2,0 -2,1 -1,0 -1,1 -1,2l5 0 0 0c0,-1 0,-2 -1,-2 0,-1 -1,-1 -1,-1z"/>
  <path id="10" class="fil2" d="M727 148c0,-2 1,-3 1,-4 1,-1 2,-1 3,-1 1,0 2,0 3,1l0 -5 2 0 0 14 -2 0 0 -1c-1,1 -2,1 -3,1 -1,0 -2,0 -3,-1 0,-1 -1,-2 -1,-4l0 0zm2 0c0,1 0,2 1,3 0,0 1,1 2,1 1,0 2,-1 2,-2l0 -4c0,-1 -1,-2 -2,-2 -1,0 -2,0 -2,1 -1,1 -1,2 -1,3z"/>
  <path id="11" class="fil2" d="M745 153c0,0 0,-1 0,-1 -1,1 -2,1 -3,1 -1,0 -2,0 -3,-1 0,0 -1,-1 -1,-2 0,-1 1,-2 1,-2 1,-1 2,-1 4,-1l1 0 0 -1c0,-1 0,-1 0,-1 0,-1 -1,-1 -2,-1 0,0 -1,0 -1,1 -1,0 -1,0 -1,1l-2 0c0,-1 1,-1 1,-2 0,0 1,-1 1,-1 1,0 2,0 2,0 2,0 3,0 3,1 1,0 1,1 1,2l0 5c0,1 0,1 1,2l0 0 -2 0zm-3 -1c0,0 1,0 1,-1 1,0 1,0 1,-1l0 -2 -1 0c-2,0 -3,1 -3,2 0,1 0,1 0,1 1,1 1,1 2,1z"/>
  <path id="12" class="fil2" d="M748 148c0,-2 1,-3 2,-4 0,-1 1,-1 2,-1 2,0 3,0 3,1l0 -5 2 0 0 14 -2 0 0 -1c0,1 -1,1 -3,1 -1,0 -2,0 -2,-1 -1,-1 -2,-2 -2,-4l0 0zm2 0c0,1 0,2 1,3 0,0 1,1 2,1 1,0 2,-1 2,-2l0 -4c0,-1 -1,-2 -2,-2 -1,0 -2,0 -2,1 -1,1 -1,2 -1,3z"/>
  <path id="13" class="fil2" d="M759 148c0,-1 0,-2 1,-3 0,-1 1,-1 1,-2 1,0 2,0 3,0 1,0 2,0 3,1 1,1 1,2 1,4l0 0c0,1 0,2 0,3 0,0 -1,1 -2,2 0,0 -1,0 -2,0 -1,0 -3,0 -3,-1 -1,-1 -2,-2 -2,-4l0 0zm2 0c0,1 0,2 1,3 0,0 1,1 2,1 1,0 1,-1 2,-1 0,-1 1,-2 1,-3 0,-1 -1,-2 -1,-3 -1,-1 -1,-1 -2,-1 -1,0 -2,0 -2,1 -1,1 -1,2 -1,3z"/>
  <path id="14" class="fil2" d="M777 150c0,0 -1,-1 -1,-1 0,0 -1,0 -2,0 -1,-1 -1,-1 -2,-1 0,0 -1,-1 -1,-1 0,0 0,-1 0,-1 0,-1 0,-2 1,-2 0,-1 1,-1 2,-1 1,0 2,0 3,1 1,0 1,1 1,2l-2 0c0,-1 0,-1 0,-1 -1,-1 -1,-1 -2,-1 0,0 -1,0 -1,1 0,0 -1,0 -1,1 0,0 0,0 1,1 0,0 1,0 2,0 0,0 1,1 2,1 0,0 1,0 1,1 0,0 0,1 0,1 0,1 0,2 -1,2 -1,1 -1,1 -3,1 0,0 -1,0 -2,0 0,-1 -1,-1 -1,-1 -1,-1 -1,-2 -1,-2l2 0c0,0 0,1 1,1 0,1 1,1 1,1 1,0 2,0 2,-1 0,0 1,0 1,-1z"/>
  <path class="fil2" d="M783 228c0,1 0,2 -1,3 -1,1 -2,1 -4,1 -1,0 -3,0 -4,-1 -1,-2 -1,-3 -1,-5l0 -1c0,-2 0,-3 1,-4 0,-1 1,-1 1,-2 1,0 2,-1 3,-1 2,0 3,1 4,1 1,1 1,2 1,4l-1 0c-1,-1 -1,-2 -1,-3 -1,0 -2,0 -3,0 -1,0 -2,0 -2,1 -1,1 -1,2 -1,4l0 1c0,1 0,3 1,3 0,1 1,2 2,2 1,0 2,0 2,-1 1,0 1,-1 2,-2l1 0z"/>
  <path id="1" class="fil2" d="M787 232l-1 0 0 -10 1 0 0 10zm-1 -13c0,0 0,0 0,0 0,-1 0,-1 1,-1 0,0 0,0 0,1 0,0 1,0 1,0 0,1 -1,1 -1,1 0,0 0,0 0,0 -1,0 -1,0 -1,0 0,0 0,0 0,-1z"/>
  <path id="2" class="fil2" d="M794 232c-1,0 -2,0 -3,-1 -1,-1 -1,-2 -1,-4l0 0c0,-1 0,-2 0,-3 1,0 1,-1 2,-2 1,0 1,0 2,0 1,0 2,0 3,1 1,1 1,2 1,4l0 1 -7 0c0,1 1,1 1,2 1,1 2,1 2,1 1,0 2,0 2,-1 0,0 1,0 1,-1l1 1c-1,2 -2,2 -4,2zm0 -9c-1,0 -1,0 -2,1 0,0 0,1 0,2l5 0 0 0c0,-1 -1,-2 -1,-2 -1,-1 -1,-1 -2,-1z"/>
  <path id="3" class="fil2" d="M802 222l0 1c1,-1 2,-1 3,-1 2,0 3,1 3,3l0 7 -1 0 0 -7c0,0 -1,-1 -1,-1 0,-1 -1,-1 -1,-1 -1,0 -2,0 -2,1 0,0 -1,0 -1,1l0 7 -2 0 0 -10 2 0z"/>
  <path id="4" class="fil2" d="M813 220l0 2 2 0 0 1 -2 0 0 7c0,0 0,0 1,0 0,1 0,1 0,1 1,0 1,0 1,0l0 1c0,0 -1,0 -1,0 -1,0 -1,0 -2,0 0,-1 0,-2 0,-2l0 -7 -2 0 0 -1 2 0 0 -2 1 0z"/>
  <path id="5" class="fil2" d="M819 232l-2 0 0 -10 2 0 0 10zm-2 -13c0,0 0,0 0,0 1,-1 1,-1 1,-1 1,0 1,0 1,1 0,0 0,0 0,0 0,1 0,1 0,1 0,0 0,0 -1,0 0,0 0,0 -1,0 0,0 0,0 0,-1z"/>
  <path id="6" class="fil2" d="M828 229c0,0 0,0 -1,-1 0,0 -1,0 -2,0 -1,-1 -1,-1 -2,-1 0,0 -1,-1 -1,-1 0,0 0,-1 0,-1 0,-1 0,-2 1,-2 0,-1 1,-1 2,-1 2,0 3,0 3,1 1,0 1,1 1,2l-1 0c0,-1 -1,-1 -1,-1 0,-1 -1,-1 -2,-1 0,0 -1,0 -1,1 0,0 -1,0 -1,1 0,0 1,0 1,1 0,0 1,0 2,0 1,0 1,1 2,1 0,0 1,1 1,1 0,0 0,1 0,1 0,1 0,2 -1,2 0,1 -1,1 -2,1 -1,0 -2,0 -3,0 0,0 -1,-1 -1,-1 0,-1 -1,-1 -1,-2l2 0c0,1 0,1 1,1 0,1 1,1 2,1 0,0 1,0 1,-1 1,0 1,0 1,-1z"/>
  <path id="7" class="fil2" d="M834 220l0 2 2 0 0 1 -2 0 0 7c0,0 0,0 0,0 0,1 1,1 1,1 0,0 1,0 1,0l0 1c0,0 -1,0 -1,0 -1,0 -2,0 -2,0 0,-1 -1,-2 -1,-2l0 -7 -2 0 0 -1 2 0 0 -2 2 0z"/>
  <path id="8" class="fil2" d="M844 232c0,0 0,0 0,-1 -1,1 -2,1 -3,1 -1,0 -2,0 -2,-1 -1,0 -1,-1 -1,-2 0,-1 0,-2 1,-2 1,-1 2,-1 3,-1l2 0 0 -1c0,0 0,-1 -1,-1 0,-1 0,-1 -1,-1 -1,0 -1,0 -2,1 0,0 0,0 0,1l-2 0c0,-1 0,-1 0,-2 1,0 1,-1 2,-1 0,0 1,0 2,0 1,0 2,0 3,1 0,0 1,1 1,2l0 5c0,1 0,1 0,2l0 0 -2 0zm-3 -1c1,0 1,0 2,-1 0,0 1,0 1,-1l0 -2 -1 0c-3,0 -4,1 -4,2 0,1 1,1 1,1 0,1 1,1 1,1z"/>
  <path id="9" class="fil2" d="M771 244c0,-1 1,-3 2,-4 0,-1 1,-1 2,-1 2,0 3,0 3,1l0 -5 2 0 0 14 -2 0 0 -1c0,1 -1,2 -3,2 -1,0 -2,-1 -2,-2 -1,-1 -2,-2 -2,-4l0 0zm2 0c0,2 0,2 1,3 0,1 1,1 2,1 1,0 2,0 2,-1l0 -5c0,-1 -1,-2 -2,-2 -1,0 -2,1 -2,1 -1,1 -1,2 -1,3z"/>
  <path id="10" class="fil2" d="M787 250c-1,0 -3,-1 -3,-2 -1,-1 -2,-2 -2,-3l0 -1c0,-1 0,-2 1,-2 0,-1 1,-2 1,-2 1,-1 2,-1 3,-1 1,0 2,0 3,1 0,1 1,2 1,4l0 1 -7 0c0,1 0,2 1,2 0,1 1,1 2,1 1,0 1,0 2,0 0,-1 0,-1 1,-1l1 1c-1,1 -2,2 -4,2zm0 -10c-1,0 -2,1 -2,1 -1,1 -1,1 -1,2l5 0 0 0c0,-1 0,-1 -1,-2 0,0 -1,-1 -1,-1z"/>
  <path id="11" class="fil2" d="M796 244c0,-1 1,-3 1,-4 1,-1 2,-1 3,-1 1,0 2,0 3,1l0 -5 2 0 0 14 -2 0 0 -1c-1,1 -2,2 -3,2 -1,0 -2,-1 -3,-2 0,-1 -1,-2 -1,-4l0 0zm2 0c0,2 0,2 1,3 0,1 1,1 2,1 1,0 2,0 2,-1l0 -5c0,-1 -1,-2 -2,-2 -1,0 -2,1 -2,1 -1,1 -1,2 -1,3z"/>
  <path id="12" class="fil2" d="M814 249c0,0 0,0 -1,-1 0,1 -1,2 -2,2 -1,0 -2,-1 -3,-1 0,-1 -1,-2 -1,-2 0,-2 1,-2 1,-3 1,-1 2,-1 4,-1l1 0 0 -1c0,0 0,-1 0,-1 0,0 -1,-1 -2,-1 0,0 -1,1 -1,1 -1,0 -1,1 -1,1l-2 0c0,-1 1,-1 1,-1 0,-1 1,-1 1,-2 1,0 2,0 2,0 2,0 2,0 3,1 1,0 1,1 1,2l0 5c0,1 0,2 1,2l0 0 -2 0zm-3 -1c0,0 1,0 1,0 1,-1 1,-1 1,-1l0 -3 -1 0c-2,0 -3,1 -3,2 0,1 0,1 0,2 1,0 1,0 2,0z"/>
  <path id="13" class="fil2" d="M817 244c0,-1 1,-3 2,-4 0,-1 1,-1 2,-1 2,0 3,0 3,1l0 -5 2 0 0 14 -2 0 0 -1c0,1 -1,2 -3,2 -1,0 -2,-1 -2,-2 -1,-1 -2,-2 -2,-4l0 0zm2 0c0,2 0,2 1,3 0,1 1,1 2,1 1,0 2,0 2,-1l0 -5c0,-1 -1,-2 -2,-2 -1,0 -2,1 -2,1 -1,1 -1,2 -1,3z"/>
  <path id="14" class="fil2" d="M828 244c0,-1 0,-2 1,-3 0,0 1,-1 1,-1 1,-1 2,-1 3,-1 1,0 2,0 3,1 1,1 1,3 1,4l0 0c0,1 0,2 0,3 0,1 -1,1 -2,2 0,0 -1,1 -2,1 -2,0 -3,-1 -3,-2 -1,-1 -2,-2 -2,-4l0 0zm2 0c0,1 0,2 1,3 0,1 1,1 2,1 1,0 1,0 2,-1 0,-1 1,-2 1,-3 0,-1 -1,-2 -1,-3 -1,0 -1,-1 -2,-1 -1,0 -2,1 -2,1 -1,1 -1,2 -1,3z"/>
  <path id="15" class="fil2" d="M846 247c0,-1 -1,-1 -1,-1 0,-1 -1,-1 -2,-1 -1,0 -1,-1 -2,-1 0,0 -1,0 -1,-1 0,0 0,-1 0,-1 0,-1 0,-2 1,-2 0,-1 1,-1 2,-1 1,0 2,0 3,1 1,0 1,1 1,2l-2 0c0,0 0,-1 0,-1 -1,0 -1,-1 -2,-1 0,0 -1,1 -1,1 -1,0 -1,0 -1,1 0,0 0,1 1,1 0,0 1,0 2,0 0,1 1,1 2,1 0,0 1,1 1,1 0,1 0,1 0,2 0,0 0,1 -1,2 -1,0 -1,1 -3,1 0,0 -1,-1 -2,-1 0,0 -1,-1 -1,-1 -1,-1 -1,-1 -1,-2l2 0c0,1 0,1 1,2 0,0 1,0 1,0 1,0 2,0 2,0 0,-1 1,-1 1,-1z"/>
  <path class="fil2" d="M800 453c-1,-1 -2,-1 -3,-2 -1,-1 -1,-1 -1,-2 0,-2 1,-2 1,-3 1,-1 2,-1 4,-1 1,0 1,0 2,0 1,1 2,1 2,2 0,1 1,1 1,2l-2 0c0,-1 -1,-2 -1,-2 -1,0 -1,-1 -2,-1 -1,0 -2,1 -2,1 -1,0 -1,1 -1,2 0,0 0,1 1,1 0,0 1,1 2,1 1,0 2,1 3,1 0,0 1,1 1,1 0,1 1,1 1,2 0,1 -1,2 -2,3 -1,1 -2,1 -3,1 -1,0 -2,0 -3,-1 -1,0 -1,-1 -2,-1 0,-1 0,-2 0,-2l1 0c0,1 1,1 1,2 1,0 2,0 3,0 1,0 1,0 2,0 0,-1 1,-1 1,-2 0,0 0,-1 -1,-1 0,-1 -1,-1 -3,-1z"/>
  <path id="1" class="fil2" d="M812 459c-2,0 -3,-1 -4,-2 -1,0 -1,-2 -1,-3l0 0c0,-1 0,-2 1,-3 0,-1 1,-2 1,-2 1,0 2,-1 2,-1 2,0 3,1 4,2 0,1 1,2 1,3l0 1 -7 0c0,1 0,2 1,3 0,0 1,0 2,0 0,0 1,0 1,0 1,0 1,-1 1,-1l1 1c0,1 -2,2 -3,2zm-1 -9c0,0 -1,0 -1,1 -1,0 -1,1 -1,2l5 0 0 0c0,-1 0,-2 -1,-3 0,0 -1,0 -2,0z"/>
  <polygon id="2" class="fil2" points="819,459 818,459 818,444 819,444 "/>
  <path id="3" class="fil2" d="M823 459l0 -9 -2 0 0 -1 2 0 0 -1c0,-2 0,-2 1,-3 0,-1 1,-1 2,-1 1,0 1,0 1,0l0 2c0,0 0,0 -1,0 0,0 -1,0 -1,0 0,0 0,1 0,1l0 2 2 0 0 1 -2 0 0 9 -2 0z"/>
  <polygon id="4" class="fil2" points="832,454 828,454 828,452 832,452 "/>
  <path id="5" class="fil2" d="M840 456c0,-1 -1,-1 -1,-1 0,0 -1,-1 -2,-1 -1,0 -1,0 -2,0 0,-1 -1,-1 -1,-1 0,-1 0,-1 0,-2 0,-1 0,-1 1,-2 0,0 1,-1 2,-1 1,0 2,1 3,1 1,1 1,2 1,3l-2 0c0,-1 0,-1 0,-2 -1,0 -1,0 -2,0 0,0 -1,0 -1,0 -1,0 -1,1 -1,1 0,1 0,1 1,1 0,0 1,1 2,1 0,0 1,0 2,0 0,1 1,1 1,1 0,1 0,1 0,2 0,1 0,1 -1,2 -1,1 -1,1 -3,1 0,0 -1,0 -2,-1 0,0 -1,0 -1,-1 -1,0 -1,-1 -1,-1l2 0c0,0 0,1 1,1 0,0 1,0 1,0 1,0 2,0 2,0 0,0 1,-1 1,-1z"/>
  <path id="6" class="fil2" d="M848 459c-2,0 -3,-1 -4,-2 -1,0 -1,-2 -1,-3l0 0c0,-1 0,-2 1,-3 0,-1 0,-2 1,-2 1,0 2,-1 2,-1 2,0 3,1 3,2 1,1 2,2 2,3l0 1 -7 0c0,1 0,2 1,3 0,0 1,0 2,0 0,0 1,0 1,0 1,0 1,-1 1,-1l1 1c0,1 -2,2 -3,2zm-1 -9c0,0 -1,0 -1,1 -1,0 -1,1 -1,2l5 0 0 0c0,-1 0,-2 -1,-3 0,0 -1,0 -2,0z"/>
  <path id="7" class="fil2" d="M858 450c0,0 0,0 -1,0 -1,0 -1,0 -2,1l0 8 -2 0 0 -10 2 0 0 1c1,-1 1,-2 3,-2 0,0 0,0 0,0l0 2z"/>
  <polygon id="8" class="fil2" points="863,456 866,449 868,449 864,459 863,459 859,449 861,449 "/>
  <path id="9" class="fil2" d="M871 459l-2 0 0 -10 2 0 0 10zm-2 -13c0,0 0,-1 0,-1 0,0 1,0 1,0 0,0 1,0 1,0 0,0 0,1 0,1 0,0 0,0 0,1 0,0 -1,0 -1,0 0,0 -1,0 -1,0 0,-1 0,-1 0,-1z"/>
  <path id="10" class="fil2" d="M878 457c0,0 1,0 1,0 1,-1 1,-1 1,-2l2 0c0,1 -1,2 -1,2 0,1 -1,1 -1,1 -1,1 -2,1 -2,1 -2,0 -3,-1 -4,-2 0,0 -1,-2 -1,-3l0 -1c0,-1 0,-1 1,-2 0,-1 1,-2 1,-2 1,0 2,-1 3,-1 1,0 2,1 2,1 1,1 2,2 2,3l-2 0c0,-1 0,-1 -1,-2 0,0 -1,0 -1,0 -1,0 -2,0 -2,1 -1,0 -1,1 -1,2l0 1c0,1 0,2 1,2 0,1 1,1 2,1z"/>
  <path id="11" class="fil2" d="M888 459c-2,0 -3,-1 -4,-2 -1,0 -1,-2 -1,-3l0 0c0,-1 0,-2 1,-3 0,-1 1,-2 1,-2 1,0 2,-1 2,-1 2,0 3,1 4,2 0,1 1,2 1,3l0 1 -7 0c0,1 0,2 1,3 0,0 1,0 2,0 0,0 1,0 1,0 1,0 1,-1 1,-1l1 1c0,1 -2,2 -3,2zm-1 -9c0,0 -1,0 -1,1 -1,0 -1,1 -1,2l5 0 0 0c0,-1 0,-2 -1,-3 0,0 -1,0 -2,0z"/>
  <path id="12" class="fil2" d="M837 483l0 -14 4 0c2,0 3,0 3,1 1,0 2,1 2,3 0,0 -1,1 -1,1 0,1 -1,1 -1,1 0,1 1,1 1,2 1,0 1,1 1,2 0,1 0,2 -1,2 -1,1 -2,2 -4,2l-4 0zm1 -7l0 5 3 0c1,0 2,0 2,-1 1,0 1,-1 1,-1 0,-2 -1,-3 -3,-3l-3 0zm0 -1l3 0c1,0 2,-1 2,-1 1,0 1,-1 1,-1 0,-1 0,-2 -1,-2 0,0 -1,-1 -2,-1l-3 0 0 5z"/>
  <polygon id="13" class="fil2" points="850,483 849,483 849,469 850,469 "/>
  <polygon class="fil2" points="807,331 803,331 803,343 801,343 801,331 797,331 797,329 807,329 "/>
  <path id="1" class="fil2" d="M808 338c0,-1 0,-2 0,-3 1,-1 1,-2 2,-2 0,0 1,-1 2,-1 2,0 3,1 3,2 1,1 2,2 2,4l0 0c0,1 0,2 -1,2 0,1 -1,2 -1,2 -1,1 -2,1 -3,1 -1,0 -2,-1 -3,-2 -1,0 -1,-2 -1,-3l0 0zm1 0c0,1 1,2 1,2 1,1 1,1 2,1 1,0 2,0 2,-1 1,0 1,-1 1,-2 0,-2 0,-2 -1,-3 0,-1 -1,-1 -2,-1 -1,0 -1,0 -2,1 0,1 -1,1 -1,3z"/>
  <path id="2" class="fil2" d="M821 333l0 1c0,-1 1,-2 3,-2 1,0 2,1 3,2 0,0 0,-1 1,-1 0,0 1,-1 2,-1 2,0 3,2 3,4l0 7 -2 0 0 -7c0,-1 0,-1 0,-2 0,0 -1,0 -2,0 0,0 -1,0 -1,0 -1,1 -1,1 -1,2l0 7 -2 0 0 -7c0,-1 -1,-2 -2,-2 -1,0 -2,0 -2,1l0 8 -2 0 0 -10 2 0z"/>
  <path id="3" class="fil2" d="M842 343c0,-1 0,-1 0,-1 -1,0 -2,1 -3,1 -1,0 -2,0 -3,-1 0,-1 -1,-1 -1,-2 0,-1 1,-2 2,-3 0,0 2,0 3,0l2 0 0 -1c0,-1 0,-1 -1,-2 0,0 -1,0 -1,0 -1,0 -2,0 -2,0 0,1 -1,1 -1,1l-1 0c0,0 0,-1 0,-1 1,-1 1,-1 2,-1 0,0 1,-1 2,-1 1,0 2,1 2,1 1,1 1,2 1,3l0 4c0,1 1,2 1,3l0 0 -2 0zm-3 -2c1,0 1,0 2,0 0,0 1,-1 1,-1l0 -2 -2 0c-2,0 -3,0 -3,2 0,0 0,1 1,1 0,0 1,0 1,0z"/>
  <path id="4" class="fil2" d="M846 338c0,-2 0,-3 1,-4 1,-1 2,-2 3,-2 1,0 2,1 3,2l0 -6 1 0 0 15 -1 0 0 -1c-1,0 -2,1 -3,1 -1,0 -2,-1 -3,-2 -1,-1 -1,-2 -1,-3l0 0zm1 0c0,1 1,2 1,2 1,1 1,1 2,1 1,0 2,0 3,-1l0 -5c-1,-1 -2,-1 -3,-1 -1,0 -1,0 -2,1 0,1 -1,1 -1,3z"/>
  <path id="5" class="fil2" d="M857 338c0,-1 0,-2 0,-3 0,-1 1,-2 2,-2 0,0 1,-1 2,-1 1,0 3,1 3,2 1,1 2,2 2,4l0 0c0,1 0,2 -1,2 0,1 -1,2 -1,2 -1,1 -2,1 -3,1 -1,0 -2,-1 -3,-2 -1,0 -1,-2 -1,-3l0 0zm1 0c0,1 1,2 1,2 1,1 1,1 2,1 1,0 2,0 2,-1 1,0 1,-1 1,-2 0,-2 0,-2 -1,-3 0,-1 -1,-1 -2,-1 -1,0 -1,0 -2,1 0,1 -1,1 -1,3z"/>
  <path id="6" class="fil2" d="M873 334c0,0 -1,0 -1,0 -1,0 -2,1 -2,2l0 7 -2 0 0 -10 2 0 0 1c0,-1 1,-2 2,-2 0,0 1,0 1,1l0 1z"/>
  <path id="7" class="fil2" d="M878 343c-1,0 -2,-1 -3,-1 -1,-1 -1,-3 -1,-4l0 0c0,-1 0,-2 0,-3 1,-1 1,-1 2,-2 1,0 1,-1 2,-1 2,0 3,1 3,2 1,1 1,2 1,3l0 1 -6 0c0,1 0,2 0,3 1,0 2,0 3,0 0,0 1,0 1,0 1,0 1,0 1,-1l1 1c-1,1 -2,2 -4,2zm0 -9c0,0 -1,0 -2,1 0,0 0,1 0,2l5 0 0 0c0,-1 -1,-2 -1,-2 0,-1 -1,-1 -2,-1z"/>
  <path id="8" class="fil2" d="M890 340c0,0 0,-1 0,-1 -1,0 -1,-1 -2,-1 -1,0 -2,0 -2,0 -1,-1 -1,-1 -1,-1 -1,-1 -1,-1 -1,-2 0,0 1,-1 1,-2 1,0 2,-1 3,-1 1,0 2,1 3,1 1,1 1,2 1,3l-2 0c0,-1 0,-1 0,-2 -1,0 -1,0 -2,0 -1,0 -1,0 -1,0 -1,0 -1,1 -1,1 0,1 0,1 1,1 0,0 0,1 1,1 1,0 2,0 2,1 1,0 1,0 2,1 0,0 0,0 0,1 0,1 0,2 -1,2 -1,1 -2,1 -3,1 -1,0 -1,0 -2,-1 -1,0 -1,0 -2,-1 0,0 0,-1 0,-1l2 0c0,0 0,1 0,1 1,0 1,0 2,0 1,0 1,0 2,0 0,0 0,-1 0,-1z"/>
  <path id="9" class="fil2" d="M800 355c0,-2 0,-3 1,-4 0,-1 1,-1 3,-1 1,0 2,0 2,1l0 -5 2 0 0 14 -1 0 -1 -1c0,1 -1,1 -2,1 -2,0 -3,0 -3,-1 -1,-1 -1,-3 -1,-4l0 0zm1 0c0,1 1,2 1,3 1,0 1,1 2,1 1,0 2,-1 2,-2l0 -4c0,-1 -1,-2 -2,-2 -1,0 -1,0 -2,1 0,1 -1,2 -1,3z"/>
  <path id="10" class="fil2" d="M815 360c-1,0 -2,0 -3,-1 -1,-1 -2,-2 -2,-4l0 0c0,-1 1,-2 1,-3 0,-1 1,-1 2,-2 0,0 1,0 2,0 1,0 2,0 3,1 1,1 1,2 1,4l0 0 -7 0c0,1 0,2 1,3 1,0 1,1 2,1 1,0 1,0 2,-1 0,0 1,0 1,-1l1 1c-1,1 -2,2 -4,2zm0 -9c-1,0 -1,0 -2,1 0,0 -1,1 -1,2l5 0 0 0c0,-1 0,-2 0,-2 -1,-1 -1,-1 -2,-1z"/>
  <path id="11" class="fil2" d="M824 355c0,-2 1,-3 1,-4 1,-1 2,-1 3,-1 2,0 3,0 3,1l0 -5 2 0 0 14 -2 0 0 -1c0,1 -1,1 -3,1 -1,0 -2,0 -3,-1 0,-1 -1,-3 -1,-4l0 0zm2 0c0,1 0,2 1,3 0,0 1,1 2,1 1,0 2,-1 2,-2l0 -4c0,-1 -1,-2 -2,-2 -1,0 -2,0 -2,1 -1,1 -1,2 -1,3z"/>
  <path id="12" class="fil2" d="M840 360c-2,0 -3,0 -4,-1 0,-1 -1,-2 -1,-4l0 0c0,-1 0,-2 1,-3 0,-1 1,-1 1,-2 1,0 2,0 3,0 1,0 2,0 3,1 0,1 1,2 1,4l0 0 -7 0c0,1 0,2 1,3 0,0 1,1 2,1 1,0 1,0 1,-1 1,0 1,0 2,-1l1 1c-1,1 -2,2 -4,2zm0 -9c-1,0 -2,0 -2,1 -1,0 -1,1 -1,2l5 0 0 0c0,-1 0,-2 -1,-2 0,-1 -1,-1 -1,-1z"/>
  <path id="13" class="fil2" d="M850 359c0,0 1,0 1,-1 1,0 1,-1 1,-1l2 0c0,0 0,1 -1,1 0,1 -1,1 -1,2 -1,0 -1,0 -2,0 -2,0 -3,0 -3,-1 -1,-1 -2,-2 -2,-4l0 0c0,-1 1,-2 1,-3 0,-1 1,-1 1,-2 1,0 2,0 3,0 1,0 2,0 3,1 0,0 1,1 1,2l-2 0c0,0 0,-1 -1,-1 0,-1 -1,-1 -1,-1 -1,0 -2,0 -2,1 -1,1 -1,2 -1,3l0 0c0,1 0,2 1,3 0,0 1,1 2,1z"/>
  <path id="14" class="fil2" d="M858 360l-2 0 0 -10 2 0 0 10zm-2 -13c0,0 0,0 0,-1 0,0 1,0 1,0 0,0 0,0 1,0 0,1 0,1 0,1 0,0 0,1 0,1 -1,0 -1,0 -1,0 0,0 -1,0 -1,0 0,0 0,-1 0,-1z"/>
  <path id="15" class="fil2" d="M866 357c0,0 0,-1 0,-1 -1,0 -1,0 -2,-1 -1,0 -2,0 -2,0 -1,0 -1,-1 -1,-1 0,0 -1,-1 -1,-1 0,-1 1,-2 1,-3 1,0 2,0 3,0 1,0 2,0 3,1 1,0 1,1 1,2l-2 0c0,-1 0,-1 0,-1 -1,-1 -1,-1 -2,-1 0,0 -1,0 -1,0 -1,1 -1,1 -1,2 0,0 0,0 1,0 0,1 1,1 1,1 1,0 2,1 3,1 0,0 0,0 1,1 0,0 0,1 0,1 0,1 0,2 -1,2 -1,1 -2,1 -3,1 -1,0 -1,0 -2,0 -1,-1 -1,-1 -1,-2 -1,0 -1,-1 -1,-1l2 0c0,0 0,1 0,1 1,1 1,1 2,1 1,0 1,0 2,-1 0,0 0,0 0,-1z"/>
  <path id="16" class="fil2" d="M877 360c0,0 -1,-1 -1,-1 0,1 -1,1 -3,1 -1,0 -1,0 -2,-1 -1,0 -1,-1 -1,-2 0,-1 0,-2 1,-2 1,-1 2,-1 4,-1l1 0 0 -1c0,-1 0,-1 0,-1 -1,-1 -1,-1 -2,-1 0,0 -1,0 -1,0 -1,1 -1,1 -1,2l-2 0c0,-1 0,-1 1,-2 0,0 1,-1 1,-1 1,0 2,0 2,0 1,0 2,0 3,1 1,0 1,1 1,2l0 5c0,0 0,1 0,2l0 0 -1 0zm-3 -1c0,0 1,0 1,-1 1,0 1,0 1,-1l0 -2 -1 0c-2,0 -3,1 -3,2 0,0 0,1 0,1 1,0 1,1 2,1zm4 -13c0,1 0,1 -1,2 0,0 -1,0 -1,0 0,0 -1,0 -1,0 0,0 0,0 -1,0 0,-1 0,-1 0,-1 0,0 -1,0 -1,0 0,0 0,0 0,1 -1,0 -1,0 -1,0l-1 0c0,0 0,-1 1,-1 0,-1 1,-1 1,-1 0,0 1,0 1,0 0,0 0,0 0,0 1,1 1,1 1,1 0,0 1,0 1,0 0,0 0,0 0,0 1,-1 1,-1 1,-1l1 0z"/>
  <path id="17" class="fil2" d="M880 355c0,-1 1,-2 1,-3 0,-1 1,-1 2,-2 0,0 1,0 2,0 1,0 2,0 3,1 1,1 2,2 2,4l0 0c0,1 -1,2 -1,3 0,0 -1,1 -2,1 0,1 -1,1 -2,1 -1,0 -3,0 -3,-1 -1,-1 -2,-3 -2,-4l0 0zm2 0c0,1 0,2 1,3 0,0 1,1 2,1 1,0 2,-1 2,-1 1,-1 1,-2 1,-3 0,-1 0,-2 -1,-3 -1,-1 -1,-1 -2,-1 -1,0 -2,0 -2,1 -1,1 -1,2 -1,3z"/>
  <path class="fil2" d="M718 668l0 -13 4 0c1,0 2,0 3,0 1,1 1,2 2,3 0,1 1,2 1,3l0 1c0,1 -1,2 -1,3 -1,1 -1,2 -2,3 -1,0 -2,0 -3,0l-4 0zm2 -12l0 11 2 0c1,0 2,-1 3,-1 1,-1 1,-3 1,-4l0 -1c0,-1 0,-3 -1,-4 -1,0 -2,-1 -3,-1l-2 0z"/>
  <path id="1" class="fil2" d="M736 668c0,0 0,0 0,-1 -1,1 -2,1 -3,1 -1,0 -2,0 -2,0 -1,-1 -1,-2 -1,-3 0,-1 0,-1 1,-2 1,-1 2,-1 3,-1l2 0 0 -1c0,0 0,-1 0,-1 -1,0 -1,-1 -2,-1 -1,0 -1,1 -2,1 0,0 0,1 0,1l-2 0c0,-1 0,-1 1,-1 0,-1 0,-1 1,-2 1,0 1,0 2,0 1,0 2,0 3,1 0,0 1,1 1,2l0 5c0,1 0,2 0,2l0 0 -2 0zm-2 -1c0,0 1,0 1,0 1,-1 1,-1 1,-2l0 -2 -1 0c-2,0 -3,1 -3,2 0,1 0,1 0,2 0,0 1,0 2,0z"/>
  <path id="2" class="fil2" d="M743 656l0 2 2 0 0 2 -2 0 0 6c0,0 0,1 0,1 0,0 1,0 1,0 0,0 1,0 1,0l0 1c-1,0 -1,0 -1,0 -1,0 -2,0 -2,0 -1,-1 -1,-1 -1,-2l0 -6 -2 0 0 -2 2 0 0 -2 2 0z"/>
  <path id="3" class="fil2" d="M753 668c0,0 0,0 0,-1 -1,1 -2,1 -3,1 -1,0 -2,0 -3,0 0,-1 0,-2 0,-3 0,-1 0,-1 1,-2 1,-1 2,-1 3,-1l2 0 0 -1c0,0 0,-1 -1,-1 0,0 -1,-1 -1,-1 -1,0 -1,1 -2,1 0,0 -1,1 -1,1l-1 0c0,-1 0,-1 0,-1 1,-1 1,-1 2,-2 0,0 1,0 2,0 1,0 2,0 3,1 0,0 1,1 1,2l0 5c0,1 0,2 0,2l0 0 -2 0zm-3 -1c1,0 1,0 2,0 0,-1 1,-1 1,-2l0 -2 -2 0c-2,0 -3,1 -3,2 0,1 0,1 1,2 0,0 1,0 1,0z"/>
  <polygon id="4" class="fil2" points="693,681 693,683 693,681 696,672 698,672 700,681 701,683 701,681 703,672 705,672 702,686 700,686 697,676 697,675 697,676 694,686 692,686 689,672 691,672 "/>
  <path id="5" class="fil2" d="M713 686c-1,-1 -1,-1 -1,-2 -1,1 -2,2 -3,2 -1,0 -1,-1 -2,-1 -1,-1 -1,-1 -1,-2 0,-1 0,-2 1,-3 1,0 2,-1 4,-1l1 0 0 0c0,-1 0,-1 0,-2 -1,0 -1,0 -2,0 -1,0 -1,0 -1,0 -1,0 -1,1 -1,1l-2 0c0,0 0,-1 1,-1 0,-1 1,-1 1,-1 1,-1 1,-1 2,-1 1,0 2,1 3,1 1,1 1,1 1,3l0 4c0,1 0,2 0,2l0 1 -1 0zm-3 -2c0,0 1,0 1,0 1,0 1,-1 1,-1l0 -2 -1 0c-2,0 -3,0 -3,2 0,0 0,0 0,1 1,0 1,0 2,0z"/>
  <path id="6" class="fil2" d="M722 677c-1,0 -1,0 -1,0 -1,0 -2,0 -3,1l0 8 -1 0 0 -11 1 0 0 2c1,-1 2,-2 3,-2 0,0 0,0 1,0l0 2z"/>
  <path id="7" class="fil2" d="M727 686c-1,0 -2,-1 -3,-2 -1,-1 -1,-2 -1,-3l0 -1c0,-1 0,-1 0,-2 1,-1 1,-2 2,-2 0,-1 1,-1 2,-1 1,0 2,1 3,2 1,0 1,2 1,3l0 1 -7 0c0,1 1,2 1,2 1,1 1,1 2,1 1,0 1,0 2,0 0,0 1,-1 1,-1l1 1c-1,1 -2,2 -4,2zm0 -9c-1,0 -1,0 -2,0 0,1 -1,2 -1,3l5 0 0 -1c0,0 0,-1 0,-2 -1,0 -1,0 -2,0z"/>
  <path id="8" class="fil2" d="M735 677c1,-1 2,-2 3,-2 2,0 3,1 3,4l0 7 -2 0 0 -7c0,-1 0,-1 0,-2 0,0 -1,0 -2,0 0,0 -1,0 -1,0 -1,0 -1,1 -1,1l0 8 -2 0 0 -15 2 0 0 6z"/>
  <path id="9" class="fil2" d="M743 680c0,-1 0,-2 1,-2 0,-1 1,-2 1,-2 1,-1 2,-1 3,-1 1,0 2,1 3,2 1,1 1,2 1,3l0 1c0,1 0,1 0,2 0,1 -1,2 -2,2 0,1 -1,1 -2,1 -2,0 -3,-1 -3,-2 -1,-1 -2,-2 -2,-3l0 -1zm2 1c0,1 0,2 1,2 0,1 1,1 2,1 1,0 1,0 2,-1 0,0 1,-1 1,-3 0,-1 -1,-2 -1,-2 -1,-1 -1,-1 -2,-1 -1,0 -2,0 -2,1 -1,0 -1,1 -1,3z"/>
  <path id="10" class="fil2" d="M761 685c-1,0 -2,1 -3,1 -1,0 -2,-1 -3,-1 0,-1 0,-2 0,-3l0 -7 1 0 0 7c0,1 1,2 2,2 2,0 2,0 3,-1l0 -8 2 0 0 11 -2 0 0 -1z"/>
  <path id="11" class="fil2" d="M771 683c0,-1 0,-1 0,-1 -1,0 -1,-1 -2,-1 -1,0 -2,0 -2,-1 -1,0 -1,0 -1,-1 -1,0 -1,0 -1,-1 0,-1 0,-1 1,-2 1,0 2,-1 3,-1 1,0 2,1 3,1 0,1 1,1 1,2l-2 0c0,0 0,0 -1,-1 0,0 -1,0 -1,0 -1,0 -1,0 -2,0 0,0 0,1 0,1 0,1 0,1 0,1 1,0 1,0 2,1 1,0 2,0 2,0 1,1 1,1 1,1 1,1 1,1 1,2 0,1 -1,1 -1,2 -1,0 -2,1 -3,1 -1,0 -2,0 -2,-1 -1,0 -1,0 -2,-1 0,0 0,-1 0,-2l2 0c0,1 0,1 0,2 1,0 1,0 2,0 1,0 1,0 2,0 0,0 0,-1 0,-1z"/>
  <path id="12" class="fil2" d="M779 686c-1,0 -2,-1 -3,-2 -1,-1 -1,-2 -1,-3l0 -1c0,-1 0,-1 0,-2 1,-1 1,-2 2,-2 1,-1 1,-1 2,-1 1,0 2,1 3,2 1,0 1,2 1,3l0 1 -7 0c0,1 1,2 1,2 1,1 2,1 2,1 1,0 2,0 2,0 0,0 1,-1 1,-1l1 1c-1,1 -2,2 -4,2zm0 -9c-1,0 -1,0 -2,0 0,1 0,2 -1,3l6 0 0 -1c-1,0 -1,-1 -1,-2 -1,0 -1,0 -2,0z"/>
  <polygon class="fil2" points="773,558 778,570 782,558 785,558 785,572 783,572 783,567 783,561 778,572 777,572 773,561 773,567 773,572 771,572 771,558 "/>
  <path id="1" class="fil2" d="M794 572c0,0 0,-1 -1,-1 0,1 -1,1 -2,1 -1,0 -2,0 -3,-1 -1,0 -1,-1 -1,-2 0,-1 1,-2 1,-2 1,-1 2,-1 4,-1l1 0 0 -1c0,0 0,-1 0,-1 0,-1 -1,-1 -2,-1 0,0 -1,0 -1,1 -1,0 -1,0 -1,1l-2 0c0,-1 1,-1 1,-2 0,0 1,-1 1,-1 1,0 2,0 2,0 2,0 2,0 3,1 1,0 1,1 1,2l0 5c0,1 0,1 1,2l0 0 -2 0zm-3 -1c0,0 1,0 1,-1 1,0 1,0 1,-1l0 -2 -1 0c-2,0 -3,1 -3,2 0,1 0,1 0,1 1,1 1,1 2,1z"/>
  <path id="2" class="fil2" d="M802 571c1,0 1,0 2,-1 0,0 0,-1 0,-1l2 0c0,0 0,1 -1,2 0,0 -1,0 -1,1 -1,0 -1,0 -2,0 -1,0 -3,0 -3,-1 -1,-1 -2,-2 -2,-4l0 0c0,-1 1,-2 1,-3 0,-1 1,-1 2,-2 0,0 1,0 2,0 1,0 2,0 3,1 0,0 1,1 1,2l-2 0c0,0 0,-1 0,-1 -1,-1 -1,-1 -2,-1 -1,0 -2,0 -2,1 -1,1 -1,2 -1,3l0 0c0,1 0,2 1,3 0,1 1,1 2,1z"/>
  <path id="3" class="fil2" d="M810 563c0,-1 1,-1 3,-1 2,0 3,1 3,3l0 7 -2 0 0 -7c0,0 0,-1 0,-1 -1,-1 -1,-1 -2,-1 0,0 -1,0 -1,1 -1,0 -1,0 -1,1l0 7 -2 0 0 -14 2 0 0 5z"/>
  <path id="4" class="fil2" d="M820 572l-1 0 0 -10 1 0 0 10zm-2 -13c0,0 1,0 1,0 0,-1 0,-1 0,-1 1,0 1,0 1,1 0,0 0,0 0,0 0,1 0,1 0,1 0,0 0,0 -1,0 0,0 0,0 0,0 0,0 -1,0 -1,-1z"/>
  <path id="5" class="fil2" d="M825 562l0 1c1,-1 2,-1 3,-1 2,0 3,1 3,3l0 7 -2 0 0 -7c0,0 0,-1 0,-1 -1,-1 -1,-1 -2,-1 0,0 -1,0 -1,1 -1,0 -1,0 -1,1l0 7 -2 0 0 -10 2 0z"/>
  <path id="6" class="fil2" d="M838 572c-2,0 -3,0 -3,-1 -1,-1 -2,-2 -2,-4l0 0c0,-1 0,-2 1,-3 0,-1 1,-1 1,-2 1,0 2,0 3,0 1,0 2,0 3,1 0,1 1,2 1,4l0 0 -7 0c0,1 0,2 1,3 0,1 1,1 2,1 1,0 1,0 1,-1 1,0 1,0 2,-1l1 1c-1,2 -2,2 -4,2zm0 -9c-1,0 -2,0 -2,1 -1,0 -1,1 -1,2l5 0 0 0c0,-1 0,-2 -1,-2 0,-1 -1,-1 -1,-1z"/>
  <polygon id="7" class="fil2" points="772,588 779,588 779,589 771,589 771,576 772,576 "/>
  <path id="8" class="fil2" d="M785 589c-2,0 -3,0 -4,-1 0,-1 -1,-2 -1,-3l0 -1c0,-1 0,-2 1,-3 0,0 1,-1 1,-1 1,-1 2,-1 3,-1 1,0 2,0 3,1 0,1 1,2 1,4l0 1 -7 0c0,1 0,2 1,2 0,1 1,1 2,1 1,0 1,0 1,0 1,-1 1,-1 2,-1l1 1c-1,1 -2,1 -4,1zm0 -9c-1,0 -2,1 -2,1 -1,1 -1,1 -1,2l5 0 0 0c0,-1 0,-1 -1,-2 0,0 -1,-1 -1,-1z"/>
  <path id="9" class="fil2" d="M797 589c0,0 0,0 0,-1 -1,1 -2,1 -3,1 -1,0 -2,0 -3,0 0,-1 0,-2 0,-3 0,-1 0,-1 1,-2 1,-1 2,-1 3,-1l2 0 0 -1c0,0 0,-1 -1,-1 0,0 -1,-1 -1,-1 -1,0 -2,1 -2,1 0,0 -1,1 -1,1l-1 0c0,-1 0,-1 0,-1 1,-1 1,-1 2,-2 0,0 1,0 2,0 1,0 2,0 2,1 1,0 1,1 1,2l0 5c0,1 1,2 1,2l0 0 -2 0zm-3 -1c1,0 1,0 2,0 0,-1 1,-1 1,-2l0 -2 -2 0c-2,0 -3,1 -3,2 0,1 0,1 1,2 0,0 1,0 1,0z"/>
  <path id="10" class="fil2" d="M806 581c0,0 0,0 -1,0 -1,0 -2,0 -2,1l0 7 -2 0 0 -10 2 0 0 1c0,-1 1,-1 2,-1 1,0 1,0 1,0l0 2z"/>
  <path id="11" class="fil2" d="M809 579l0 1c1,-1 2,-1 3,-1 3,0 4,1 4,4l0 6 -2 0 0 -6c0,-1 0,-2 -1,-2 0,0 0,-1 -1,-1 -1,0 -1,1 -2,1 0,0 0,1 -1,1l0 7 -1 0 0 -10 1 0z"/>
  <path id="12" class="fil2" d="M820 589l-2 0 0 -10 2 0 0 10zm-2 -13c0,0 0,0 1,0 0,0 0,-1 0,-1 1,0 1,1 1,1 0,0 0,0 0,0 0,1 0,1 0,1 0,0 0,0 -1,0 0,0 0,0 0,0 -1,0 -1,0 -1,-1z"/>
  <path id="13" class="fil2" d="M825 579l0 1c0,-1 1,-1 3,-1 2,0 3,1 3,4l0 6 -2 0 0 -6c0,-1 0,-2 0,-2 -1,0 -1,-1 -2,-1 0,0 -1,1 -1,1 -1,0 -1,1 -1,1l0 7 -2 0 0 -10 2 0z"/>
  <path id="14" class="fil2" d="M833 584c0,-1 0,-3 1,-4 1,-1 2,-1 3,-1 1,0 2,0 3,1l0 -1 2 0 0 10c0,1 -1,2 -2,3 0,1 -1,1 -3,1 0,0 -1,0 -2,0 -1,-1 -1,-1 -1,-1l0 -2c1,1 2,2 3,2 1,0 2,0 2,-1 1,0 1,-1 1,-2l0 -1c-1,1 -2,1 -3,1 -1,0 -2,0 -3,-1 -1,-1 -1,-2 -1,-4zm2 0c0,1 0,2 0,3 1,1 2,1 2,1 2,0 2,0 3,-1l0 -5c-1,-1 -1,-2 -3,-2 0,0 -1,1 -2,1 0,1 0,2 0,3z"/>
  <g id="_2232081698608">
   <path class="fil3" d="M94 288c32,-3 59,20 62,51 3,31 -20,59 -51,62 -31,3 -59,-20 -62,-51 -3,-32 20,-59 51,-62z"/>
   <path class="fil4" d="M71 339l-6 0 -1 3 -2 0 6 -13 1 0 5 13 -2 0 -1 -3zm-5 -2l5 0 -3 -6 -2 6z"/>
   <path id="1" class="fil4" d="M81 334c0,0 -1,0 -1,0 -1,0 -2,0 -2,1l0 7 -2 0 0 -10 2 0 0 1c0,0 1,-1 2,-1 0,0 1,0 1,0l0 2z"/>
   <path id="2" class="fil4" d="M82 337c0,-1 0,-3 1,-3 1,-1 2,-2 3,-2 1,0 2,1 3,1l0 -1 1 0 0 14 -1 0 0 -5c-1,1 -2,2 -3,2 -1,0 -2,-1 -3,-2 -1,-1 -1,-2 -1,-4l0 0zm2 0c0,2 0,3 0,3 1,1 1,1 2,1 1,0 2,0 3,-1l0 -5c-1,-1 -2,-1 -3,-1 -1,0 -1,0 -2,1 0,0 0,1 0,2z"/>
   <path id="3" class="fil4" d="M99 341c0,1 -1,2 -3,2 -1,0 -2,-1 -2,-1 -1,-1 -1,-2 -1,-3l0 -7 2 0 0 7c0,1 0,2 2,2 1,0 2,0 2,-1l0 -8 2 0 0 10 -2 0 0 -1z"/>
   <path id="4" class="fil4" d="M106 342l-2 0 0 -10 2 0 0 10zm-2 -12c0,-1 0,-1 0,-1 0,0 0,0 1,0 0,0 0,0 0,0 1,0 1,0 1,1 0,0 0,0 -1,0 0,1 0,1 0,1 -1,0 -1,0 -1,-1 0,0 0,0 0,0z"/>
   <polygon id="5" class="fil4" points="112,340 114,332 116,332 112,342 111,342 107,332 109,332 "/>
   <path id="6" class="fil4" d="M117 337c0,-1 0,-2 1,-2 0,-1 0,-2 1,-2 1,-1 2,-1 3,-1 1,0 2,1 3,2 1,1 1,2 1,3l0 0c0,1 0,2 0,3 -1,1 -1,2 -2,2 -1,0 -2,1 -2,1 -2,0 -3,-1 -4,-2 -1,-1 -1,-2 -1,-4l0 0zm2 0c0,2 0,2 0,3 1,1 2,1 3,1 0,0 1,0 2,-1 0,-1 0,-1 0,-3 0,-1 0,-2 0,-2 -1,-1 -2,-1 -2,-1 -1,0 -2,0 -3,1 0,0 0,1 0,2z"/>
   <path id="7" class="fil4" d="M134 340c0,-1 0,-1 0,-1 -1,-1 -1,-1 -2,-1 -1,0 -2,0 -2,-1 -1,0 -1,0 -1,-1 -1,0 -1,0 -1,-1 0,-1 1,-1 1,-2 1,-1 2,-1 3,-1 1,0 2,0 3,1 1,1 1,1 1,2l-2 0c0,0 0,-1 0,-1 -1,0 -1,0 -2,0 -1,0 -1,0 -1,0 -1,0 -1,1 -1,1 0,0 0,1 0,1 1,0 1,0 2,1 1,0 2,0 2,0 1,1 1,1 2,1 0,1 0,1 0,2 0,1 0,1 -1,2 -1,0 -2,1 -3,1 -1,0 -1,-1 -2,-1 -1,0 -1,-1 -2,-1 0,-1 0,-1 0,-2l2 0c0,1 0,1 0,2 1,0 1,0 2,0 1,0 1,0 2,0 0,0 0,-1 0,-1z"/>
   <polygon id="8" class="fil4" points="58,346 63,357 67,346 70,346 70,360 68,360 68,354 68,349 63,360 62,360 58,349 58,354 58,360 56,360 56,346 "/>
   <path id="9" class="fil4" d="M79 359c-1,0 -2,1 -3,1 -1,0 -2,0 -3,-1 0,-1 -1,-2 -1,-3l0 -6 2 0 0 6c0,2 1,2 2,2 1,0 2,0 3,-1l0 -7 1 0 0 10 -1 0 0 -1z"/>
   <polygon id="10" class="fil4" points="85,360 83,360 83,345 85,345 "/>
   <path id="11" class="fil4" d="M90 347l0 3 2 0 0 1 -2 0 0 6c0,1 0,1 0,1 0,0 1,0 1,0 0,0 1,0 1,0l0 2c-1,0 -1,0 -1,0 -1,0 -2,0 -2,-1 -1,0 -1,-1 -1,-2l0 -6 -2 0 0 -1 2 0 0 -3 2 0z"/>
   <path id="12" class="fil4" d="M96 360l-2 0 0 -10 2 0 0 10zm-2 -13c0,0 0,-1 0,-1 0,0 1,0 1,0 0,0 1,0 1,0 0,0 0,1 0,1 0,0 0,0 0,1 0,0 -1,0 -1,0 0,0 -1,0 -1,0 0,-1 0,-1 0,-1z"/>
   <path id="13" class="fil4" d="M100 350l0 1c1,-1 2,-2 3,-2 2,0 3,1 3,2 0,-1 1,-1 1,-1 1,0 2,-1 2,-1 3,0 4,2 4,4l0 7 -2 0 0 -7c0,-1 0,-1 -1,-2 0,0 0,0 -1,0 -1,0 -1,0 -2,0 0,1 0,1 -1,2l0 7 -1 0 0 -7c0,-1 -1,-2 -2,-2 -2,0 -2,0 -3,1l0 8 -1 0 0 -10 1 0z"/>
   <path id="14" class="fil4" d="M117 360l-2 0 0 -10 2 0 0 10zm0 -15l2 0 -2 3 -2 0 2 -3z"/>
   <path id="15" class="fil4" d="M120 355c0,-2 0,-3 1,-4 0,-1 1,-2 3,-2 1,0 2,1 2,2l0 -6 2 0 0 15 -1 0 -1 -1c0,0 -1,1 -2,1 -2,0 -3,-1 -3,-2 -1,-1 -1,-2 -1,-3l0 0zm1 0c0,1 1,2 1,2 1,1 1,1 2,1 1,0 2,0 2,-1l0 -5c0,-1 -1,-1 -2,-1 -1,0 -1,0 -2,1 0,0 -1,1 -1,3z"/>
   <path id="16" class="fil4" d="M133 360l-2 0 0 -10 2 0 0 10zm-2 -13c0,0 0,-1 0,-1 0,0 1,0 1,0 0,0 0,0 1,0 0,0 0,1 0,1 0,0 0,0 0,1 -1,0 -1,0 -1,0 0,0 -1,0 -1,0 0,-1 0,-1 0,-1z"/>
   <path id="17" class="fil4" d="M142 360c0,-1 0,-1 -1,-1 0,0 -1,1 -2,1 -1,0 -2,0 -3,-1 0,-1 -1,-1 -1,-2 0,-1 1,-2 1,-3 1,0 2,0 4,0l1 0 0 -1c0,-1 0,-1 0,-2 0,0 -1,0 -2,0 0,0 -1,0 -1,0 -1,1 -1,1 -1,1l-2 0c0,0 1,-1 1,-1 0,-1 1,-1 1,-1 1,-1 2,-1 2,-1 2,0 2,1 3,1 1,1 1,2 1,3l0 4c0,1 0,2 1,3l0 0 -2 0zm-3 -2c0,0 1,0 1,0 1,0 1,-1 1,-1l0 -2 -1 0c-2,0 -3,0 -3,2 0,0 0,1 0,1 1,0 1,0 2,0z"/>
  </g>
  <g id="_2232081699920">
   <path class="fil3" d="M203 614c31,-3 59,20 62,51 3,31 -20,59 -52,62 -31,3 -58,-20 -61,-51 -3,-32 19,-59 51,-62z"/>
   <path class="fil4" d="M190 668l0 -13 4 0c1,0 2,0 3,0 1,1 1,2 2,3 0,1 1,2 1,3l0 1c0,1 -1,2 -1,3 -1,1 -1,2 -2,3 -1,0 -2,0 -3,0l-4 0zm2 -12l0 11 2 0c1,0 2,-1 3,-1 1,-1 1,-3 1,-4l0 -1c0,-1 0,-3 -1,-4 -1,0 -2,-1 -3,-1l-2 0z"/>
   <path id="1" class="fil4" d="M208 668c0,0 0,0 0,-1 -1,1 -2,1 -3,1 -1,0 -2,0 -2,0 -1,-1 -1,-2 -1,-3 0,-1 0,-1 1,-2 1,-1 2,-1 3,-1l2 0 0 -1c0,0 0,-1 0,-1 -1,0 -1,-1 -2,-1 -1,0 -1,1 -2,1 0,0 0,1 0,1l-2 0c0,-1 0,-1 1,-1 0,-1 0,-1 1,-2 1,0 1,0 2,0 1,0 2,0 3,1 0,0 1,1 1,2l0 5c0,1 0,2 0,2l0 0 -2 0zm-2 -1c0,0 1,0 1,0 1,-1 1,-1 1,-2l0 -2 -1 0c-2,0 -3,1 -3,2 0,1 0,1 0,2 0,0 1,0 2,0z"/>
   <path id="2" class="fil4" d="M215 656l0 2 2 0 0 2 -2 0 0 6c0,0 0,1 0,1 0,0 1,0 1,0 0,0 1,0 1,0l0 1c-1,0 -1,0 -1,0 -1,0 -2,0 -2,0 -1,-1 -1,-1 -1,-2l0 -6 -2 0 0 -2 2 0 0 -2 2 0z"/>
   <path id="3" class="fil4" d="M225 668c0,0 0,0 0,-1 -1,1 -2,1 -3,1 -1,0 -2,0 -2,0 -1,-1 -1,-2 -1,-3 0,-1 0,-1 1,-2 1,-1 2,-1 3,-1l2 0 0 -1c0,0 0,-1 -1,-1 0,0 -1,-1 -1,-1 -1,0 -1,1 -2,1 0,0 0,1 0,1l-2 0c0,-1 0,-1 0,-1 1,-1 1,-1 2,-2 0,0 1,0 2,0 1,0 2,0 3,1 0,0 1,1 1,2l0 5c0,1 0,2 0,2l0 0 -2 0zm-3 -1c1,0 1,0 2,0 0,-1 1,-1 1,-2l0 -2 -2 0c-2,0 -3,1 -3,2 0,1 0,1 1,2 0,0 1,0 1,0z"/>
   <polygon id="4" class="fil4" points="165,681 165,683 165,681 168,672 170,672 172,681 173,683 173,681 175,672 177,672 174,686 172,686 169,676 169,675 169,676 166,686 164,686 161,672 163,672 "/>
   <path id="5" class="fil4" d="M185 686c-1,-1 -1,-1 -1,-2 -1,1 -1,2 -3,2 -1,0 -1,-1 -2,-1 -1,-1 -1,-1 -1,-2 0,-1 0,-2 1,-3 1,0 2,-1 4,-1l1 0 0 0c0,-1 0,-1 0,-2 -1,0 -1,0 -2,0 -1,0 -1,0 -1,0 -1,0 -1,1 -1,1l-2 0c0,0 0,-1 1,-1 0,-1 1,-1 1,-1 1,-1 1,-1 2,-1 1,0 2,1 3,1 1,1 1,1 1,3l0 4c0,1 0,2 0,2l0 1 -1 0zm-3 -2c0,0 1,0 1,0 1,0 1,-1 1,-1l0 -2 -1 0c-2,0 -3,0 -3,2 0,0 0,0 0,1 1,0 1,0 2,0z"/>
   <path id="6" class="fil4" d="M194 677c-1,0 -1,0 -1,0 -1,0 -2,0 -3,1l0 8 -1 0 0 -11 1 0 0 2c1,-1 2,-2 3,-2 0,0 0,0 1,0l0 2z"/>
   <path id="7" class="fil4" d="M199 686c-1,0 -2,-1 -3,-2 -1,-1 -1,-2 -1,-3l0 -1c0,-1 0,-1 0,-2 1,-1 1,-2 2,-2 0,-1 1,-1 2,-1 1,0 2,1 3,2 1,0 1,2 1,3l0 1 -7 0c0,1 1,2 1,2 1,1 1,1 2,1 1,0 1,0 2,0 0,0 1,-1 1,-1l1 1c-1,1 -2,2 -4,2zm0 -9c-1,0 -1,0 -2,0 0,1 -1,2 -1,3l5 0 0 -1c0,0 0,-1 0,-2 -1,0 -1,0 -2,0z"/>
   <path id="8" class="fil4" d="M207 677c1,-1 2,-2 3,-2 2,0 3,1 3,4l0 7 -2 0 0 -7c0,-1 0,-1 0,-2 0,0 -1,0 -2,0 0,0 -1,0 -1,0 -1,0 -1,1 -1,1l0 8 -2 0 0 -15 2 0 0 6z"/>
   <path id="9" class="fil4" d="M215 680c0,-1 0,-2 1,-2 0,-1 1,-2 1,-2 1,-1 2,-1 3,-1 1,0 2,1 3,2 1,1 1,2 1,3l0 1c0,1 0,1 0,2 0,1 -1,2 -2,2 0,1 -1,1 -2,1 -1,0 -3,-1 -3,-2 -1,-1 -2,-2 -2,-3l0 -1zm2 1c0,1 0,2 1,2 0,1 1,1 2,1 1,0 1,0 2,-1 0,0 1,-1 1,-3 0,-1 -1,-2 -1,-2 -1,-1 -1,-1 -2,-1 -1,0 -2,0 -2,1 -1,0 -1,1 -1,3z"/>
   <path id="10" class="fil4" d="M233 685c-1,0 -2,1 -3,1 -1,0 -2,-1 -3,-1 0,-1 0,-2 0,-3l0 -7 1 0 0 7c0,1 1,2 2,2 2,0 2,0 3,-1l0 -8 2 0 0 11 -2 0 0 -1z"/>
   <path id="11" class="fil4" d="M243 683c0,-1 0,-1 0,-1 -1,0 -1,-1 -2,-1 -1,0 -2,0 -2,-1 -1,0 -1,0 -1,-1 -1,0 -1,0 -1,-1 0,-1 1,-1 1,-2 1,0 2,-1 3,-1 1,0 2,1 3,1 0,1 1,1 1,2l-2 0c0,0 0,0 -1,-1 0,0 0,0 -1,0 -1,0 -1,0 -2,0 0,0 0,1 0,1 0,1 0,1 0,1 1,0 1,0 2,1 1,0 2,0 2,0 1,1 1,1 1,1 1,1 1,1 1,2 0,1 0,1 -1,2 -1,0 -2,1 -3,1 -1,0 -2,0 -2,-1 -1,0 -1,0 -2,-1 0,0 0,-1 0,-2l2 0c0,1 0,1 0,2 1,0 1,0 2,0 1,0 1,0 2,0 0,0 0,-1 0,-1z"/>
   <path id="12" class="fil4" d="M251 686c-1,0 -2,-1 -3,-2 -1,-1 -1,-2 -1,-3l0 -1c0,-1 0,-1 0,-2 1,-1 1,-2 2,-2 1,-1 1,-1 2,-1 1,0 2,1 3,2 1,0 1,2 1,3l0 1 -7 0c0,1 1,2 1,2 1,1 2,1 2,1 1,0 2,0 2,0 0,0 1,-1 1,-1l1 1c-1,1 -2,2 -4,2zm0 -9c-1,0 -1,0 -2,0 0,1 0,2 -1,3l6 0 0 -1c-1,0 -1,-1 -1,-2 -1,0 -1,0 -2,0z"/>
  </g>
  <g id="_2232081702448">
   <path class="fil3" d="M132 519c32,-3 60,20 62,51 3,31 -19,59 -51,62 -31,3 -59,-20 -62,-51 -3,-31 20,-59 51,-62z"/>
   <path class="fil4" d="M113 572l0 -14 4 0c2,0 3,0 4,1 1,1 1,1 1,3 0,0 0,1 -1,1 0,1 0,1 -1,2 1,0 1,0 2,1 0,0 0,1 0,2 0,1 0,2 -1,3 -1,0 -2,1 -3,1l-5 0zm2 -7l0 5 3 0c1,0 1,0 2,0 0,-1 0,-1 0,-2 0,-2 0,-3 -2,-3l-3 0zm0 -1l3 0c0,0 1,0 1,-1 1,0 1,-1 1,-1 0,-1 0,-2 -1,-2 0,0 -1,0 -2,0l-2 0 0 4z"/>
   <path id="1" class="fil4" d="M131 572c0,-1 0,-1 0,-1 -1,0 -2,1 -3,1 -1,0 -2,0 -3,-1 0,-1 -1,-1 -1,-2 0,-1 1,-2 2,-3 0,0 2,0 3,0l2 0 0 -1c0,-1 -1,-1 -1,-2 0,0 -1,0 -1,0 -1,0 -2,0 -2,0 0,1 -1,1 -1,1l-1 0c0,0 0,-1 0,-1 0,-1 1,-1 2,-1 0,0 1,-1 2,-1 1,0 2,1 2,1 1,1 1,2 1,3l0 4c0,1 1,2 1,3l0 0 -2 0zm-3 -2c1,0 1,0 2,0 0,0 0,-1 1,-1l0 -2 -2 0c-2,0 -3,0 -3,2 0,0 0,1 1,1 0,0 0,0 1,0z"/>
   <path id="2" class="fil4" d="M141 569c0,0 0,-1 -1,-1 0,0 0,-1 -1,-1 -1,0 -2,0 -2,0 -1,-1 -1,-1 -2,-1 0,-1 0,-1 0,-2 0,0 0,-1 1,-2 1,0 2,-1 3,-1 1,0 2,1 3,1 0,1 1,2 1,3l-2 0c0,-1 0,-1 -1,-2 0,0 -1,0 -1,0 -1,0 -1,0 -2,0 0,0 0,1 0,1 0,1 0,1 0,1 1,0 1,1 2,1 1,0 2,0 2,1 1,0 1,0 1,0 1,1 1,1 1,2 0,1 -1,1 -1,2 -1,1 -2,1 -3,1 -1,0 -2,0 -2,-1 -1,0 -1,0 -2,-1 0,0 0,-1 0,-1l1 0c0,0 1,1 1,1 1,0 1,0 2,0 0,0 1,0 1,0 1,0 1,-1 1,-1z"/>
   <path id="3" class="fil4" d="M149 572c-1,0 -2,-1 -3,-1 -1,-1 -1,-3 -1,-4l0 0c0,-1 0,-2 0,-3 1,-1 1,-2 2,-2 0,0 1,-1 2,-1 1,0 2,1 3,2 1,1 1,2 1,3l0 1 -7 0c0,1 1,2 1,3 1,0 1,0 2,0 1,0 1,0 2,0 0,0 1,-1 1,-1l1 1c-1,1 -2,2 -4,2zm0 -9c-1,0 -1,0 -2,1 0,0 -1,1 -1,2l5 0 0 0c0,-1 0,-2 0,-2 -1,-1 -1,-1 -2,-1z"/>
   <path id="4" class="fil4" d="M161 569c0,0 0,-1 0,-1 -1,0 -1,-1 -2,-1 -1,0 -2,0 -2,0 -1,-1 -1,-1 -2,-1 0,-1 0,-1 0,-2 0,0 0,-1 1,-2 1,0 2,-1 3,-1 1,0 2,1 3,1 0,1 1,2 1,3l-2 0c0,-1 0,-1 -1,-2 0,0 -1,0 -1,0 -1,0 -1,0 -2,0 0,0 0,1 0,1 0,1 0,1 0,1 1,0 1,1 2,1 1,0 2,0 2,1 1,0 1,0 1,0 1,1 1,1 1,2 0,1 -1,1 -1,2 -1,1 -2,1 -3,1 -1,0 -2,0 -2,-1 -1,0 -1,0 -2,-1 0,0 0,-1 0,-1l1 0c0,0 1,1 1,1 1,0 1,0 2,0 1,0 1,0 1,0 1,0 1,-1 1,-1z"/>
   <polygon id="5" class="fil4" points="105,587 111,587 111,589 103,589 103,575 105,575 "/>
   <path id="6" class="fil4" d="M117 589c-1,0 -2,0 -3,-1 -1,-1 -2,-2 -2,-4l0 0c0,-1 1,-2 1,-3 0,-1 1,-1 2,-2 0,0 1,0 2,0 1,0 2,0 3,1 1,1 1,2 1,4l0 0 -7 0c0,1 0,2 1,3 1,0 1,1 2,1 1,0 1,0 2,-1 0,0 0,0 1,-1l1 1c-1,1 -2,2 -4,2zm0 -9c-1,0 -1,0 -2,1 0,0 -1,1 -1,2l5 0 0 0c0,-1 0,-2 0,-2 -1,-1 -1,-1 -2,-1z"/>
   <path id="7" class="fil4" d="M123 584c0,-2 0,-3 1,-4 0,-1 1,-1 3,-1 1,0 2,0 2,1l1 -1 1 0 0 10c0,1 0,2 -1,3 -1,1 -2,1 -3,1 -1,0 -2,0 -2,-1 -1,0 -2,0 -2,-1l1 -1c1,1 2,1 3,1 1,0 1,0 2,0 0,-1 0,-1 0,-2l0 -1c0,1 -1,1 -2,1 -2,0 -3,0 -3,-1 -1,-1 -1,-3 -1,-4zm1 0c0,1 1,2 1,3 0,0 1,1 2,1 1,0 2,-1 2,-2l0 -4c0,-1 -1,-2 -2,-2 -1,0 -2,0 -2,1 0,1 -1,2 -1,3z"/>
   <path id="8" class="fil4" d="M140 589c0,0 0,-1 0,-1 -1,1 -2,1 -3,1 -1,0 -2,0 -3,-1 0,0 -1,-1 -1,-2 0,-1 1,-2 2,-2 0,-1 2,-1 3,-1l2 0 0 -1c0,-1 0,-1 -1,-1 0,-1 -1,-1 -1,-1 -1,0 -2,0 -2,0 0,1 -1,1 -1,2l-1 0c0,-1 0,-1 0,-2 1,0 1,-1 2,-1 0,0 1,0 2,0 1,0 2,0 2,0 1,1 1,2 1,3l0 5c0,0 1,1 1,2l0 0 -2 0zm-3 -1c1,0 1,-1 2,-1 0,0 0,0 1,-1l0 -2 -2 0c-2,0 -3,1 -3,2 0,0 0,1 1,1 0,0 1,1 1,1z"/>
   <path id="9" class="fil4" d="M144 584c0,-2 0,-3 1,-4 1,-1 2,-1 3,-1 1,0 2,0 3,1l0 -5 1 0 0 14 -1 0 0 -1c-1,1 -2,1 -3,1 -1,0 -2,0 -3,-1 -1,-1 -1,-3 -1,-4l0 0zm1 0c0,1 1,2 1,3 1,0 1,1 2,1 1,0 2,-1 3,-2l0 -4c-1,-1 -2,-2 -3,-2 -1,0 -1,0 -2,1 0,1 -1,2 -1,3z"/>
   <path id="10" class="fil4" d="M161 589c0,0 0,-1 0,-1 -1,1 -2,1 -3,1 -1,0 -2,0 -2,-1 -1,0 -1,-1 -1,-2 0,-1 0,-2 1,-2 1,-1 2,-1 3,-1l2 0 0 -1c0,-1 0,-1 -1,-1 0,-1 -1,-1 -1,-1 -1,0 -1,0 -2,0 0,1 0,1 0,2l-2 0c0,-1 0,-1 0,-2 1,0 1,-1 2,-1 0,0 1,0 2,0 1,0 2,0 3,0 0,1 1,2 1,3l0 5c0,0 0,1 0,2l0 0 -2 0zm-3 -1c1,0 1,-1 2,-1 0,0 1,0 1,-1l0 -2 -1 0c-3,0 -4,1 -4,2 0,0 1,1 1,1 0,0 1,1 1,1z"/>
   <path id="11" class="fil4" d="M171 586c0,0 0,-1 0,-1 -1,0 -1,0 -2,-1 -1,0 -2,0 -2,0 -1,0 -1,-1 -1,-1 -1,-1 -1,-1 -1,-1 0,-1 1,-2 1,-3 1,0 2,0 3,0 1,0 2,0 3,0 1,1 1,2 1,3l-2 0c0,-1 0,-1 0,-1 -1,-1 -1,-1 -2,-1 -1,0 -1,0 -1,0 -1,1 -1,1 -1,2 0,0 0,0 1,0 0,1 0,1 1,1 1,0 2,0 2,1 1,0 1,0 2,1 0,0 0,1 0,1 0,1 0,2 -1,2 -1,1 -2,1 -3,1 -1,0 -1,0 -2,0 -1,-1 -1,-1 -2,-2 0,0 0,-1 0,-1l2 0c0,0 0,1 0,1 1,1 1,1 2,1 1,0 1,0 2,-1 0,0 0,0 0,-1z"/>
  </g>
  <g id="_2232081702960">
   <path class="fil3" d="M198 81c32,-3 59,20 62,51 3,31 -20,59 -51,62 -31,3 -59,-20 -62,-51 -3,-32 20,-59 51,-62z"/>
   <polygon class="fil4" points="193,144 191,144 191,130 193,130 "/>
   <path id="1" class="fil4" d="M195 139c0,-1 1,-2 1,-3 0,-1 1,-1 2,-2 0,0 1,0 2,0 1,0 2,0 3,1 1,1 2,2 2,4l0 0c0,1 -1,2 -1,3 0,0 -1,1 -2,2 0,0 -1,0 -2,0 -1,0 -3,0 -3,-1 -1,-1 -2,-2 -2,-4l0 0zm2 0c0,1 0,2 1,3 0,0 1,1 2,1 1,0 2,-1 2,-1 1,-1 1,-2 1,-3 0,-1 0,-2 -1,-3 0,-1 -1,-1 -2,-1 -1,0 -2,0 -2,1 -1,1 -1,2 -1,3z"/>
   <polygon id="2" class="fil4" points="216,132 212,132 212,144 210,144 210,132 206,132 206,130 216,130 "/>
  </g>
  <g id="_2232081704880">
   <path class="fil3" d="M129 177c32,-3 59,20 62,51 3,32 -20,60 -51,62 -31,3 -59,-19 -62,-51 -3,-31 20,-59 51,-62z"/>
   <path class="fil4" d="M115 227l-3 0 0 5 -2 0 0 -13 5 0c1,0 2,0 3,1 1,0 1,2 1,3 0,1 0,1 0,2 -1,1 -1,1 -2,1l3 6 0 0 -2 0 -3 -5zm-3 -2l3 0c0,0 1,0 2,0 0,-1 0,-1 0,-2 0,-1 0,-2 0,-2 -1,-1 -1,-1 -2,-1l-3 0 0 5z"/>
   <path id="1" class="fil4" d="M126 233c-2,0 -3,-1 -4,-2 0,-1 -1,-2 -1,-3l0 -1c0,-1 0,-2 1,-2 0,-1 1,-2 1,-2 1,-1 2,-1 3,-1 1,0 2,0 3,1 0,1 1,2 1,4l0 1 -7 0c0,1 0,2 1,2 0,1 1,1 2,1 0,0 1,0 1,0 1,0 1,-1 1,-1l2 1c-1,1 -3,2 -4,2zm0 -10c-1,0 -2,1 -2,1 -1,1 -1,1 -1,2l5 0 0 0c0,-1 0,-1 -1,-2 0,0 -1,-1 -1,-1z"/>
   <path id="2" class="fil4" d="M131 227c0,-1 1,-3 1,-4 1,0 2,-1 3,-1 1,0 2,0 3,1l0 -5 2 0 0 14 -2 0 0 -1c-1,1 -2,2 -3,2 -1,0 -2,-1 -3,-2 0,-1 -1,-2 -1,-4l0 0zm2 0c0,2 0,2 1,3 0,1 1,1 2,1 1,0 2,0 2,-1l0 -5c0,-1 -1,-1 -2,-1 -1,0 -2,0 -2,1 -1,0 -1,1 -1,2z"/>
   <path id="3" class="fil4" d="M147 233c-2,0 -3,-1 -4,-2 -1,-1 -1,-2 -1,-3l0 -1c0,-1 0,-2 1,-2 0,-1 1,-2 1,-2 1,-1 2,-1 2,-1 2,0 3,0 4,1 0,1 1,2 1,4l0 1 -7 0c0,1 0,2 1,2 0,1 1,1 2,1 0,0 1,0 1,0 1,0 1,-1 1,-1l1 1c0,1 -2,2 -3,2zm-1 -10c0,0 -1,1 -1,1 -1,1 -1,1 -1,2l5 0 0 0c0,-1 0,-1 -1,-2 0,0 -1,-1 -2,-1z"/>
   <path id="4" class="fil4" d="M159 230c0,-1 -1,-1 -1,-1 0,-1 -1,-1 -2,-1 -1,0 -1,0 -2,-1 0,0 -1,0 -1,-1 0,0 0,0 0,-1 0,-1 0,-2 1,-2 0,-1 1,-1 2,-1 1,0 2,0 3,1 1,1 1,1 1,2l-2 0c0,0 0,-1 0,-1 -1,0 -1,-1 -2,-1 0,0 -1,1 -1,1 -1,0 -1,1 -1,1 0,0 0,1 1,1 0,0 1,0 2,1 0,0 1,0 2,0 0,0 1,1 1,1 0,1 0,1 0,2 0,0 0,1 -1,2 -1,0 -1,1 -3,1 0,0 -1,-1 -2,-1 0,0 -1,-1 -1,-1 -1,-1 -1,-1 -1,-2l2 0c0,1 0,1 1,2 0,0 1,0 1,0 1,0 2,0 2,0 0,-1 1,-1 1,-1z"/>
   <path id="5" class="fil4" d="M109 244c-1,-1 -2,-1 -3,-2 -1,-1 -1,-2 -1,-3 0,-1 0,-1 1,-2 1,-1 2,-1 4,-1 1,0 1,0 2,0 1,1 1,1 2,2 0,0 0,1 0,2l-1 0c0,-1 -1,-2 -1,-2 -1,-1 -1,-1 -2,-1 -1,0 -2,0 -2,1 -1,0 -1,1 -1,1 0,1 0,1 1,2 0,0 1,1 2,1 1,0 2,1 3,1 0,0 1,1 1,1 0,1 1,1 1,2 0,1 -1,2 -2,3 -1,0 -2,1 -3,1 -1,0 -2,0 -3,-1 -1,0 -1,-1 -2,-1 0,-1 0,-2 0,-2l1 0c0,0 1,1 1,2 1,0 2,0 3,0 1,0 1,0 2,0 0,-1 1,-1 1,-2 0,-1 -1,-1 -1,-1 0,-1 -1,-1 -3,-1z"/>
   <path id="6" class="fil4" d="M116 244c0,-1 0,-1 1,-2 0,-1 1,-2 1,-2 1,0 2,-1 3,-1 1,0 2,1 3,2 1,1 1,2 1,4l0 0c0,1 0,2 0,2 -1,1 -1,2 -2,2 -1,1 -1,1 -2,1 -2,0 -3,-1 -4,-2 0,-1 -1,-2 -1,-3l0 -1zm2 1c0,1 0,2 1,2 0,1 1,1 2,1 1,0 1,0 2,-1 0,0 1,-1 1,-3 0,-1 -1,-2 -1,-2 -1,-1 -1,-1 -2,-1 -1,0 -2,0 -2,1 -1,0 -1,1 -1,3z"/>
   <path id="7" class="fil4" d="M132 248c0,0 1,0 1,0 1,-1 1,-1 1,-2l2 0c0,1 -1,2 -1,2 0,1 -1,1 -2,1 0,1 -1,1 -1,1 -2,0 -3,-1 -4,-2 -1,-1 -1,-2 -1,-3l0 -1c0,-1 0,-2 1,-2 0,-1 0,-2 1,-2 1,-1 2,-1 3,-1 1,0 2,1 2,1 1,1 1,2 2,3l-2 0c0,-1 0,-1 -1,-2 0,0 -1,0 -1,0 -1,0 -2,0 -3,1 0,0 0,1 0,2l0 1c0,1 0,2 0,2 1,1 2,1 3,1z"/>
   <path id="8" class="fil4" d="M139 250l-1 0 0 -11 1 0 0 11zm-2 -13c0,0 1,-1 1,-1 0,0 0,0 1,0 0,0 0,0 0,0 0,0 1,1 1,1 0,0 -1,0 -1,0 0,1 0,1 0,1 -1,0 -1,0 -1,-1 0,0 -1,0 -1,0z"/>
   <path id="9" class="fil4" d="M148 250c0,-1 0,-1 0,-1 -1,0 -2,1 -3,1 -1,0 -2,-1 -2,-1 -1,-1 -1,-1 -1,-2 0,-1 0,-2 1,-3 1,0 2,-1 3,-1l2 0 0 0c0,-1 0,-1 0,-2 -1,0 -1,0 -2,0 -1,0 -1,0 -2,0 0,0 0,1 0,1l-2 0c0,0 0,-1 1,-1 0,-1 0,-1 1,-1 1,-1 1,-1 2,-1 1,0 2,1 3,1 0,1 1,2 1,3l0 4c0,1 0,2 0,2l0 1 -2 0zm-2 -2c0,0 1,0 1,0 1,0 1,-1 1,-1l0 -2 -1 0c-2,0 -3,0 -3,2 0,0 0,1 0,1 0,0 1,0 2,0z"/>
   <path id="10" class="fil4" d="M154 250l-1 0 0 -11 1 0 0 11zm-1 -13c0,0 0,-1 0,-1 0,0 0,0 1,0 0,0 0,0 0,0 1,0 1,1 1,1 0,0 0,0 -1,0 0,1 0,1 0,1 -1,0 -1,0 -1,-1 0,0 0,0 0,0z"/>
   <path id="11" class="fil4" d="M163 247c0,-1 0,-1 0,-1 -1,0 -1,-1 -2,-1 -1,0 -2,0 -2,-1 -1,0 -1,0 -2,0 0,-1 0,-1 0,-2 0,-1 0,-1 1,-2 1,0 2,-1 3,-1 1,0 2,1 3,1 0,1 1,2 1,2l-2 0c0,0 0,0 -1,-1 0,0 -1,0 -1,0 -1,0 -1,0 -2,0 0,0 0,1 0,1 0,1 0,1 0,1 1,0 1,1 2,1 1,0 2,0 2,0 1,1 1,1 1,1 1,1 1,1 1,2 0,1 -1,1 -1,2 -1,1 -2,1 -3,1 -1,0 -2,0 -2,-1 -1,0 -1,0 -2,-1 0,0 0,-1 0,-2l2 0c0,1 0,2 0,2 1,0 1,0 2,0 1,0 1,0 1,0 1,0 1,-1 1,-1z"/>
  </g>
  <g id="_2232081706800">
   <path class="fil3" d="M95 407c31,-3 59,20 62,51 3,31 -20,59 -51,62 -31,3 -59,-20 -62,-51 -3,-32 20,-59 51,-62z"/>
   <path class="fil4" d="M70 457c0,2 -1,3 -2,4 0,0 -2,1 -3,1 -2,0 -3,-1 -4,-2 -1,-1 -1,-3 -1,-5l0 -1c0,-1 0,-2 0,-3 1,-1 1,-2 2,-3 1,0 2,0 3,0 1,0 3,0 3,1 1,1 2,2 2,3l-2 0c0,-1 0,-2 -1,-2 0,-1 -1,-1 -2,-1 -1,0 -2,1 -3,1 0,1 -1,2 -1,4l0 1c0,2 1,3 1,4 1,1 2,1 3,1 1,0 2,0 2,0 1,-1 1,-2 1,-3l2 0z"/>
   <path id="1" class="fil4" d="M78 460c0,1 -1,2 -3,2 -1,0 -1,-1 -2,-1 -1,-1 -1,-2 -1,-3l0 -7 2 0 0 7c0,1 0,2 2,2 1,0 2,0 2,-1l0 -8 2 0 0 10 -2 0 0 -1z"/>
   <path id="2" class="fil4" d="M89 459c0,-1 -1,-1 -1,-1 0,-1 -1,-1 -2,-1 -1,0 -1,0 -2,-1 0,0 -1,0 -1,-1 0,0 0,0 0,-1 0,-1 0,-1 1,-2 0,-1 1,-1 2,-1 2,0 2,0 3,1 1,1 1,1 1,2l-1 0c0,0 -1,-1 -1,-1 0,0 -1,0 -2,0 0,0 -1,0 -1,0 0,0 -1,1 -1,1 0,1 1,1 1,1 0,0 1,0 2,1 1,0 1,0 2,0 0,1 1,1 1,1 0,1 0,1 0,2 0,1 0,1 -1,2 0,0 -1,1 -3,1 0,0 -1,0 -2,-1 0,0 -1,0 -1,-1 -1,0 -1,-1 -1,-2l2 0c0,1 0,1 1,2 0,0 1,0 1,0 1,0 2,0 2,0 0,0 1,-1 1,-1z"/>
   <path id="3" class="fil4" d="M95 449l0 2 2 0 0 2 -2 0 0 6c0,0 0,1 0,1 0,0 1,0 1,0 0,0 1,0 1,0l0 1c-1,1 -1,1 -1,1 -1,0 -2,-1 -2,-1 -1,0 -1,-1 -1,-2l0 -6 -2 0 0 -2 2 0 0 -2 2 0z"/>
   <path id="4" class="fil4" d="M98 456c0,-1 0,-2 1,-2 0,-1 1,-2 1,-2 1,-1 2,-1 3,-1 1,0 2,1 3,2 1,1 1,2 1,3l0 1c0,1 0,1 0,2 -1,1 -1,2 -2,2 0,0 -1,1 -2,1 -2,0 -3,-1 -4,-2 0,-1 -1,-2 -1,-4l0 0zm2 1c0,1 0,2 1,2 0,1 1,1 2,1 1,0 1,0 2,-1 0,0 1,-1 1,-3 0,-1 -1,-2 -1,-2 -1,-1 -1,-1 -2,-1 -1,0 -2,0 -2,1 -1,0 -1,1 -1,3z"/>
   <path id="5" class="fil4" d="M111 451l0 1c1,0 2,-1 3,-1 2,0 3,1 3,2 0,-1 1,-1 1,-1 1,-1 2,-1 2,-1 3,0 4,1 4,4l0 6 -2 0 0 -6c0,-1 0,-1 0,-2 -1,0 -1,0 -2,0 -1,0 -1,0 -2,0 0,1 0,1 0,2l0 6 -2 0 0 -6c0,-2 -1,-2 -2,-2 -1,0 -2,0 -3,1l0 7 -1 0 0 -10 1 0z"/>
   <path id="6" class="fil4" d="M131 462c-2,0 -3,-1 -4,-2 -1,-1 -1,-2 -1,-3l0 -1c0,-1 0,-2 1,-2 0,-1 0,-2 1,-2 1,-1 2,-1 2,-1 2,0 3,1 3,1 1,1 2,3 2,4l0 1 -7 0c0,1 0,2 1,2 0,1 1,1 2,1 0,0 1,0 1,0 1,0 1,-1 1,-1l1 1c0,1 -2,2 -3,2zm-1 -9c0,0 -1,0 -1,0 -1,1 -1,2 -1,3l5 0 0 -1c0,0 0,-1 -1,-2 0,0 -1,0 -2,0z"/>
   <path id="7" class="fil4" d="M141 453c0,0 0,0 0,0 -2,0 -2,0 -3,1l0 7 -1 0 0 -10 1 0 0 2c1,-1 2,-2 3,-2 0,0 0,0 0,0l0 2z"/>
   <path id="8" class="fil4" d="M72 473l-3 0 0 6 -2 0 0 -14 4 0c2,0 3,0 4,1 1,1 1,2 1,3 0,1 0,2 -1,2 0,1 -1,2 -2,2l4 6 0 0 -2 0 -3 -6zm-3 -1l2 0c1,0 2,0 2,-1 1,0 1,-1 1,-2 0,-1 0,-1 -1,-2 0,0 -1,0 -2,0l-2 0 0 5z"/>
   <path id="9" class="fil4" d="M82 479c-1,0 -2,-1 -3,-1 -1,-1 -1,-3 -1,-4l0 0c0,-1 0,-2 0,-3 1,-1 1,-1 2,-2 1,0 1,-1 2,-1 2,0 3,1 3,2 1,1 1,2 1,3l0 1 -6 0c0,1 0,2 0,3 1,0 2,0 3,0 0,0 1,0 1,0 0,0 1,0 1,-1l1 1c-1,1 -2,2 -4,2zm0 -9c0,0 -1,0 -2,1 0,0 0,1 0,2l5 0 0 0c0,-1 -1,-2 -1,-2 0,-1 -1,-1 -2,-1z"/>
   <path id="10" class="fil4" d="M92 477c1,0 2,0 2,0 0,0 1,-1 1,-1l1 0c0,0 0,1 0,1 -1,1 -1,1 -2,1 0,1 -1,1 -2,1 -1,0 -2,-1 -3,-1 -1,-1 -1,-3 -1,-4l0 -1c0,-1 0,-1 0,-2 1,-1 1,-2 2,-2 1,0 1,-1 2,-1 2,0 2,1 3,1 1,1 1,2 1,3l-1 0c0,-1 0,-1 -1,-2 0,0 -1,0 -2,0 0,0 -1,0 -2,1 0,0 0,1 0,3l0 0c0,1 0,2 0,3 1,0 2,0 2,0z"/>
   <path id="11" class="fil4" d="M98 474c0,-1 0,-2 1,-3 0,-1 0,-2 1,-2 1,0 2,-1 3,-1 1,0 2,1 3,2 1,1 1,2 1,4l0 0c0,1 0,2 0,2 -1,1 -1,2 -2,2 -1,1 -2,1 -2,1 -2,0 -3,-1 -4,-2 -1,0 -1,-2 -1,-3l0 0zm2 0c0,1 0,2 0,2 1,1 2,1 3,1 0,0 1,0 2,-1 0,0 0,-1 0,-2 0,-2 0,-2 0,-3 -1,-1 -2,-1 -2,-1 -1,0 -2,0 -3,1 0,1 0,2 0,3z"/>
   <path id="12" class="fil4" d="M114 470c0,0 0,0 -1,0 -1,0 -2,1 -2,2l0 7 -2 0 0 -10 2 0 0 1c1,-1 1,-2 2,-2 1,0 1,0 1,1l0 1z"/>
   <path id="13" class="fil4" d="M115 474c0,-2 1,-3 1,-4 1,-1 2,-2 3,-2 1,0 2,1 3,2l0 -6 2 0 0 15 -2 0 0 -1c-1,0 -2,1 -3,1 -1,0 -2,-1 -3,-2 0,0 -1,-2 -1,-3l0 0zm2 0c0,1 0,2 1,2 0,1 1,1 2,1 1,0 1,0 2,-1l0 -5c-1,-1 -1,-1 -2,-1 -1,0 -2,0 -2,1 -1,1 -1,1 -1,3z"/>
   <path id="14" class="fil4" d="M132 476c0,0 0,-1 0,-1 -1,0 -1,-1 -2,-1 -1,0 -2,0 -2,0 -1,-1 -1,-1 -1,-1 -1,-1 -1,-1 -1,-2 0,0 1,-1 1,-2 1,0 2,-1 3,-1 1,0 2,1 3,1 1,1 1,2 1,3l-2 0c0,-1 0,-1 0,-2 -1,0 -1,0 -2,0 -1,0 -1,0 -1,0 -1,1 -1,1 -1,1 0,1 0,1 1,1 0,0 0,1 1,1 1,0 2,0 2,1 1,0 1,0 2,1 0,0 0,0 0,1 0,1 0,2 -1,2 -1,1 -2,1 -3,1 -1,0 -1,0 -2,-1 -1,0 -1,0 -1,-1 -1,0 -1,-1 -1,-1l2 0c0,0 0,1 0,1 1,0 1,0 2,0 1,0 1,0 2,0 0,0 0,-1 0,-1z"/>
  </g>
  <path class="fil5" d="M130 48c0,2 -1,3 -1,4 -1,1 -1,1 -2,2 -1,1 -2,1 -3,1 -1,0 -2,0 -3,-1 -1,-1 -1,-1 -2,-2 0,-1 0,-2 0,-4l0 -1c0,-1 0,-2 0,-3 1,-1 1,-2 2,-2 1,-1 2,-1 3,-1 1,0 2,0 3,1 1,0 1,1 2,2 0,1 1,2 1,3l0 1zm-2 -1c0,-1 -1,-3 -1,-3 -1,-1 -2,-2 -3,-2 -1,0 -2,1 -3,2 0,0 -1,2 -1,3l0 1c0,2 1,3 1,4 1,1 2,1 3,1 1,0 2,0 3,-1 0,-1 1,-2 1,-4l0 -1z"/>
  <path id="1" class="fil5" d="M138 49l-3 0 0 6 -2 0 0 -14 5 0c1,0 3,0 3,1 1,1 2,2 2,3 0,1 -1,2 -1,2 0,1 -1,1 -2,2l3 5 0 1 -2 0 -3 -6zm-3 -1l3 0c1,0 2,-1 2,-1 1,-1 1,-1 1,-2 0,-1 0,-1 -1,-2 0,0 -1,-1 -2,-1l-3 0 0 6z"/>
  <polygon id="2" class="fil5" points="148,55 146,55 146,41 148,41 "/>
  <path id="3" class="fil5" d="M163 53c-1,0 -1,1 -2,1 -1,1 -2,1 -3,1 -1,0 -2,0 -3,-1 -1,-1 -2,-1 -2,-2 0,-1 -1,-2 -1,-4l0 -1c0,-2 1,-3 2,-5 1,-1 2,-1 4,-1 1,0 2,0 3,1 1,1 2,2 2,3l-2 0c0,-2 -1,-3 -3,-3 -1,0 -2,1 -3,2 -1,0 -1,2 -1,3l0 1c0,2 0,3 1,4 1,1 2,1 3,1 1,0 1,0 2,0 0,0 1,0 1,-1l0 -3 -3 0 0 -1 5 0 0 5z"/>
  <polygon id="4" class="fil5" points="175,48 169,48 169,53 176,53 176,55 167,55 167,41 175,41 175,42 169,42 169,47 175,47 "/>
  <polygon id="5" class="fil5" points="189,55 188,55 181,44 181,55 179,55 179,41 181,41 188,52 188,41 189,41 "/>
  <path id="6" class="fil5" d="M198 49c-2,-1 -3,-1 -4,-2 0,-1 -1,-2 -1,-3 0,-1 1,-1 2,-2 0,-1 2,-1 3,-1 1,0 2,0 2,0 1,1 2,1 2,2 1,0 1,1 1,2l-2 0c0,-1 0,-2 -1,-2 0,-1 -1,-1 -2,-1 -1,0 -2,0 -2,1 -1,0 -1,1 -1,1 0,1 0,1 1,2 0,0 1,1 2,1 1,0 2,1 3,1 1,0 1,1 1,1 1,1 1,1 1,2 0,1 -1,2 -2,3 0,0 -2,1 -3,1 -1,0 -2,0 -3,-1 0,0 -1,-1 -1,-1 -1,-1 -1,-2 -1,-2l2 0c0,0 0,1 1,2 0,0 1,0 2,0 1,0 2,0 2,0 1,-1 1,-1 1,-2 0,-1 0,-1 -1,-1 0,-1 -1,-1 -2,-1z"/>
  <polygon id="7" class="fil5" points="245,55 243,55 243,41 245,41 "/>
  <polygon id="8" class="fil5" points="260,55 258,55 251,44 251,55 249,55 249,41 251,41 258,52 258,41 260,41 "/>
  <path id="9" class="fil5" d="M274 53c0,0 -1,1 -2,1 -1,1 -2,1 -3,1 -1,0 -2,0 -3,-1 0,-1 -1,-1 -2,-2 0,-1 0,-2 0,-4l0 -1c0,-2 0,-3 1,-5 1,-1 2,-1 4,-1 2,0 3,0 4,1 0,1 1,2 1,3l-2 0c0,-2 -1,-3 -3,-3 -1,0 -2,1 -3,2 0,0 -1,2 -1,3l0 1c0,2 1,3 2,4 0,1 1,1 2,1 1,0 2,0 2,0 1,0 1,0 1,-1l0 -3 -3 0 0 -1 5 0 0 5z"/>
  <polygon id="10" class="fil5" points="286,48 280,48 280,53 287,53 287,55 278,55 278,41 287,41 287,42 280,42 280,47 286,47 "/>
  <path id="11" class="fil5" d="M294 49c-1,-1 -2,-1 -3,-2 -1,-1 -1,-2 -1,-3 0,-1 0,-1 1,-2 1,-1 2,-1 4,-1 0,0 1,0 2,0 1,1 1,1 2,2 0,0 0,1 0,2l-1 0c0,-1 -1,-2 -1,-2 -1,-1 -1,-1 -2,-1 -1,0 -2,0 -3,1 0,0 0,1 0,1 0,1 0,1 0,2 1,0 2,1 3,1 1,0 2,1 3,1 0,0 1,1 1,1 0,1 0,1 0,2 0,1 0,2 -1,3 -1,0 -2,1 -3,1 -1,0 -2,0 -3,-1 -1,0 -1,-1 -2,-1 0,-1 0,-2 0,-2l1 0c0,0 1,1 1,2 1,0 2,0 3,0 1,0 1,0 2,0 0,-1 1,-1 1,-2 0,-1 -1,-1 -1,-1 -1,-1 -1,-1 -3,-1z"/>
  <polygon id="12" class="fil5" points="312,42 308,42 308,55 306,55 306,42 302,42 302,41 312,41 "/>
  <path id="13" class="fil5" d="M322 51l-6 0 -1 4 -2 0 6 -14 1 0 5 14 -2 0 -1 -4zm-5 -1l5 0 -3 -7 -2 7zm6 -12c0,0 -1,1 -1,1 0,1 -1,1 -1,1 -1,0 -1,0 -1,0 0,0 0,0 -1,-1 0,0 0,0 0,0 -1,0 -1,0 -1,0 0,0 0,0 0,0 -1,1 -1,1 -1,1l-1 0c0,-1 0,-1 1,-2 0,0 1,0 1,0 0,0 0,0 1,0 0,0 0,0 0,0 1,0 1,0 1,1 0,0 0,0 1,0 0,0 0,0 0,-1 0,0 1,0 1,0l1 0z"/>
  <path id="14" class="fil5" d="M339 48c0,2 -1,3 -1,4 0,1 -1,1 -2,2 -1,1 -2,1 -3,1 -1,0 -2,0 -3,-1 0,-1 -1,-1 -2,-2 0,-1 0,-2 0,-4l0 -1c0,-1 0,-2 0,-3 1,-1 2,-2 2,-2 1,-1 2,-1 3,-1 1,0 2,0 3,1 1,0 2,1 2,2 0,1 1,2 1,3l0 1zm-2 -1c0,-1 0,-3 -1,-3 -1,-1 -2,-2 -3,-2 -1,0 -2,1 -2,2 -1,0 -1,2 -1,3l0 1c0,2 0,3 0,4 1,1 2,1 3,1 1,0 2,0 3,-1 1,-1 1,-2 1,-4l0 -1z"/>
  <path id="15" class="fil5" d="M367 49l0 6 -2 0 0 -14 5 0c2,0 3,0 4,1 0,1 1,2 1,3 0,1 -1,2 -1,3 -1,1 -2,1 -4,1l-3 0zm0 -1l3 0c1,0 2,0 2,-1 1,0 1,-1 1,-2 0,-1 0,-1 -1,-2 0,0 -1,-1 -2,-1l-3 0 0 6z"/>
  <path id="16" class="fil5" d="M383 49l-3 0 0 6 -2 0 0 -14 5 0c1,0 2,0 3,1 1,1 2,2 2,3 0,1 -1,2 -1,2 -1,1 -1,1 -2,2l3 5 0 1 -2 0 -3 -6zm-3 -1l3 0c1,0 1,-1 2,-1 0,-1 1,-1 1,-2 0,-1 0,-1 -1,-2 0,0 -1,-1 -2,-1l-3 0 0 6z"/>
  <polygon id="17" class="fil5" points="399,48 393,48 393,53 400,53 400,55 391,55 391,41 400,41 400,42 393,42 393,47 399,47 "/>
  <path id="18" class="fil5" d="M405 49l0 6 -2 0 0 -14 5 0c2,0 3,0 4,1 1,1 1,2 1,3 0,1 0,2 -1,3 -1,1 -2,1 -4,1l-3 0zm0 -1l3 0c1,0 2,0 2,-1 1,0 1,-1 1,-2 0,-1 0,-1 -1,-2 0,0 -1,-1 -2,-1l-3 0 0 6z"/>
  <path id="19" class="fil5" d="M423 51l-6 0 -1 4 -2 0 5 -14 2 0 5 14 -2 0 -1 -4zm-5 -1l4 0 -2 -7 -2 7z"/>
  <path id="20" class="fil5" d="M434 49l-3 0 0 6 -2 0 0 -14 4 0c2,0 3,0 4,1 1,1 1,2 1,3 0,1 0,2 -1,2 0,1 -1,1 -2,2l4 5 0 1 -2 0 -3 -6zm-3 -1l2 0c1,0 2,-1 2,-1 1,-1 1,-1 1,-2 0,-1 0,-1 0,-2 -1,0 -2,-1 -3,-1l-2 0 0 6z"/>
  <path id="21" class="fil5" d="M452 48c0,2 0,3 0,4 -1,1 -2,1 -2,2 -1,1 -2,1 -3,1 -1,0 -2,0 -3,-1 -1,-1 -2,-1 -2,-2 0,-1 -1,-2 -1,-4l0 -1c0,-1 0,-2 1,-3 0,-1 1,-2 2,-2 1,-1 2,-1 3,-1 1,0 2,0 3,1 0,0 1,1 2,2 0,1 0,2 0,3l0 1zm-2 -1c0,-1 0,-3 -1,-3 0,-1 -1,-2 -2,-2 -1,0 -2,1 -3,2 -1,0 -1,2 -1,3l0 1c0,2 0,3 1,4 1,1 2,1 3,1 1,0 2,0 2,-1 1,-1 1,-2 1,-4l0 -1z"/>
  <path id="22" class="fil5" d="M486 51l-6 0 -1 4 -2 0 5 -14 2 0 5 14 -2 0 -1 -4zm-5 -1l5 0 -3 -7 -2 7z"/>
  <polygon id="23" class="fil5" points="503,55 501,55 494,44 494,55 492,55 492,41 494,41 501,52 501,41 503,41 "/>
  <path id="24" class="fil5" d="M515 51l-6 0 -1 4 -2 0 5 -14 2 0 5 14 -2 0 -1 -4zm-5 -1l4 0 -2 -7 -2 7zm3 -13l2 0 -3 3 -1 0 2 -3z"/>
  <polygon id="25" class="fil5" points="523,53 529,53 529,55 521,55 521,41 523,41 "/>
  <polygon id="26" class="fil5" points="534,55 532,55 532,41 534,41 "/>
  <path id="27" class="fil5" d="M543 49c-2,-1 -3,-1 -4,-2 0,-1 -1,-2 -1,-3 0,-1 1,-1 2,-2 0,-1 1,-1 3,-1 1,0 2,0 2,0 1,1 2,1 2,2 0,0 1,1 1,2l-2 0c0,-1 0,-2 -1,-2 0,-1 -1,-1 -2,-1 -1,0 -2,0 -2,1 -1,0 -1,1 -1,1 0,1 0,1 1,2 0,0 1,1 2,1 1,0 2,1 3,1 0,0 1,1 1,1 1,1 1,1 1,2 0,1 -1,2 -2,3 0,0 -2,1 -3,1 -1,0 -2,0 -3,-1 0,0 -1,-1 -2,-1 0,-1 0,-2 0,-2l2 0c0,0 0,1 1,2 0,0 1,0 2,0 1,0 2,0 2,0 1,-1 1,-1 1,-2 0,-1 0,-1 -1,-1 0,-1 -1,-1 -2,-1z"/>
  <polygon id="28" class="fil5" points="559,48 553,48 553,53 560,53 560,55 551,55 551,41 560,41 560,42 553,42 553,47 559,47 "/>
  <path id="29" class="fil5" d="M588 49l0 6 -2 0 0 -14 5 0c1,0 2,0 3,1 1,1 2,2 2,3 0,1 -1,2 -2,3 -1,1 -2,1 -3,1l-3 0zm0 -1l3 0c1,0 1,0 2,-1 0,0 1,-1 1,-2 0,-1 -1,-1 -1,-2 -1,0 -1,-1 -2,-1l-3 0 0 6z"/>
  <path id="30" class="fil5" d="M609 41l0 9c0,2 -1,3 -2,3 0,1 -2,2 -3,2l0 0c-2,0 -3,-1 -4,-1 -1,-1 -1,-2 -1,-4l0 -9 1 0 0 9c0,1 1,2 1,2 1,1 2,1 3,1 1,0 1,0 2,-1 0,0 1,-1 1,-2l0 -9 2 0z"/>
  <path id="31" class="fil5" d="M613 55l0 -14 4 0c1,0 3,0 3,1 1,1 1,1 1,3 0,0 0,1 0,1 0,1 -1,1 -2,1 1,1 2,1 2,2 1,0 1,1 1,2 0,1 -1,2 -1,3 -1,0 -2,1 -4,1l-4 0zm1 -7l0 5 3 0c1,0 2,0 2,-1 1,0 1,-1 1,-1 0,-2 -1,-3 -3,-3l-3 0zm0 -1l3 0c1,0 1,0 2,-1 0,0 1,-1 1,-1 0,-1 -1,-2 -1,-2 0,0 -1,-1 -2,-1l-3 0 0 5z"/>
  <polygon id="32" class="fil5" points="627,53 634,53 634,55 626,55 626,41 627,41 "/>
  <polygon id="33" class="fil5" points="639,55 637,55 637,41 639,41 "/>
  <path id="34" class="fil5" d="M653 50c0,2 0,3 -1,4 -1,0 -2,1 -4,1 -1,0 -3,-1 -4,-2 -1,-1 -1,-3 -1,-5l0 -1c0,-1 0,-2 1,-3 0,-1 1,-2 2,-2 0,-1 1,-1 2,-1 2,0 3,0 4,1 1,1 1,2 1,3l-1 0c-1,-1 -1,-2 -1,-2 -1,-1 -2,-1 -3,-1 -1,0 -2,1 -2,2 -1,0 -1,2 -1,3l0 1c0,2 0,3 1,4 0,1 1,1 2,1 1,0 2,0 3,0 0,-1 0,-2 1,-3l1 0z"/>
  <path id="35" class="fil5" d="M664 51l-5 0 -1 4 -2 0 5 -14 1 0 6 14 -2 0 -2 -4zm-5 -1l5 0 -2 -7 -3 7z"/>
  <path id="36" class="fil5" d="M681 50c-1,2 -1,3 -2,4 -1,0 -2,1 -4,1 -1,0 -3,-1 -4,-2 0,-1 -1,-3 -1,-5l0 -1c0,-1 0,-2 1,-3 0,-1 1,-2 2,-2 0,-1 1,-1 3,-1 1,0 2,0 3,1 1,1 1,2 2,3l-2 0c0,-1 -1,-2 -1,-2 -1,-1 -2,-1 -2,-1 -2,0 -3,1 -3,2 -1,0 -1,2 -1,3l0 1c0,2 0,3 1,4 0,1 1,1 2,1 1,0 2,0 3,0 0,-1 1,-2 1,-3l2 0zm-5 5l0 0c1,0 1,1 1,2 0,0 0,1 0,1 -1,1 -2,1 -3,1l0 -1c1,0 1,0 2,-1 0,0 0,0 0,0 0,0 0,-1 0,-1 -1,0 -1,0 -2,0l1 -1 1 0z"/>
  <path id="37" class="fil5" d="M692 51l-6 0 -1 4 -2 0 5 -14 2 0 5 14 -2 0 -1 -4zm-6 -1l5 0 -2 -7 -3 7zm6 -12c0,0 0,1 0,1 -1,1 -1,1 -2,1 0,0 0,0 -1,0 0,0 0,0 0,-1 -1,0 -1,0 -1,0 0,0 0,0 0,0 -1,0 -1,0 -1,0 0,1 0,1 0,1l-1 0c0,-1 0,-1 0,-2 0,0 1,0 2,0 0,0 0,0 0,0 0,0 1,0 1,0 0,0 0,0 1,1 0,0 0,0 0,0 0,0 1,0 1,-1 0,0 0,0 0,0l1 0z"/>
  <path id="38" class="fil5" d="M708 48c0,2 0,3 -1,4 0,1 -1,1 -1,2 -1,1 -2,1 -3,1 -1,0 -2,0 -3,-1 -1,-1 -2,-1 -2,-2 -1,-1 -1,-2 -1,-4l0 -1c0,-1 0,-2 1,-3 0,-1 1,-2 2,-2 1,-1 2,-1 3,-1 1,0 2,0 3,1 0,0 1,1 1,2 1,1 1,2 1,3l0 1zm-2 -1c0,-1 0,-3 -1,-3 0,-1 -1,-2 -2,-2 -1,0 -2,1 -3,2 -1,0 -1,2 -1,3l0 1c0,2 0,3 1,4 1,1 2,1 3,1 1,0 2,0 2,-1 1,-1 1,-2 1,-4l0 -1z"/>
  <path id="39" class="fil5" d="M759 50c0,2 -1,3 -2,4 -1,0 -2,1 -3,1 -2,0 -3,-1 -4,-2 -1,-1 -2,-3 -2,-5l0 -1c0,-1 0,-2 1,-3 0,-1 1,-2 2,-2 1,-1 2,-1 3,-1 1,0 2,0 3,1 1,1 2,2 2,3l-2 0c0,-1 -1,-2 -1,-2 -1,-1 -1,-1 -2,-1 -1,0 -2,1 -3,2 -1,0 -1,2 -1,3l0 1c0,2 0,3 1,4 1,1 1,1 3,1 1,0 1,0 2,0 0,-1 1,-2 1,-3l2 0z"/>
  <path id="40" class="fil5" d="M773 48c0,2 0,3 -1,4 0,1 -1,1 -2,2 -1,1 -2,1 -3,1 -1,0 -2,0 -3,-1 0,-1 -1,-1 -1,-2 -1,-1 -1,-2 -1,-4l0 -1c0,-1 0,-2 1,-3 0,-1 1,-2 1,-2 1,-1 2,-1 3,-1 1,0 2,0 3,1 1,0 2,1 2,2 1,1 1,2 1,3l0 1zm-2 -1c0,-1 0,-3 -1,-3 -1,-1 -2,-2 -3,-2 -1,0 -2,1 -2,2 -1,0 -1,2 -1,3l0 1c0,2 0,3 1,4 0,1 1,1 2,1 2,0 2,0 3,-1 1,-1 1,-2 1,-4l0 -1z"/>
  <polygon id="41" class="fil5" points="787,55 785,55 778,44 778,55 777,55 777,41 778,41 785,52 785,41 787,41 "/>
  <path id="42" class="fil5" d="M795 49c-1,-1 -2,-1 -3,-2 -1,-1 -1,-2 -1,-3 0,-1 0,-1 1,-2 1,-1 2,-1 4,-1 1,0 1,0 2,0 1,1 1,1 2,2 0,0 0,1 0,2l-1 0c0,-1 -1,-2 -1,-2 -1,-1 -1,-1 -2,-1 -1,0 -2,0 -2,1 -1,0 -1,1 -1,1 0,1 0,1 1,2 0,0 1,1 2,1 1,0 2,1 3,1 0,0 1,1 1,1 0,1 0,1 0,2 0,1 0,2 -1,3 -1,0 -2,1 -3,1 -1,0 -2,0 -3,-1 -1,0 -1,-1 -2,-1 0,-1 0,-2 0,-2l1 0c0,0 1,1 1,2 1,0 2,0 3,0 1,0 1,0 2,0 0,-1 1,-1 1,-2 0,-1 -1,-1 -1,-1 0,-1 -1,-1 -3,-1z"/>
  <path id="43" class="fil5" d="M814 41l0 9c0,2 -1,3 -2,3 0,1 -2,2 -3,2l0 0c-2,0 -3,-1 -4,-1 -1,-1 -1,-2 -1,-4l0 -9 1 0 0 9c0,1 1,2 1,2 1,1 2,1 3,1 1,0 1,0 2,-1 0,0 1,-1 1,-2l0 -9 2 0z"/>
  <polygon id="44" class="fil5" points="820,41 824,52 829,41 831,41 831,55 829,55 829,49 829,44 825,55 824,55 819,44 819,49 819,55 818,55 818,41 "/>
  <path id="45" class="fil5" d="M846 48c0,2 0,3 -1,4 0,1 -1,1 -2,2 -1,1 -2,1 -3,1 -1,0 -2,0 -2,-1 -1,-1 -2,-1 -2,-2 -1,-1 -1,-2 -1,-4l0 -1c0,-1 0,-2 1,-3 0,-1 1,-2 1,-2 1,-1 2,-1 3,-1 1,0 2,0 3,1 1,0 2,1 2,2 1,1 1,2 1,3l0 1zm-2 -1c0,-1 0,-3 -1,-3 -1,-1 -1,-2 -3,-2 -1,0 -2,1 -2,2 -1,0 -1,2 -1,3l0 1c0,2 0,3 1,4 0,1 1,1 2,1 2,0 2,0 3,-1 1,-1 1,-2 1,-4l0 -1z"/>
  <path class="fil1 str0" d="M361 559l-155 227m155 -232c-49,-35 -78,-92 -78,-152 0,-61 29,-117 78,-153m0 0l-155 -228"/>
  <g>
   <path class="fil3" d="M849 290c-14,-1 -29,4 -39,12 -11,9 -18,22 -20,37 -1,15 4,29 13,40 8,10 21,18 36,19l0 0c15,2 29,-3 40,-12 11,-9 18,-22 19,-37l0 0c2,-15 -3,-29 -12,-39 -9,-11 -22,-18 -37,-20zm1 -2c-32,-3 -59,20 -62,51 -3,31 20,59 51,62 31,3 59,-20 62,-51 3,-32 -20,-59 -51,-62z"/>
  </g>
  <g>
   <path class="fil3" d="M741 616c-15,-1 -29,4 -39,12 -11,9 -18,22 -20,37 -1,15 3,29 12,40 9,10 22,18 37,19l0 0c15,2 29,-3 40,-12 10,-9 18,-22 19,-37l0 0c1,-15 -3,-29 -12,-39 -9,-11 -22,-18 -37,-20zm0 -2c-31,-3 -59,20 -61,51 -3,31 19,59 51,62 31,3 59,-20 62,-51 3,-32 -20,-59 -52,-62z"/>
  </g>
  <g>
   <path class="fil3" d="M811 521c-15,-1 -29,4 -39,13 -11,9 -18,21 -20,36 -1,15 4,29 12,40 9,11 22,18 37,19 15,2 29,-3 40,-12 10,-9 18,-21 19,-36 2,-15 -3,-29 -12,-40 -9,-11 -22,-18 -37,-20zm1 -2c-32,-3 -59,20 -62,51 -3,31 20,59 51,62 31,3 59,-20 62,-51 3,-31 -20,-59 -51,-62z"/>
  </g>
  <g>
   <path class="fil3" d="M746 83c-15,-1 -29,4 -40,12 -11,9 -18,22 -20,37 -1,15 4,29 13,40 8,11 21,18 36,19 15,2 29,-3 40,-12 11,-9 18,-22 19,-37 2,-14 -3,-29 -12,-39 -9,-11 -22,-18 -36,-20zm0 -2c-31,-3 -59,20 -62,51 -3,31 20,59 51,62 31,3 59,-20 62,-51 3,-32 -20,-59 -51,-62z"/>
  </g>
  <g>
   <path class="fil3" d="M815 180c-15,-2 -29,3 -40,12 -11,9 -18,22 -20,37 -1,15 4,29 13,39 8,11 21,18 36,20 15,1 29,-3 40,-12 11,-9 18,-22 19,-37 2,-15 -3,-29 -12,-40 -9,-10 -22,-18 -36,-19zm0 -3c-31,-3 -59,20 -62,51 -3,32 20,60 51,62 31,3 59,-19 62,-51 3,-31 -20,-59 -51,-62z"/>
  </g>
  <g>
   <path class="fil3" d="M849 409c-15,-1 -29,4 -40,12 -11,9 -18,22 -19,37 -2,15 3,29 12,40 9,11 22,18 36,19 15,2 29,-3 40,-12 11,-9 18,-22 20,-37 1,-14 -4,-29 -13,-39 -8,-11 -21,-18 -36,-20zm0 -2c-31,-3 -59,20 -62,51 -3,31 20,59 51,62 31,3 59,-20 62,-51 3,-32 -20,-59 -51,-62z"/>
  </g>
  <g>
   <path class="fil6" d="M377 319l-135 -140 2 -2 136 139 -3 3zm-12 -1l14 -14 11 26 -25 -12z"/>
  </g>
  <g>
   <path class="fil6" d="M355 354l-171 -92 2 -3 171 92 -2 3zm-11 3l9 -18 18 21 -27 -3z"/>
  </g>
  <g>
   <path class="fil6" d="M346 392l-191 -36 1 -3 191 36 -1 3zm-10 7l4 -20 24 15 -28 5z"/>
  </g>
  <g>
   <path class="fil6" d="M350 432l-193 25 0 -3 192 -25 1 3zm-8 9l-3 -19 28 6 -25 13z"/>
  </g>
  <g>
   <path class="fil6" d="M365 468l-175 84 -2 -3 175 -84 2 3zm-5 11l-8 -18 28 -2 -20 20z"/>
  </g>
  <g>
   <path class="fil6" d="M389 497l-139 135 -2 -2 139 -136 2 3zm0 12l-14 -14 26 -11 -12 25z"/>
  </g>
  <g>
   <path class="fil6" d="M688 190l-138 136 -2 -3 138 -135 2 2zm0 12l-14 -14 25 -11 -11 25z"/>
  </g>
  <g>
   <path class="fil6" d="M744 268l-174 87 -1 -3 173 -87 2 3zm-5 11l-9 -17 28 -3 -19 20z"/>
  </g>
  <g>
   <path class="fil6" d="M771 357l-191 31 0 -3 191 -31 0 3zm-7 10l-3 -20 27 6 -24 14z"/>
  </g>
  <g>
   <path class="fil6" d="M770 453l-191 -30 0 -3 192 30 -1 3zm-10 7l3 -20 25 14 -28 6z"/>
  </g>
  <g>
   <path class="fil6" d="M740 543l-174 -87 2 -3 173 87 -1 3zm-12 3l9 -17 19 20 -28 -3z"/>
  </g>
  <g>
   <path class="fil6" d="M682 620l-138 -137 3 -2 137 136 -2 3zm-12 -1l14 -14 11 26 -25 -12z"/>
  </g>
  <path class="fil7" d="M472 293c60,0 109,48 109,109 0,60 -49,108 -109,108 -60,0 -109,-48 -109,-108 0,-61 49,-109 109,-109z"/>
  <g>
   <path class="fil4" d="M421 439l0 -14 4 0c1,0 2,0 3,0 1,1 2,2 3,3 0,1 1,2 1,3l0 1c0,2 -1,3 -1,4 -1,1 -2,2 -3,2 -1,1 -2,1 -3,1l-4 0zm2 -13l0 12 2 0c1,0 3,-1 3,-2 1,-1 2,-2 2,-4l0 -1c0,-1 -1,-3 -2,-3 0,-1 -1,-2 -3,-2l-2 0z"/>
   <path id="1" class="fil4" d="M442 435l-6 0 -1 4 -2 0 5 -14 2 0 6 14 -2 0 -2 -4zm-5 -1l5 0 -3 -7 -2 7z"/>
   <polygon id="2" class="fil4" points="457,426 452,426 452,439 450,439 450,426 445,426 445,425 457,425 "/>
   <path id="3" class="fil4" d="M466 435l-6 0 -1 4 -2 0 5 -14 2 0 6 14 -2 0 -2 -4zm-5 -1l5 0 -3 -7 -2 7z"/>
   <polygon id="4" class="fil4" points="478,438 485,438 485,439 476,439 476,425 478,425 "/>
   <path id="5" class="fil4" d="M495 435l-6 0 -1 4 -2 0 6 -14 1 0 6 14 -2 0 -2 -4zm-5 -1l5 0 -3 -7 -2 7z"/>
   <polygon id="6" class="fil4" points="505,432 503,434 503,439 501,439 501,425 503,425 503,432 509,425 512,425 506,431 512,439 510,439 "/>
   <polygon id="7" class="fil4" points="522,433 516,433 516,438 523,438 523,439 514,439 514,425 523,425 523,426 516,426 516,431 522,431 "/>
   <g id="database.eps">
    <path class="fil0" d="M491 370c-1,-3 -7,-6 -19,-6 -11,0 -18,3 -19,6 0,0 0,1 0,1l0 28c0,0 0,0 0,0 1,4 9,7 19,7 10,0 18,-3 19,-7 0,0 0,0 0,0l0 -28c0,0 0,-1 0,-1zm-1 20c0,0 0,0 0,0 0,0 0,0 -1,0 0,0 0,1 0,1 0,0 0,0 0,0 0,0 0,0 0,0 0,0 0,0 0,0 0,0 -1,1 -1,1 0,0 0,0 0,0 0,0 0,0 -1,0 0,0 0,0 0,0 0,0 0,0 0,1 0,0 0,0 0,0 -1,0 -1,0 -1,0 0,0 0,0 0,0 -2,1 -4,1 -7,2 0,0 0,0 0,0 -1,0 -1,0 -2,0 0,0 0,0 0,0 0,0 -1,0 -1,0 0,0 -1,0 -1,0 0,0 -1,0 -1,0 -1,0 -1,0 -2,0 -1,0 -1,0 -2,0 0,0 0,0 -1,0 0,0 0,0 -1,0 0,0 0,0 -1,0 0,0 0,0 0,0 -1,0 -1,0 -2,0 0,0 0,0 0,0 -2,-1 -5,-1 -6,-2 0,0 0,0 0,0 -1,0 -1,0 -1,0 0,0 0,0 0,0 -1,-1 -1,-1 -1,-1 0,0 0,0 0,0 0,0 -1,0 -1,0 0,0 0,0 0,0 0,0 0,-1 0,-1 -1,0 -1,0 -1,0 0,0 0,0 0,0 0,0 0,0 0,0 0,0 0,-1 0,-1 0,0 0,0 0,0 0,0 0,0 0,0 0,0 -1,0 -1,-1 0,0 0,0 0,0 1,0 1,0 0,0l0 -6c0,0 1,0 1,0 0,0 0,1 0,1 3,2 9,4 17,4 8,0 14,-2 17,-4 0,0 1,-1 1,-1l0 6c0,0 0,0 0,0 0,0 0,0 0,0 0,1 0,1 0,1zm0 -16l0 6c0,0 0,0 0,0 0,0 0,0 0,0 0,0 0,1 0,1 0,0 0,0 0,0 0,0 0,0 -1,0 0,0 0,0 0,0 0,0 0,1 0,1 0,0 0,0 0,0 0,0 0,0 0,0 0,0 -1,0 -1,0 0,0 0,1 0,1 0,0 0,0 -1,0 0,0 0,0 0,0 0,0 0,0 0,0 0,0 0,0 0,0 -1,1 -1,1 -1,1 0,0 0,0 0,0 -2,1 -4,1 -7,2 0,0 0,0 0,0 -1,0 -1,0 -2,0 0,0 0,0 0,0 0,0 -1,0 -1,0 0,0 -1,0 -1,0 0,0 -1,0 -1,0 -1,0 -1,0 -2,0 -1,0 -1,0 -2,0 0,0 0,0 -1,0 0,0 0,0 -1,0 0,0 0,0 -1,0 0,0 0,0 0,0 -1,0 -1,0 -2,0 0,0 0,0 0,0 -2,-1 -5,-1 -6,-2 0,0 0,0 0,0 -1,0 -1,0 -1,-1 0,0 0,0 0,0 -1,0 -1,0 -1,0 0,0 0,0 0,0 0,0 -1,0 -1,0 0,0 0,-1 0,-1 0,0 0,0 0,0 -1,0 -1,0 -1,0 0,0 0,0 0,0 0,0 0,-1 0,-1 0,0 0,0 0,0 0,0 0,0 0,0 0,0 0,0 0,0 0,0 -1,-1 -1,-1 0,0 0,0 0,0 1,0 1,0 0,0l0 -6c1,0 1,0 1,0 0,0 0,0 0,0 0,1 0,1 1,1 0,0 0,0 0,0 0,0 0,0 1,0 0,0 0,1 0,1 0,0 0,0 1,0 0,0 0,0 0,0 0,0 1,0 1,0 0,1 0,1 0,1 1,0 1,0 1,0 0,0 1,0 1,0 0,0 1,0 1,0 0,0 0,0 0,0 1,0 1,1 2,1 0,0 0,0 0,0 1,0 1,0 1,0 1,0 1,0 1,0 0,0 1,0 2,0 0,0 0,0 0,0 1,0 1,0 2,0 0,0 0,0 0,0 1,0 1,0 2,0 1,0 1,0 2,0 0,0 1,0 1,0 0,0 1,0 1,0 0,0 0,0 1,0 0,0 1,0 1,0 1,0 1,0 1,0 0,0 1,0 1,0 0,0 0,0 1,0 0,0 0,-1 1,-1 0,0 0,0 0,0 1,0 1,0 1,0 1,0 1,0 1,0 0,0 1,0 1,0 0,0 0,0 0,-1 1,0 1,0 1,0 0,0 0,0 0,0 1,0 1,0 1,0 0,0 1,-1 1,-1 0,0 0,0 0,0 0,0 0,0 1,0 0,0 0,0 0,-1 0,0 0,0 0,0 1,0 1,0 1,0zm-18 -9c10,0 18,3 18,6 0,3 -8,6 -18,6 -10,0 -18,-3 -18,-6 0,-3 8,-6 18,-6zm18 34c0,0 0,0 0,0 -1,3 -8,5 -18,5 -10,0 -17,-2 -18,-5 0,0 0,0 0,0l0 -7c0,0 1,0 1,0 0,1 0,1 0,1 3,2 9,4 17,4 8,0 14,-2 17,-4 0,0 1,0 1,-1l0 7z"/>
   </g>
  </g>
 </g>
</svg>
